Fira Sans-Light.ufo
<glyph name="exclam" format="1">
  <advance width="234"/>
  <unicode hex="0021"/>
  <outline>
    <contour>
      <point x="116" y="680" type="line"/>
      <point x="116" y="188" type="line"/>
      <point x="118" y="188" type="line"/>
      <point x="118" y="680" type="line"/>
    </contour>
    <contour>
      <point x="113" y="11"/>
      <point x="110" y="8"/>
      <point x="110" y="4" type="curve" smooth="yes"/>
      <point x="110" y="0"/>
      <point x="113" y="-3"/>
      <point x="117" y="-3" type="curve" smooth="yes"/>
      <point x="121" y="-3"/>
      <point x="124" y="0"/>
      <point x="124" y="4" type="curve" smooth="yes"/>
      <point x="124" y="8"/>
      <point x="121" y="11"/>
      <point x="117" y="11" type="curve" smooth="yes"/>
    </contour>
  </outline>
</glyph>
<glyph name="percent" format="1">
  <advance width="745"/>
  <unicode hex="0025"/>
  <outline>
    <contour>
      <point x="145" y="-9" type="line"/>
      <point x="147" y="-9" type="line"/>
      <point x="603" y="690" type="line"/>
      <point x="601" y="690" type="line"/>
    </contour>
    <contour>
      <point x="269" y="668"/>
      <point x="316" y="615"/>
      <point x="316" y="520" type="curve" smooth="yes"/>
      <point x="316" y="428"/>
      <point x="271" y="368"/>
      <point x="194" y="368" type="curve" smooth="yes"/>
      <point x="118" y="368"/>
      <point x="72" y="426"/>
      <point x="72" y="517" type="curve" smooth="yes"/>
      <point x="72" y="613"/>
      <point x="117" y="668"/>
      <point x="194" y="668" type="curve" smooth="yes"/>
    </contour>
    <contour>
      <point x="115" y="670"/>
      <point x="70" y="613"/>
      <point x="70" y="517" type="curve" smooth="yes"/>
      <point x="70" y="426"/>
      <point x="116" y="366"/>
      <point x="194" y="366" type="curve" smooth="yes"/>
      <point x="273" y="366"/>
      <point x="318" y="428"/>
      <point x="318" y="520" type="curve" smooth="yes"/>
      <point x="318" y="615"/>
      <point x="271" y="670"/>
      <point x="194" y="670" type="curve" smooth="yes"/>
    </contour>
    <contour>
      <point x="626" y="293"/>
      <point x="673" y="240"/>
      <point x="673" y="145" type="curve" smooth="yes"/>
      <point x="673" y="53"/>
      <point x="628" y="-7"/>
      <point x="551" y="-7" type="curve" smooth="yes"/>
      <point x="475" y="-7"/>
      <point x="429" y="51"/>
      <point x="429" y="142" type="curve" smooth="yes"/>
      <point x="429" y="238"/>
      <point x="474" y="293"/>
      <point x="551" y="293" type="curve" smooth="yes"/>
    </contour>
    <contour>
      <point x="472" y="295"/>
      <point x="427" y="238"/>
      <point x="427" y="142" type="curve" smooth="yes"/>
      <point x="427" y="51"/>
      <point x="473" y="-9"/>
      <point x="551" y="-9" type="curve" smooth="yes"/>
      <point x="630" y="-9"/>
      <point x="675" y="53"/>
      <point x="675" y="145" type="curve" smooth="yes"/>
      <point x="675" y="240"/>
      <point x="628" y="295"/>
      <point x="551" y="295" type="curve" smooth="yes"/>
    </contour>
  </outline>
</glyph>
<glyph name="ampersand" format="1">
  <advance width="734"/>
  <unicode hex="0026"/>
  <outline>
    <contour>
      <point x="225" y="691"/>
      <point x="162" y="631"/>
      <point x="163" y="549" type="curve" smooth="yes"/>
      <point x="163" y="473"/>
      <point x="190" y="436"/>
      <point x="270" y="361" type="curve"/>
      <point x="170" y="308"/>
      <point x="119" y="251"/>
      <point x="119" y="158" type="curve" smooth="yes"/>
      <point x="119" y="62"/>
      <point x="196" y="-9"/>
      <point x="310" y="-9" type="curve" smooth="yes"/>
      <point x="410" y="-9"/>
      <point x="483" y="34"/>
      <point x="532" y="114" type="curve"/>
      <point x="652" y="-1" type="line"/>
      <point x="654" y="0" type="line"/>
      <point x="533" y="115" type="line"/>
      <point x="571" y="187"/>
      <point x="590" y="258"/>
      <point x="606" y="347" type="curve"/>
      <point x="604" y="347" type="line"/>
      <point x="588" y="258"/>
      <point x="570" y="189"/>
      <point x="532" y="116" type="curve"/>
      <point x="274" y="361" type="line"/>
      <point x="378" y="420"/>
      <point x="444" y="461"/>
      <point x="444" y="550" type="curve" smooth="yes"/>
      <point x="444" y="631"/>
      <point x="388" y="691"/>
      <point x="306" y="691" type="curve" smooth="yes"/>
    </contour>
    <contour>
      <point x="531" y="115" type="line"/>
      <point x="480" y="35"/>
      <point x="410" y="-7"/>
      <point x="310" y="-7" type="curve" smooth="yes"/>
      <point x="197" y="-7"/>
      <point x="121" y="64"/>
      <point x="121" y="158" type="curve" smooth="yes"/>
      <point x="121" y="251"/>
      <point x="172" y="306"/>
      <point x="272" y="360" type="curve"/>
    </contour>
    <contour>
      <point x="388" y="689"/>
      <point x="442" y="630"/>
      <point x="442" y="550" type="curve" smooth="yes"/>
      <point x="442" y="463"/>
      <point x="377" y="422"/>
      <point x="272" y="362" type="curve"/>
      <point x="191" y="438"/>
      <point x="166" y="473"/>
      <point x="165" y="549" type="curve"/>
      <point x="165" y="631"/>
      <point x="225" y="689"/>
      <point x="306" y="689" type="curve" smooth="yes"/>
    </contour>
  </outline>
</glyph>
<glyph name="quotesingle" format="1">
  <advance width="182"/>
  <unicode hex="0027"/>
  <outline>
    <contour>
      <point x="92" y="446" type="line"/>
      <point x="92" y="680" type="line"/>
      <point x="90" y="680" type="line"/>
      <point x="90" y="446" type="line"/>
    </contour>
  </outline>
</glyph>
<glyph name="parenleft" format="1">
  <advance width="329"/>
  <unicode hex="0028"/>
  <outline>
    <contour>
      <point x="157" y="693"/>
      <point x="80" y="577"/>
      <point x="80" y="350" type="curve"/>
      <point x="80" y="123"/>
      <point x="157" y="7"/>
      <point x="247" y="-125" type="curve"/>
      <point x="249" y="-124" type="line"/>
      <point x="160" y="7"/>
      <point x="82" y="123"/>
      <point x="82" y="350" type="curve"/>
      <point x="82" y="577"/>
      <point x="160" y="693"/>
      <point x="249" y="824" type="curve"/>
      <point x="247" y="825" type="line"/>
    </contour>
  </outline>
</glyph>
<glyph name="asterisk" format="1">
  <advance width="428"/>
  <unicode hex="002A"/>
  <outline>
    <contour>
      <point x="214" y="564" type="line"/>
      <point x="307" y="435" type="line"/>
      <point x="309" y="436" type="line"/>
      <point x="216" y="565" type="line" smooth="yes"/>
      <point x="214" y="566" type="line"/>
    </contour>
    <contour>
      <point x="213" y="727" type="line"/>
      <point x="213" y="567" type="line"/>
      <point x="214" y="566" type="line"/>
      <point x="215" y="567" type="line"/>
      <point x="215" y="727" type="line"/>
    </contour>
    <contour>
      <point x="215" y="567" type="line"/>
      <point x="214" y="566" type="line"/>
      <point x="216" y="565" type="line"/>
      <point x="368" y="614" type="line"/>
      <point x="367" y="616" type="line"/>
    </contour>
    <contour>
      <point x="60" y="614" type="line"/>
      <point x="212" y="565" type="line"/>
      <point x="214" y="566" type="line"/>
      <point x="213" y="567" type="line"/>
      <point x="61" y="616" type="line"/>
    </contour>
    <contour>
      <point x="212" y="565" type="line"/>
      <point x="118" y="436" type="line"/>
      <point x="120" y="435" type="line"/>
      <point x="214" y="564" type="line"/>
      <point x="214" y="566" type="line"/>
    </contour>
  </outline>
</glyph>
<glyph name="plus" format="1">
  <advance width="478"/>
  <unicode hex="002B"/>
  <outline>
    <contour>
      <point x="238" y="488" type="line"/>
      <point x="238" y="332" type="line"/>
      <point x="85" y="332" type="line"/>
      <point x="85" y="330" type="line"/>
      <point x="238" y="330" type="line"/>
      <point x="238" y="174" type="line"/>
      <point x="240" y="174" type="line"/>
      <point x="240" y="330" type="line"/>
      <point x="393" y="330" type="line"/>
      <point x="393" y="332" type="line"/>
      <point x="240" y="332" type="line"/>
      <point x="240" y="488" type="line"/>
    </contour>
  </outline>
</glyph>
<glyph name="comma" format="1">
  <advance width="120"/>
  <unicode hex="002C"/>
  <outline>
    <contour>
      <point x="56" y="10"/>
      <point x="53" y="7"/>
      <point x="53" y="3" type="curve" smooth="yes"/>
      <point x="53" y="0"/>
      <point x="55" y="-3"/>
      <point x="59" y="-4" type="curve"/>
      <point x="26" y="-109" type="line"/>
      <point x="29" y="-109" type="line"/>
      <point x="65" y="-6" type="line" smooth="yes"/>
      <point x="66" y="-3"/>
      <point x="67" y="-1"/>
      <point x="67" y="3" type="curve" smooth="yes"/>
      <point x="67" y="7"/>
      <point x="64" y="10"/>
      <point x="60" y="10" type="curve" smooth="yes"/>
    </contour>
  </outline>
</glyph>
<glyph name="hyphen" format="1">
  <advance width="400"/>
  <unicode hex="002D"/>
  <outline>
    <contour>
      <point x="315" y="311" type="line"/>
      <point x="315" y="313" type="line"/>
      <point x="85" y="313" type="line"/>
      <point x="85" y="311" type="line"/>
    </contour>
  </outline>
</glyph>
<glyph name="slash" format="1">
  <advance width="520"/>
  <unicode hex="002F"/>
  <outline>
    <contour>
      <point x="143" y="-91" type="line"/>
      <point x="145" y="-92" type="line"/>
      <point x="377" y="793" type="line"/>
      <point x="375" y="794" type="line"/>
    </contour>
  </outline>
</glyph>
<glyph name="zero" format="1">
  <advance width="536"/>
  <unicode hex="0030"/>
  <outline>
    <contour>
      <point x="140" y="670"/>
      <point x="80" y="556"/>
      <point x="80" y="331" type="curve" smooth="yes"/>
      <point x="80" y="106"/>
      <point x="140" y="-9"/>
      <point x="268" y="-9" type="curve" smooth="yes"/>
      <point x="396" y="-9"/>
      <point x="456" y="106"/>
      <point x="456" y="331" type="curve" smooth="yes"/>
      <point x="456" y="556"/>
      <point x="396" y="670"/>
      <point x="268" y="670" type="curve" smooth="yes"/>
    </contour>
    <contour>
      <point x="395" y="668"/>
      <point x="454" y="554"/>
      <point x="454" y="331" type="curve" smooth="yes"/>
      <point x="454" y="108"/>
      <point x="395" y="-7"/>
      <point x="268" y="-7" type="curve" smooth="yes"/>
      <point x="141" y="-7"/>
      <point x="82" y="108"/>
      <point x="82" y="331" type="curve" smooth="yes"/>
      <point x="82" y="554"/>
      <point x="141" y="668"/>
      <point x="268" y="668" type="curve"/>
    </contour>
  </outline>
</glyph>
<glyph name="one" format="1">
  <advance width="385"/>
  <unicode hex="0031"/>
  <outline>
    <contour>
      <point x="243" y="660" type="line"/>
      <point x="60" y="543" type="line"/>
      <point x="61" y="541" type="line"/>
      <point x="243" y="658" type="line"/>
      <point x="243" y="0" type="line"/>
      <point x="245" y="0" type="line"/>
      <point x="245" y="660" type="line"/>
    </contour>
  </outline>
</glyph>
<glyph name="two" format="1">
  <advance width="463"/>
  <unicode hex="0032"/>
  <outline>
    <contour>
      <point x="145" y="670"/>
      <point x="98" y="637"/>
      <point x="52" y="582" type="curve"/>
      <point x="54" y="581" type="line"/>
      <point x="100" y="636"/>
      <point x="146" y="668"/>
      <point x="220" y="668" type="curve" smooth="yes"/>
      <point x="322" y="668"/>
      <point x="384" y="596"/>
      <point x="384" y="507" type="curve" smooth="yes"/>
      <point x="384" y="376"/>
      <point x="312" y="301"/>
      <point x="50" y="2" type="curve"/>
      <point x="50" y="0" type="line"/>
      <point x="393" y="0" type="line"/>
      <point x="393" y="2" type="line"/>
      <point x="53" y="2" type="line"/>
      <point x="313" y="300"/>
      <point x="386" y="374"/>
      <point x="386" y="507" type="curve" smooth="yes"/>
      <point x="386" y="596"/>
      <point x="324" y="670"/>
      <point x="220" y="670" type="curve" smooth="yes"/>
    </contour>
  </outline>
</glyph>
<glyph name="three" format="1">
  <advance width="469"/>
  <unicode hex="0033"/>
  <outline>
    <contour>
      <point x="157" y="670"/>
      <point x="102" y="649"/>
      <point x="54" y="599" type="curve"/>
      <point x="56" y="598" type="line"/>
      <point x="104" y="648"/>
      <point x="159" y="668"/>
      <point x="216" y="668" type="curve" smooth="yes"/>
      <point x="314" y="668"/>
      <point x="373" y="604"/>
      <point x="373" y="513" type="curve" smooth="yes"/>
      <point x="373" y="404"/>
      <point x="295" y="354"/>
      <point x="215" y="354" type="curve" smooth="yes"/>
      <point x="178" y="354" type="line"/>
      <point x="178" y="352" type="line"/>
      <point x="212" y="352" type="line" smooth="yes"/>
      <point x="320" y="352"/>
      <point x="392" y="292"/>
      <point x="392" y="178" type="curve" smooth="yes"/>
      <point x="392" y="70"/>
      <point x="320" y="-7"/>
      <point x="212" y="-7" type="curve" smooth="yes"/>
      <point x="135" y="-7"/>
      <point x="87" y="16"/>
      <point x="37" y="73" type="curve"/>
      <point x="35" y="72" type="line"/>
      <point x="85" y="15"/>
      <point x="134" y="-9"/>
      <point x="212" y="-9" type="curve" smooth="yes"/>
      <point x="321" y="-9"/>
      <point x="394" y="68"/>
      <point x="394" y="178" type="curve" smooth="yes"/>
      <point x="394" y="293"/>
      <point x="322" y="348"/>
      <point x="231" y="353" type="curve"/>
      <point x="304" y="359"/>
      <point x="375" y="407"/>
      <point x="375" y="513" type="curve" smooth="yes"/>
      <point x="375" y="605"/>
      <point x="316" y="670"/>
      <point x="216" y="670" type="curve" smooth="yes"/>
    </contour>
  </outline>
</glyph>
<glyph name="four" format="1">
  <advance width="493"/>
  <unicode hex="0034"/>
  <outline>
    <contour>
      <point x="55" y="199" type="line"/>
      <point x="55" y="196" type="line"/>
      <point x="453" y="196" type="line"/>
      <point x="453" y="198" type="line"/>
      <point x="57" y="198" type="line"/>
      <point x="266" y="669" type="line"/>
      <point x="264" y="670" type="line"/>
    </contour>
    <contour>
      <point x="356" y="418" type="line"/>
      <point x="356" y="197" type="line"/>
      <point x="356" y="0" type="line"/>
      <point x="358" y="0" type="line"/>
      <point x="358" y="418" type="line"/>
    </contour>
  </outline>
</glyph>
<glyph name="less" format="1">
  <advance width="496"/>
  <unicode hex="003C"/>
  <outline>
    <contour>
      <point x="90" y="334" type="line"/>
      <point x="90" y="332" type="line"/>
      <point x="405" y="175" type="line"/>
      <point x="406" y="177" type="line"/>
      <point x="92" y="333" type="line"/>
      <point x="406" y="485" type="line"/>
      <point x="405" y="487" type="line"/>
    </contour>
  </outline>
</glyph>
<glyph name="question" format="1">
  <advance width="448"/>
  <unicode hex="003F"/>
  <outline>
    <contour>
      <point x="167" y="690"/>
      <point x="115" y="663"/>
      <point x="70" y="610" type="curve"/>
      <point x="72" y="608" type="line"/>
      <point x="116" y="661"/>
      <point x="167" y="688"/>
      <point x="235" y="688" type="curve"/>
      <point x="317" y="688"/>
      <point x="376" y="634"/>
      <point x="376" y="556" type="curve"/>
      <point x="376" y="412"/>
      <point x="191" y="434"/>
      <point x="191" y="271" type="curve"/>
      <point x="191" y="188" type="line"/>
      <point x="193" y="188" type="line"/>
      <point x="193" y="271" type="line"/>
      <point x="193" y="432"/>
      <point x="378" y="412"/>
      <point x="378" y="556" type="curve"/>
      <point x="378" y="635"/>
      <point x="317" y="690"/>
      <point x="235" y="690" type="curve"/>
    </contour>
    <contour>
      <point x="188" y="11"/>
      <point x="185" y="8"/>
      <point x="185" y="4" type="curve" smooth="yes"/>
      <point x="185" y="0"/>
      <point x="188" y="-3"/>
      <point x="192" y="-3" type="curve" smooth="yes"/>
      <point x="196" y="-3"/>
      <point x="199" y="0"/>
      <point x="199" y="4" type="curve" smooth="yes"/>
      <point x="199" y="8"/>
      <point x="196" y="11"/>
      <point x="192" y="11" type="curve" smooth="yes"/>
    </contour>
  </outline>
</glyph>
<glyph name="at" format="1">
  <advance width="1020"/>
  <unicode hex="0040"/>
  <outline>
    <contour>
      <point x="276" y="691"/>
      <point x="108" y="481"/>
      <point x="108" y="244" type="curve"/>
      <point x="108" y="-35"/>
      <point x="290" y="-192"/>
      <point x="526" y="-192" type="curve"/>
      <point x="586" y="-192"/>
      <point x="656" y="-180"/>
      <point x="705" y="-161" type="curve"/>
      <point x="705" y="-159" type="line"/>
      <point x="656" y="-178"/>
      <point x="586" y="-190"/>
      <point x="526" y="-190" type="curve"/>
      <point x="290" y="-190"/>
      <point x="110" y="-35"/>
      <point x="110" y="244" type="curve"/>
      <point x="110" y="481"/>
      <point x="276" y="689"/>
      <point x="528" y="689" type="curve"/>
      <point x="786" y="689"/>
      <point x="910" y="507"/>
      <point x="910" y="309" type="curve"/>
      <point x="910" y="81"/>
      <point x="831" y="16"/>
      <point x="755" y="16" type="curve"/>
      <point x="687" y="16"/>
      <point x="643" y="72"/>
      <point x="643" y="175" type="curve"/>
      <point x="641" y="175" type="line"/>
      <point x="641" y="72"/>
      <point x="687" y="14"/>
      <point x="755" y="14" type="curve"/>
      <point x="831" y="14"/>
      <point x="912" y="79"/>
      <point x="912" y="309" type="curve"/>
      <point x="912" y="507"/>
      <point x="786" y="691"/>
      <point x="528" y="691" type="curve"/>
    </contour>
    <contour>
      <point x="426" y="474"/>
      <point x="334" y="402"/>
      <point x="334" y="231" type="curve"/>
      <point x="334" y="88"/>
      <point x="402" y="16"/>
      <point x="489" y="16" type="curve"/>
      <point x="563" y="16"/>
      <point x="615" y="70"/>
      <point x="643" y="169" type="curve"/>
      <point x="641" y="169" type="line"/>
      <point x="613" y="72"/>
      <point x="563" y="18"/>
      <point x="489" y="18" type="curve"/>
      <point x="402" y="18"/>
      <point x="336" y="88"/>
      <point x="336" y="231" type="curve"/>
      <point x="336" y="402"/>
      <point x="426" y="472"/>
      <point x="525" y="472" type="curve"/>
      <point x="575" y="472"/>
      <point x="616" y="455"/>
      <point x="641" y="441" type="curve"/>
      <point x="641" y="175" type="line"/>
      <point x="642" y="174" type="line"/>
      <point x="643" y="175" type="line"/>
      <point x="643" y="442" type="line"/>
      <point x="616" y="457"/>
      <point x="575" y="474"/>
      <point x="525" y="474" type="curve"/>
    </contour>
  </outline>
</glyph>
<glyph name="B" format="1">
  <advance width="581"/>
  <unicode hex="0042"/>
  <outline>
    <contour>
      <point x="130" y="680" type="line"/>
      <point x="130" y="0" type="line"/>
      <point x="287" y="0" type="line" smooth="yes"/>
      <point x="417" y="0"/>
      <point x="516" y="46"/>
      <point x="516" y="183" type="curve" smooth="yes"/>
      <point x="516" y="294"/>
      <point x="432" y="355"/>
      <point x="336" y="360" type="curve"/>
      <point x="414" y="370"/>
      <point x="478" y="428"/>
      <point x="478" y="513" type="curve" smooth="yes"/>
      <point x="478" y="619"/>
      <point x="403" y="680"/>
      <point x="264" y="680" type="curve" smooth="yes"/>
    </contour>
    <contour>
      <point x="403" y="678"/>
      <point x="476" y="617"/>
      <point x="476" y="513" type="curve" smooth="yes"/>
      <point x="476" y="429"/>
      <point x="408" y="361"/>
      <point x="312" y="361" type="curve" smooth="yes"/>
      <point x="131" y="361" type="line"/>
      <point x="131" y="359" type="line"/>
      <point x="317" y="359" type="line" smooth="yes"/>
      <point x="430" y="359"/>
      <point x="514" y="292"/>
      <point x="514" y="183" type="curve" smooth="yes"/>
      <point x="514" y="46"/>
      <point x="415" y="2"/>
      <point x="288" y="2" type="curve" smooth="yes"/>
      <point x="132" y="2" type="line"/>
      <point x="132" y="678" type="line"/>
      <point x="265" y="678" type="line" smooth="yes"/>
    </contour>
    <contour>
      <point x="281" y="680" type="move" name="top"/>
    </contour>
    <contour>
      <point x="310" y="0" type="move" name="bottom"/>
    </contour>
  </outline>
</glyph>
<glyph name="C" format="1">
  <advance width="529"/>
  <unicode hex="0043"/>
  <outline>
    <contour>
      <point x="191" y="690"/>
      <point x="85" y="577"/>
      <point x="85" y="339" type="curve" smooth="yes"/>
      <point x="85" y="114"/>
      <point x="188" y="-9"/>
      <point x="341" y="-9" type="curve" smooth="yes"/>
      <point x="423" y="-9"/>
      <point x="471" y="23"/>
      <point x="503" y="50" type="curve"/>
      <point x="502" y="52" type="line"/>
      <point x="470" y="25"/>
      <point x="422" y="-7"/>
      <point x="341" y="-7" type="curve" smooth="yes"/>
      <point x="190" y="-7"/>
      <point x="87" y="115"/>
      <point x="87" y="339" type="curve" smooth="yes"/>
      <point x="87" y="575"/>
      <point x="193" y="688"/>
      <point x="342" y="688" type="curve" smooth="yes"/>
      <point x="415" y="688"/>
      <point x="458" y="662"/>
      <point x="493" y="631" type="curve"/>
      <point x="494" y="633" type="line"/>
      <point x="459" y="664"/>
      <point x="416" y="690"/>
      <point x="342" y="690" type="curve" smooth="yes"/>
    </contour>
    <contour>
      <point x="323" y="341" type="move" name="center"/>
    </contour>
    <contour>
      <point x="341" y="0" type="move" name="bottom"/>
    </contour>
    <contour>
      <point x="343" y="680" type="move" name="top"/>
    </contour>
  </outline>
</glyph>
<glyph name="E" format="1">
  <advance width="495"/>
  <unicode hex="0045"/>
  <outline>
    <contour>
      <point x="130" y="680" type="line"/>
      <point x="130" y="0" type="line"/>
      <point x="445" y="0" type="line"/>
      <point x="445" y="2" type="line"/>
      <point x="132" y="2" type="line"/>
      <point x="132" y="360" type="line"/>
      <point x="392" y="360" type="line"/>
      <point x="392" y="362" type="line"/>
      <point x="132" y="362" type="line"/>
      <point x="132" y="678" type="line"/>
      <point x="435" y="678" type="line"/>
      <point x="435" y="680" type="line"/>
    </contour>
    <contour>
      <point x="425" y="0" type="move" name="ogonek"/>
    </contour>
    <contour>
      <point x="284" y="680" type="move" name="top"/>
    </contour>
    <contour>
      <point x="80" y="680" type="move" name="topleft"/>
    </contour>
    <contour>
      <point x="284" y="0" type="move" name="bottom"/>
    </contour>
  </outline>
</glyph>
<glyph name="F" format="1">
  <advance width="470"/>
  <unicode hex="0046"/>
  <outline>
    <contour>
      <point x="130" y="680" type="line"/>
      <point x="130" y="0" type="line"/>
      <point x="132" y="0" type="line"/>
      <point x="132" y="345" type="line"/>
      <point x="390" y="345" type="line"/>
      <point x="390" y="347" type="line"/>
      <point x="132" y="347" type="line"/>
      <point x="132" y="678" type="line"/>
      <point x="430" y="678" type="line"/>
      <point x="430" y="680" type="line"/>
    </contour>
    <contour>
      <point x="290" y="680" type="move" name="top"/>
    </contour>
  </outline>
</glyph>
<glyph name="G" format="1">
  <advance width="599"/>
  <unicode hex="0047"/>
  <outline>
    <contour>
      <point x="217" y="690"/>
      <point x="85" y="582"/>
      <point x="85" y="345" type="curve" smooth="yes"/>
      <point x="85" y="114"/>
      <point x="190" y="-9"/>
      <point x="353" y="-9" type="curve" smooth="yes"/>
      <point x="423" y="-9"/>
      <point x="479" y="15"/>
      <point x="519" y="39" type="curve"/>
      <point x="519" y="342" type="line"/>
      <point x="366" y="342" type="line"/>
      <point x="366" y="340" type="line"/>
      <point x="517" y="340" type="line"/>
      <point x="517" y="40" type="line"/>
      <point x="479" y="17"/>
      <point x="424" y="-7"/>
      <point x="353" y="-7" type="curve" smooth="yes"/>
      <point x="190" y="-7"/>
      <point x="87" y="116"/>
      <point x="87" y="345" type="curve" smooth="yes"/>
      <point x="87" y="580"/>
      <point x="218" y="688"/>
      <point x="343" y="688" type="curve" smooth="yes"/>
      <point x="404" y="688"/>
      <point x="452" y="669"/>
      <point x="499" y="633" type="curve"/>
      <point x="500" y="635" type="line"/>
      <point x="452" y="671"/>
      <point x="405" y="690"/>
      <point x="343" y="690" type="curve" smooth="yes"/>
    </contour>
    <contour>
      <point x="337" y="680" type="move" name="top"/>
    </contour>
    <contour>
      <point x="338" y="0" type="move" name="bottom"/>
    </contour>
  </outline>
</glyph>
<glyph name="H" format="1">
  <advance width="654"/>
  <unicode hex="0048"/>
  <outline>
    <contour>
      <point x="524" y="0" type="line"/>
      <point x="524" y="680" type="line"/>
      <point x="522" y="680" type="line"/>
      <point x="522" y="362" type="line"/>
      <point x="132" y="362" type="line"/>
      <point x="132" y="680" type="line"/>
      <point x="130" y="680" type="line"/>
      <point x="130" y="0" type="line"/>
      <point x="132" y="0" type="line"/>
      <point x="132" y="360" type="line"/>
      <point x="522" y="360" type="line"/>
      <point x="522" y="0" type="line"/>
    </contour>
    <contour>
      <point x="327" y="0" type="move" name="bottom"/>
    </contour>
    <contour>
      <point x="326" y="680" type="move" name="top"/>
    </contour>
    <contour>
      <point x="80" y="680" type="move" name="topleft"/>
    </contour>
    <contour>
      <point x="534" y="0" type="move" name="bottomright"/>
    </contour>
    <contour>
      <point x="326" y="340" type="move" name="center"/>
    </contour>
  </outline>
</glyph>
<glyph name="I" format="1">
  <advance width="262"/>
  <unicode hex="0049"/>
  <outline>
    <contour>
      <point x="130" y="680" type="line"/>
      <point x="130" y="0" type="line"/>
      <point x="132" y="0" type="line"/>
      <point x="132" y="680" type="line"/>
    </contour>
    <contour>
      <point x="142" y="0" type="move" name="ogonek"/>
    </contour>
    <contour>
      <point x="131" y="680" type="move" name="top"/>
    </contour>
    <contour>
      <point x="80" y="680" type="move" name="topleft"/>
    </contour>
    <contour>
      <point x="131" y="0" type="move" name="bottom"/>
    </contour>
  </outline>
</glyph>
<glyph name="K" format="1">
  <advance width="504"/>
  <unicode hex="004B"/>
  <outline>
    <contour>
      <point x="470" y="680" type="line"/>
      <point x="135" y="366" type="line"/>
      <point x="486" y="0" type="line"/>
      <point x="489" y="0" type="line"/>
      <point x="138" y="366" type="line"/>
      <point x="473" y="680" type="line"/>
    </contour>
    <contour>
      <point x="130" y="680" type="line"/>
      <point x="130" y="1" type="line"/>
      <point x="132" y="1" type="line"/>
      <point x="132" y="680" type="line"/>
    </contour>
    <contour>
      <point x="284" y="680" type="move" name="top"/>
    </contour>
    <contour>
      <point x="284" y="0" type="move" name="bottom"/>
    </contour>
  </outline>
</glyph>
<glyph name="N" format="1">
  <advance width="654"/>
  <unicode hex="004E"/>
  <outline>
    <contour>
      <point x="522" y="680" type="line"/>
      <point x="522" y="136" type="line"/>
      <point x="522" y="95"/>
      <point x="522" y="43"/>
      <point x="522" y="2" type="curve"/>
      <point x="133" y="680" type="line"/>
      <point x="130" y="680" type="line"/>
      <point x="130" y="0" type="line"/>
      <point x="132" y="0" type="line"/>
      <point x="132" y="575" type="line"/>
      <point x="132" y="622"/>
      <point x="132" y="655"/>
      <point x="132" y="678" type="curve"/>
      <point x="521" y="0" type="line"/>
      <point x="524" y="0" type="line"/>
      <point x="524" y="680" type="line"/>
    </contour>
    <contour>
      <point x="331" y="680" type="move" name="top"/>
    </contour>
    <contour>
      <point x="321" y="0" type="move" name="bottom"/>
    </contour>
  </outline>
</glyph>
<glyph name="O" format="1">
  <advance width="687"/>
  <unicode hex="004F"/>
  <outline>
    <contour>
      <point x="188" y="690"/>
      <point x="85" y="557"/>
      <point x="85" y="338" type="curve" smooth="yes"/>
      <point x="85" y="119"/>
      <point x="184" y="-9"/>
      <point x="343" y="-9" type="curve" smooth="yes"/>
      <point x="510" y="-9"/>
      <point x="602" y="120"/>
      <point x="602" y="340" type="curve" smooth="yes"/>
      <point x="602" y="563"/>
      <point x="504" y="690"/>
      <point x="343" y="690" type="curve" smooth="yes"/>
    </contour>
    <contour>
      <point x="503" y="688"/>
      <point x="600" y="561"/>
      <point x="600" y="340" type="curve" smooth="yes"/>
      <point x="600" y="122"/>
      <point x="509" y="-7"/>
      <point x="343" y="-7" type="curve" smooth="yes"/>
      <point x="185" y="-7"/>
      <point x="87" y="121"/>
      <point x="87" y="338" type="curve" smooth="yes"/>
      <point x="87" y="555"/>
      <point x="189" y="688"/>
      <point x="343" y="688" type="curve" smooth="yes"/>
    </contour>
    <contour>
      <point x="422" y="0" type="move" name="ogonek"/>
    </contour>
    <contour>
      <point x="344" y="680" type="move" name="top"/>
    </contour>
    <contour>
      <point x="517" y="680" type="move" name="topright"/>
    </contour>
    <contour>
      <point x="102" y="680" type="move" name="topleft"/>
    </contour>
    <contour>
      <point x="344" y="0" type="move" name="bottom"/>
    </contour>
  </outline>
</glyph>
<glyph name="S" format="1">
  <advance width="540"/>
  <unicode hex="0053"/>
  <outline>
    <contour>
      <point x="158" y="690"/>
      <point x="88" y="624"/>
      <point x="88" y="538" type="curve" smooth="yes"/>
      <point x="88" y="447"/>
      <point x="132" y="412"/>
      <point x="269" y="368" type="curve" smooth="yes"/>
      <point x="397" y="327"/>
      <point x="458" y="287"/>
      <point x="458" y="178" type="curve" smooth="yes"/>
      <point x="458" y="69"/>
      <point x="378" y="-7"/>
      <point x="260" y="-7" type="curve" smooth="yes"/>
      <point x="168" y="-7"/>
      <point x="115" y="24"/>
      <point x="66" y="71" type="curve"/>
      <point x="65" y="69" type="line"/>
      <point x="114" y="22"/>
      <point x="168" y="-9"/>
      <point x="260" y="-9" type="curve" smooth="yes"/>
      <point x="380" y="-9"/>
      <point x="460" y="68"/>
      <point x="460" y="178" type="curve" smooth="yes"/>
      <point x="460" y="288"/>
      <point x="399" y="329"/>
      <point x="270" y="370" type="curve" smooth="yes"/>
      <point x="132" y="414"/>
      <point x="90" y="449"/>
      <point x="90" y="538" type="curve" smooth="yes"/>
      <point x="90" y="622"/>
      <point x="159" y="688"/>
      <point x="264" y="688" type="curve" smooth="yes"/>
      <point x="345" y="688"/>
      <point x="394" y="662"/>
      <point x="436" y="624" type="curve"/>
      <point x="437" y="626" type="line"/>
      <point x="395" y="663"/>
      <point x="347" y="690"/>
      <point x="264" y="690" type="curve" smooth="yes"/>
    </contour>
    <contour>
      <point x="273" y="680" type="move" name="top"/>
    </contour>
    <contour>
      <point x="261" y="0" type="move" name="bottom"/>
    </contour>
  </outline>
</glyph>
<glyph name="T" format="1">
  <advance width="472"/>
  <unicode hex="0054"/>
  <outline>
    <contour>
      <point x="20" y="680" type="line"/>
      <point x="20" y="678" type="line"/>
      <point x="235" y="678" type="line"/>
      <point x="235" y="0" type="line"/>
      <point x="237" y="0" type="line"/>
      <point x="237" y="678" type="line"/>
      <point x="452" y="678" type="line"/>
      <point x="452" y="680" type="line"/>
    </contour>
    <contour>
      <point x="236" y="0" type="move" name="bottom"/>
    </contour>
    <contour>
      <point x="236" y="680" type="move" name="top"/>
    </contour>
    <contour>
      <point x="247" y="0" type="move" name="bottomright"/>
    </contour>
    <contour>
      <point x="236" y="340" type="move" name="center"/>
    </contour>
  </outline>
</glyph>
<glyph name="U" format="1">
  <advance width="634"/>
  <unicode hex="0055"/>
  <outline>
    <contour>
      <point x="512" y="680" type="line"/>
      <point x="512" y="206" type="line" smooth="yes"/>
      <point x="512" y="84"/>
      <point x="460" y="-7"/>
      <point x="317" y="-7" type="curve" smooth="yes"/>
      <point x="173" y="-7"/>
      <point x="122" y="84"/>
      <point x="122" y="206" type="curve" smooth="yes"/>
      <point x="122" y="680" type="line"/>
      <point x="120" y="680" type="line"/>
      <point x="120" y="206" type="line" smooth="yes"/>
      <point x="120" y="83"/>
      <point x="171" y="-9"/>
      <point x="317" y="-9" type="curve" smooth="yes"/>
      <point x="461" y="-9"/>
      <point x="514" y="83"/>
      <point x="514" y="206" type="curve" smooth="yes"/>
      <point x="514" y="680" type="line"/>
    </contour>
    <contour>
      <point x="397" y="0" type="move" name="ogonek"/>
    </contour>
    <contour>
      <point x="317" y="680" type="move" name="top"/>
    </contour>
    <contour>
      <point x="524" y="680" type="move" name="topright"/>
    </contour>
    <contour>
      <point x="317" y="0" type="move" name="bottom"/>
    </contour>
  </outline>
</glyph>
<glyph name="V" format="1">
  <advance width="523"/>
  <unicode hex="0056"/>
  <outline>
    <contour>
      <point x="486" y="680" type="line"/>
      <point x="263" y="2" type="line"/>
      <point x="37" y="680" type="line"/>
      <point x="35" y="680" type="line"/>
      <point x="262" y="0" type="line"/>
      <point x="264" y="0" type="line"/>
      <point x="488" y="680" type="line"/>
    </contour>
    <contour>
      <point x="262" y="680" type="move" name="top"/>
    </contour>
    <contour>
      <point x="262" y="0" type="move" name="bottom"/>
    </contour>
  </outline>
</glyph>
<glyph name="W" format="1">
  <advance width="776"/>
  <unicode hex="0057"/>
  <outline>
    <contour>
      <point x="729" y="680" type="line"/>
      <point x="570" y="3" type="line"/>
      <point x="389" y="680" type="line"/>
      <point x="387" y="680" type="line"/>
      <point x="206" y="2" type="line"/>
      <point x="47" y="680" type="line"/>
      <point x="45" y="680" type="line"/>
      <point x="205" y="0" type="line"/>
      <point x="207" y="0" type="line"/>
      <point x="388" y="678" type="line"/>
      <point x="569" y="0" type="line"/>
      <point x="571" y="0" type="line"/>
      <point x="731" y="680" type="line"/>
    </contour>
    <contour>
      <point x="388" y="680" type="move" name="top"/>
    </contour>
  </outline>
</glyph>
<glyph name="X" format="1">
  <advance width="467"/>
  <unicode hex="0058"/>
  <outline>
    <contour>
      <point x="51" y="680" type="line"/>
      <point x="231" y="370" type="line"/>
      <point x="233" y="369" type="line"/>
      <point x="445" y="0" type="line"/>
      <point x="447" y="0" type="line"/>
      <point x="235" y="370" type="line"/>
      <point x="233" y="371" type="line"/>
      <point x="53" y="680" type="line"/>
    </contour>
    <contour>
      <point x="414" y="680" type="line"/>
      <point x="233" y="371" type="line"/>
      <point x="231" y="370" type="line"/>
      <point x="20" y="0" type="line"/>
      <point x="22" y="0" type="line"/>
      <point x="233" y="369" type="line"/>
      <point x="235" y="370" type="line"/>
      <point x="416" y="680" type="line"/>
    </contour>
    <contour>
      <point x="454" y="0" type="move" name="bottomright"/>
    </contour>
  </outline>
</glyph>
<glyph name="Y" format="1">
  <advance width="479"/>
  <unicode hex="0059"/>
  <outline>
    <contour>
      <point x="452" y="680" type="line"/>
      <point x="240" y="273" type="line"/>
      <point x="27" y="680" type="line"/>
      <point x="25" y="680" type="line"/>
      <point x="239" y="271" type="line"/>
      <point x="239" y="0" type="line"/>
      <point x="241" y="0" type="line"/>
      <point x="241" y="271" type="line"/>
      <point x="454" y="680" type="line"/>
    </contour>
    <contour>
      <point x="240" y="680" type="move" name="top"/>
    </contour>
    <contour>
      <point x="240" y="0" type="move" name="bottom"/>
    </contour>
    <contour>
      <point x="15" y="680" type="move" name="topleft"/>
    </contour>
  </outline>
</glyph>
<glyph name="Z" format="1">
  <advance width="504"/>
  <unicode hex="005A"/>
  <outline>
    <contour>
      <point x="82" y="680" type="line"/>
      <point x="82" y="678" type="line"/>
      <point x="451" y="678" type="line"/>
      <point x="45" y="2" type="line"/>
      <point x="45" y="0" type="line"/>
      <point x="437" y="0" type="line"/>
      <point x="437" y="2" type="line"/>
      <point x="48" y="2" type="line"/>
      <point x="454" y="678" type="line"/>
      <point x="454" y="680" type="line"/>
    </contour>
    <contour>
      <point x="254" y="680" type="move" name="top"/>
    </contour>
    <contour>
      <point x="258" y="0" type="move" name="bottom"/>
    </contour>
  </outline>
</glyph>
<glyph name="bracketleft" format="1">
  <advance width="310"/>
  <unicode hex="005B"/>
  <outline>
    <contour>
      <point x="110" y="790" type="line"/>
      <point x="110" y="-100" type="line"/>
      <point x="220" y="-100" type="line"/>
      <point x="220" y="-98" type="line"/>
      <point x="112" y="-98" type="line"/>
      <point x="112" y="788" type="line"/>
      <point x="220" y="788" type="line"/>
      <point x="220" y="790" type="line"/>
    </contour>
  </outline>
</glyph>
<glyph name="backslash" format="1">
  <advance width="520"/>
  <unicode hex="005C"/>
  <outline>
    <contour>
      <point x="143" y="793" type="line"/>
      <point x="375" y="-92" type="line"/>
      <point x="377" y="-91" type="line"/>
      <point x="145" y="794" type="line"/>
    </contour>
  </outline>
</glyph>
<glyph name="bracketright" format="1">
  <advance width="310"/>
  <unicode hex="005D"/>
  <outline>
    <contour>
      <point x="90" y="790" type="line"/>
      <point x="90" y="788" type="line"/>
      <point x="198" y="788" type="line"/>
      <point x="198" y="-98" type="line"/>
      <point x="90" y="-98" type="line"/>
      <point x="90" y="-100" type="line"/>
      <point x="200" y="-100" type="line"/>
      <point x="200" y="790" type="line"/>
    </contour>
  </outline>
</glyph>
<glyph name="asciicircum" format="1">
  <advance width="528"/>
  <unicode hex="005E"/>
  <outline>
    <contour>
      <point x="258" y="817" type="line"/>
      <point x="90" y="527" type="line"/>
      <point x="92" y="527" type="line"/>
      <point x="259" y="815" type="line"/>
      <point x="426" y="527" type="line"/>
      <point x="428" y="527" type="line"/>
      <point x="260" y="817" type="line"/>
    </contour>
  </outline>
</glyph>
<glyph name="underscore" format="1">
  <advance width="520"/>
  <unicode hex="005F"/>
  <outline>
    <contour>
      <point x="467" y="-87" type="line"/>
      <point x="467" y="-85" type="line"/>
      <point x="53" y="-85" type="line"/>
      <point x="53" y="-87" type="line"/>
    </contour>
  </outline>
</glyph>
<glyph name="grave" format="1">
  <advance width="228"/>
  <unicode hex="0060"/>
  <outline>
    <contour>
      <point x="30" y="744" type="line"/>
      <point x="197" y="662" type="line"/>
      <point x="198" y="664" type="line"/>
      <point x="31" y="746" type="line"/>
    </contour>
  </outline>
</glyph>
<glyph name="b" format="1">
  <advance width="567"/>
  <unicode hex="0062"/>
  <outline>
    <contour>
      <point x="221" y="527"/>
      <point x="169" y="481"/>
      <point x="126" y="420" type="curve"/>
      <point x="126" y="417" type="line"/>
      <point x="172" y="482"/>
      <point x="223" y="525"/>
      <point x="304" y="525" type="curve" smooth="yes"/>
      <point x="420" y="525"/>
      <point x="480" y="429"/>
      <point x="480" y="264" type="curve" smooth="yes"/>
      <point x="480" y="97"/>
      <point x="419" y="-7"/>
      <point x="300" y="-7" type="curve" smooth="yes"/>
      <point x="221" y="-7"/>
      <point x="168" y="37"/>
      <point x="126" y="103" type="curve"/>
      <point x="126" y="100" type="line"/>
      <point x="166" y="36"/>
      <point x="220" y="-9"/>
      <point x="300" y="-9" type="curve" smooth="yes"/>
      <point x="420" y="-9"/>
      <point x="482" y="95"/>
      <point x="482" y="264" type="curve" smooth="yes"/>
      <point x="482" y="431"/>
      <point x="420" y="527"/>
      <point x="304" y="527" type="curve" smooth="yes"/>
    </contour>
    <contour>
      <point x="125" y="730" type="line"/>
      <point x="125" y="0" type="line"/>
      <point x="127" y="0" type="line"/>
      <point x="127" y="101" type="line"/>
      <point x="127" y="730" type="line"/>
    </contour>
    <contour>
      <point x="289" y="727" type="move" name="top"/>
    </contour>
    <contour>
      <point x="284" y="0" type="move" name="bottom"/>
    </contour>
  </outline>
</glyph>
<glyph name="e" format="1">
  <advance width="528"/>
  <unicode hex="0065"/>
  <outline>
    <contour>
      <point x="156" y="527"/>
      <point x="80" y="426"/>
      <point x="80" y="253" type="curve" smooth="yes"/>
      <point x="80" y="85"/>
      <point x="157" y="-9"/>
      <point x="276" y="-9" type="curve" smooth="yes"/>
      <point x="343" y="-9"/>
      <point x="385" y="13"/>
      <point x="430" y="50" type="curve"/>
      <point x="429" y="52" type="line"/>
      <point x="384" y="14"/>
      <point x="341" y="-7"/>
      <point x="276" y="-7" type="curve" smooth="yes"/>
      <point x="159" y="-7"/>
      <point x="82" y="86"/>
      <point x="82" y="253" type="curve"/>
      <point x="82" y="424"/>
      <point x="157" y="525"/>
      <point x="276" y="525" type="curve" smooth="yes"/>
      <point x="398" y="525"/>
      <point x="451" y="422"/>
      <point x="451" y="288" type="curve" smooth="yes"/>
      <point x="451" y="275"/>
      <point x="451" y="267"/>
      <point x="450" y="254" type="curve"/>
      <point x="81" y="254" type="line"/>
      <point x="81" y="252" type="line"/>
      <point x="452" y="252" type="line"/>
      <point x="453" y="266"/>
      <point x="453" y="274"/>
      <point x="453" y="288" type="curve" smooth="yes"/>
      <point x="453" y="424"/>
      <point x="399" y="527"/>
      <point x="276" y="527" type="curve" smooth="yes"/>
    </contour>
    <contour>
      <point x="364" y="4" type="move" name="ogonek"/>
    </contour>
    <contour>
      <point x="276" y="0" type="move" name="bottom"/>
    </contour>
    <contour>
      <point x="276" y="517" type="move" name="top"/>
    </contour>
  </outline>
</glyph>
<glyph name="f" format="1">
  <advance width="299"/>
  <unicode hex="0066"/>
  <outline>
    <contour>
      <point x="174" y="733"/>
      <point x="127" y="694"/>
      <point x="127" y="618" type="curve" smooth="yes"/>
      <point x="127" y="0" type="line"/>
      <point x="129" y="0" type="line"/>
      <point x="129" y="618" type="line" smooth="yes"/>
      <point x="129" y="693"/>
      <point x="175" y="731"/>
      <point x="238" y="731" type="curve" smooth="yes"/>
      <point x="282" y="731"/>
      <point x="318" y="717"/>
      <point x="348" y="698" type="curve"/>
      <point x="349" y="700" type="line"/>
      <point x="319" y="719"/>
      <point x="282" y="733"/>
      <point x="238" y="733" type="curve" smooth="yes"/>
    </contour>
    <contour>
      <point x="35" y="517" type="line"/>
      <point x="35" y="515" type="line"/>
      <point x="280" y="515" type="line"/>
      <point x="280" y="517" type="line"/>
    </contour>
    <contour>
      <point x="240" y="727" type="move" name="top"/>
    </contour>
    <contour>
      <point x="128" y="0" type="move" name="bottom"/>
    </contour>
  </outline>
</glyph>
<glyph name="g" format="1">
  <advance width="487"/>
  <unicode hex="0067"/>
  <outline>
    <contour>
      <point x="424" y="534"/>
      <point x="397" y="527"/>
      <point x="241" y="527" type="curve" smooth="yes"/>
      <point x="145" y="527"/>
      <point x="75" y="460"/>
      <point x="75" y="357" type="curve" smooth="yes"/>
      <point x="75" y="286"/>
      <point x="112" y="241"/>
      <point x="162" y="215" type="curve"/>
      <point x="132" y="195"/>
      <point x="106" y="168"/>
      <point x="106" y="128" type="curve" smooth="yes"/>
      <point x="106" y="82"/>
      <point x="143" y="54"/>
      <point x="217" y="54" type="curve" smooth="yes"/>
      <point x="308" y="54" type="line" smooth="yes"/>
      <point x="397" y="54"/>
      <point x="450" y="10"/>
      <point x="450" y="-59" type="curve" smooth="yes"/>
      <point x="450" y="-145"/>
      <point x="385" y="-190"/>
      <point x="252" y="-190" type="curve" smooth="yes"/>
      <point x="117" y="-190"/>
      <point x="57" y="-157"/>
      <point x="57" y="-60" type="curve"/>
      <point x="55" y="-60" type="line"/>
      <point x="55" y="-158"/>
      <point x="115" y="-192"/>
      <point x="252" y="-192" type="curve" smooth="yes"/>
      <point x="387" y="-192"/>
      <point x="452" y="-146"/>
      <point x="452" y="-59" type="curve" smooth="yes"/>
      <point x="452" y="10"/>
      <point x="400" y="56"/>
      <point x="308" y="56" type="curve" smooth="yes"/>
      <point x="217" y="56" type="line" smooth="yes"/>
      <point x="144" y="56"/>
      <point x="108" y="83"/>
      <point x="108" y="128" type="curve" smooth="yes"/>
      <point x="108" y="165"/>
      <point x="132" y="194"/>
      <point x="164" y="214" type="curve"/>
      <point x="189" y="202"/>
      <point x="217" y="194"/>
      <point x="249" y="194" type="curve" smooth="yes"/>
      <point x="351" y="194"/>
      <point x="419" y="252"/>
      <point x="419" y="356" type="curve" smooth="yes"/>
      <point x="419" y="445"/>
      <point x="371" y="513"/>
      <point x="272" y="525" type="curve"/>
      <point x="378" y="525"/>
      <point x="428" y="532"/>
      <point x="462" y="542" type="curve"/>
      <point x="462" y="544" type="line"/>
    </contour>
    <contour>
      <point x="329" y="525"/>
      <point x="417" y="481"/>
      <point x="417" y="356" type="curve" smooth="yes"/>
      <point x="417" y="253"/>
      <point x="349" y="196"/>
      <point x="249" y="196" type="curve" smooth="yes"/>
      <point x="167" y="196"/>
      <point x="77" y="250"/>
      <point x="77" y="357" type="curve" smooth="yes"/>
      <point x="77" y="455"/>
      <point x="143" y="525"/>
      <point x="241" y="525" type="curve" smooth="yes"/>
    </contour>
    <contour>
      <point x="244" y="517" type="move" name="top"/>
    </contour>
    <contour>
      <point x="252" y="-188" type="move" name="bottom"/>
    </contour>
  </outline>
</glyph>
<glyph name="h" format="1">
  <advance width="580"/>
  <unicode hex="0068"/>
  <outline>
    <contour>
      <point x="238" y="527"/>
      <point x="174" y="475"/>
      <point x="126" y="389" type="curve"/>
      <point x="127" y="387" type="line"/>
      <point x="175" y="473"/>
      <point x="239" y="525"/>
      <point x="326" y="525" type="curve" smooth="yes"/>
      <point x="419" y="525"/>
      <point x="458" y="464"/>
      <point x="458" y="368" type="curve" smooth="yes"/>
      <point x="458" y="0" type="line"/>
      <point x="460" y="0" type="line"/>
      <point x="460" y="368" type="line" smooth="yes"/>
      <point x="460" y="465"/>
      <point x="420" y="527"/>
      <point x="326" y="527" type="curve" smooth="yes"/>
    </contour>
    <contour>
      <point x="125" y="730" type="line"/>
      <point x="125" y="0" type="line"/>
      <point x="127" y="0" type="line"/>
      <point x="127" y="730" type="line"/>
    </contour>
    <contour>
      <point x="293" y="260" type="move" name="center"/>
    </contour>
    <contour>
      <point x="293" y="0" type="move" name="bottom"/>
    </contour>
    <contour>
      <point x="293" y="727" type="move" name="top"/>
    </contour>
  </outline>
</glyph>
<glyph name="k" format="1">
  <advance width="448"/>
  <unicode hex="006B"/>
  <outline>
    <contour>
      <point x="393" y="517" type="line"/>
      <point x="133" y="283" type="line"/>
      <point x="420" y="0" type="line"/>
      <point x="423" y="0" type="line"/>
      <point x="136" y="283" type="line"/>
      <point x="396" y="517" type="line"/>
    </contour>
    <contour>
      <point x="125" y="730" type="line"/>
      <point x="125" y="0" type="line"/>
      <point x="127" y="0" type="line"/>
      <point x="127" y="730" type="line"/>
    </contour>
    <contour>
      <point x="260" y="727" type="move" name="top"/>
    </contour>
    <contour>
      <point x="269" y="0" type="move" name="bottom"/>
    </contour>
  </outline>
</glyph>
<glyph name="m" format="1">
  <advance width="845"/>
  <unicode hex="006D"/>
  <outline>
    <contour>
      <point x="223" y="527"/>
      <point x="168" y="475"/>
      <point x="126" y="389" type="curve"/>
      <point x="127" y="387" type="line"/>
      <point x="169" y="473"/>
      <point x="224" y="525"/>
      <point x="301" y="525" type="curve" smooth="yes"/>
      <point x="385" y="525"/>
      <point x="424" y="464"/>
      <point x="424" y="378" type="curve" smooth="yes"/>
      <point x="424" y="0" type="line"/>
      <point x="426" y="0" type="line"/>
      <point x="426" y="388" type="line"/>
      <point x="426" y="389" type="line"/>
      <point x="423" y="473"/>
      <point x="380" y="527"/>
      <point x="301" y="527" type="curve" smooth="yes"/>
    </contour>
    <contour>
      <point x="125" y="517" type="line"/>
      <point x="125" y="0" type="line"/>
      <point x="127" y="0" type="line"/>
      <point x="127" y="389" type="line"/>
      <point x="127" y="517" type="line"/>
    </contour>
    <contour>
      <point x="522" y="527"/>
      <point x="467" y="475"/>
      <point x="425" y="389" type="curve"/>
      <point x="426" y="387" type="line"/>
      <point x="468" y="473"/>
      <point x="523" y="525"/>
      <point x="600" y="525" type="curve" smooth="yes"/>
      <point x="684" y="525"/>
      <point x="723" y="464"/>
      <point x="723" y="368" type="curve" smooth="yes"/>
      <point x="723" y="0" type="line"/>
      <point x="725" y="0" type="line"/>
      <point x="725" y="368" type="line" smooth="yes"/>
      <point x="725" y="465"/>
      <point x="685" y="527"/>
      <point x="600" y="527" type="curve" smooth="yes"/>
    </contour>
    <contour>
      <point x="423" y="517" type="move" name="top"/>
    </contour>
    <contour>
      <point x="423" y="0" type="move" name="bottom"/>
    </contour>
  </outline>
</glyph>
<glyph name="n" format="1">
  <advance width="580"/>
  <unicode hex="006E"/>
  <outline>
    <contour>
      <point x="238" y="527"/>
      <point x="174" y="475"/>
      <point x="126" y="389" type="curve"/>
      <point x="127" y="387" type="line"/>
      <point x="175" y="473"/>
      <point x="239" y="525"/>
      <point x="326" y="525" type="curve" smooth="yes"/>
      <point x="420" y="525"/>
      <point x="458" y="466"/>
      <point x="458" y="368" type="curve" smooth="yes"/>
      <point x="458" y="0" type="line"/>
      <point x="460" y="0" type="line"/>
      <point x="460" y="368" type="line" smooth="yes"/>
      <point x="460" y="467"/>
      <point x="421" y="527"/>
      <point x="326" y="527" type="curve" smooth="yes"/>
    </contour>
    <contour>
      <point x="125" y="517" type="line"/>
      <point x="125" y="0" type="line"/>
      <point x="127" y="0" type="line"/>
      <point x="127" y="389" type="line"/>
      <point x="127" y="517" type="line"/>
    </contour>
    <contour>
      <point x="295" y="517" type="move" name="top"/>
    </contour>
    <contour>
      <point x="287" y="0" type="move" name="bottom"/>
    </contour>
    <contour>
      <point x="115" y="517" type="move" name="topleft"/>
    </contour>
  </outline>
</glyph>
<glyph name="o" format="1">
  <advance width="559"/>
  <unicode hex="006F"/>
  <outline>
    <contour>
      <point x="160" y="527"/>
      <point x="80" y="431"/>
      <point x="80" y="258" type="curve" smooth="yes"/>
      <point x="80" y="91"/>
      <point x="155" y="-9"/>
      <point x="279" y="-9" type="curve" smooth="yes"/>
      <point x="402" y="-9"/>
      <point x="479" y="89"/>
      <point x="479" y="262" type="curve" smooth="yes"/>
      <point x="479" y="429"/>
      <point x="403" y="527"/>
      <point x="281" y="527" type="curve" smooth="yes"/>
    </contour>
    <contour>
      <point x="402" y="525"/>
      <point x="477" y="427"/>
      <point x="477" y="262" type="curve" smooth="yes"/>
      <point x="477" y="91"/>
      <point x="401" y="-7"/>
      <point x="279" y="-7" type="curve" smooth="yes"/>
      <point x="156" y="-7"/>
      <point x="82" y="93"/>
      <point x="82" y="258" type="curve" smooth="yes"/>
      <point x="82" y="429"/>
      <point x="161" y="525"/>
      <point x="281" y="525" type="curve" smooth="yes"/>
    </contour>
    <contour>
      <point x="348" y="0" type="move" name="ogonek"/>
    </contour>
    <contour>
      <point x="280" y="517" type="move" name="top"/>
    </contour>
    <contour>
      <point x="431" y="517" type="move" name="topright"/>
    </contour>
    <contour>
      <point x="280" y="0" type="move" name="bottom"/>
    </contour>
  </outline>
</glyph>
<glyph name="p" format="1">
  <advance width="567"/>
  <unicode hex="0070"/>
  <outline>
    <contour>
      <point x="222" y="527"/>
      <point x="169" y="481"/>
      <point x="126" y="420" type="curve"/>
      <point x="126" y="417" type="line"/>
      <point x="172" y="482"/>
      <point x="224" y="525"/>
      <point x="306" y="525" type="curve" smooth="yes"/>
      <point x="420" y="525"/>
      <point x="480" y="429"/>
      <point x="480" y="264" type="curve" smooth="yes"/>
      <point x="480" y="97"/>
      <point x="419" y="-7"/>
      <point x="302" y="-7" type="curve" smooth="yes"/>
      <point x="223" y="-7"/>
      <point x="168" y="37"/>
      <point x="126" y="103" type="curve"/>
      <point x="126" y="100" type="line"/>
      <point x="166" y="36"/>
      <point x="222" y="-9"/>
      <point x="302" y="-9" type="curve" smooth="yes"/>
      <point x="420" y="-9"/>
      <point x="482" y="95"/>
      <point x="482" y="264" type="curve" smooth="yes"/>
      <point x="482" y="431"/>
      <point x="420" y="527"/>
      <point x="306" y="527" type="curve" smooth="yes"/>
    </contour>
    <contour>
      <point x="125" y="517" type="line"/>
      <point x="125" y="-190" type="line"/>
      <point x="127" y="-190" type="line"/>
      <point x="127" y="419" type="line"/>
      <point x="127" y="421" type="line"/>
      <point x="127" y="517" type="line"/>
    </contour>
    <contour>
      <point x="284" y="517" type="move" name="top"/>
    </contour>
    <contour>
      <point x="284" y="-188" type="move" name="bottom"/>
    </contour>
  </outline>
</glyph>
<glyph name="q" format="1">
  <advance width="567"/>
  <unicode hex="0071"/>
  <outline>
    <contour>
      <point x="440" y="-190" type="line"/>
      <point x="442" y="-190" type="line"/>
      <point x="442" y="517" type="line"/>
      <point x="440" y="517" type="line"/>
      <point x="440" y="424" type="line"/>
      <point x="440" y="421" type="line"/>
    </contour>
    <contour>
      <point x="151" y="527"/>
      <point x="80" y="417"/>
      <point x="80" y="257" type="curve" smooth="yes"/>
      <point x="80" y="88"/>
      <point x="154" y="-9"/>
      <point x="267" y="-9" type="curve" smooth="yes"/>
      <point x="360" y="-9"/>
      <point x="408" y="41"/>
      <point x="441" y="102" type="curve"/>
      <point x="441" y="106" type="line"/>
      <point x="406" y="42"/>
      <point x="359" y="-7"/>
      <point x="267" y="-7" type="curve" smooth="yes"/>
      <point x="155" y="-7"/>
      <point x="82" y="89"/>
      <point x="82" y="257" type="curve" smooth="yes"/>
      <point x="82" y="415"/>
      <point x="153" y="525"/>
      <point x="276" y="525" type="curve" smooth="yes"/>
      <point x="362" y="525"/>
      <point x="415" y="471"/>
      <point x="441" y="419" type="curve"/>
      <point x="441" y="423" type="line"/>
      <point x="416" y="472"/>
      <point x="363" y="527"/>
      <point x="276" y="527" type="curve" smooth="yes"/>
    </contour>
    <contour>
      <point x="284" y="517" type="move" name="top"/>
    </contour>
    <contour>
      <point x="284" y="-188" type="move" name="bottom"/>
    </contour>
  </outline>
</glyph>
<glyph name="r" format="1">
  <advance width="361"/>
  <unicode hex="0072"/>
  <outline>
    <contour>
      <point x="208" y="527"/>
      <point x="159" y="484"/>
      <point x="126" y="372" type="curve"/>
      <point x="126" y="365" type="line"/>
      <point x="160" y="482"/>
      <point x="208" y="525"/>
      <point x="290" y="525" type="curve" smooth="yes"/>
      <point x="310" y="525"/>
      <point x="323" y="523"/>
      <point x="336" y="520" type="curve"/>
      <point x="336" y="522" type="line"/>
      <point x="323" y="525"/>
      <point x="310" y="527"/>
      <point x="290" y="527" type="curve" smooth="yes"/>
    </contour>
    <contour>
      <point x="125" y="517" type="line"/>
      <point x="125" y="0" type="line"/>
      <point x="127" y="0" type="line"/>
      <point x="127" y="371" type="line"/>
      <point x="127" y="372" type="line"/>
      <point x="127" y="517" type="line"/>
    </contour>
    <contour>
      <point x="230" y="517" type="move" name="top"/>
    </contour>
    <contour>
      <point x="126" y="0" type="move" name="bottom"/>
    </contour>
  </outline>
</glyph>
<glyph name="s" format="1">
  <advance width="457"/>
  <unicode hex="0073"/>
  <outline>
    <contour>
      <point x="143" y="527"/>
      <point x="77" y="477"/>
      <point x="77" y="405" type="curve" smooth="yes"/>
      <point x="77" y="337"/>
      <point x="120" y="305"/>
      <point x="230" y="274" type="curve" smooth="yes"/>
      <point x="342" y="242"/>
      <point x="385" y="215"/>
      <point x="385" y="130" type="curve" smooth="yes"/>
      <point x="385" y="46"/>
      <point x="317" y="-7"/>
      <point x="227" y="-7" type="curve" smooth="yes"/>
      <point x="148" y="-7"/>
      <point x="102" y="21"/>
      <point x="61" y="59" type="curve"/>
      <point x="60" y="57" type="line"/>
      <point x="101" y="19"/>
      <point x="148" y="-9"/>
      <point x="227" y="-9" type="curve" smooth="yes"/>
      <point x="318" y="-9"/>
      <point x="387" y="44"/>
      <point x="387" y="130" type="curve" smooth="yes"/>
      <point x="387" y="215"/>
      <point x="345" y="244"/>
      <point x="231" y="276" type="curve" smooth="yes"/>
      <point x="121" y="307"/>
      <point x="79" y="339"/>
      <point x="79" y="405" type="curve" smooth="yes"/>
      <point x="79" y="476"/>
      <point x="145" y="525"/>
      <point x="224" y="525" type="curve" smooth="yes"/>
      <point x="288" y="525"/>
      <point x="330" y="508"/>
      <point x="371" y="473" type="curve"/>
      <point x="372" y="475" type="line"/>
      <point x="332" y="509"/>
      <point x="289" y="527"/>
      <point x="224" y="527" type="curve" smooth="yes"/>
    </contour>
    <contour>
      <point x="234" y="517" type="move" name="top"/>
    </contour>
    <contour>
      <point x="229" y="0" type="move" name="bottom"/>
    </contour>
  </outline>
</glyph>
<glyph name="t" format="1">
  <advance width="322"/>
  <unicode hex="0074"/>
  <outline>
    <contour>
      <point x="117" y="651" type="line"/>
      <point x="117" y="113" type="line" smooth="yes"/>
      <point x="117" y="35"/>
      <point x="155" y="-9"/>
      <point x="220" y="-9" type="curve" smooth="yes"/>
      <point x="262" y="-9"/>
      <point x="289" y="4"/>
      <point x="314" y="19" type="curve"/>
      <point x="313" y="21" type="line"/>
      <point x="290" y="6"/>
      <point x="262" y="-7"/>
      <point x="220" y="-7" type="curve" smooth="yes"/>
      <point x="156" y="-7"/>
      <point x="119" y="37"/>
      <point x="119" y="113" type="curve" smooth="yes"/>
      <point x="119" y="651" type="line"/>
    </contour>
    <contour>
      <point x="30" y="517" type="line"/>
      <point x="30" y="515" type="line"/>
      <point x="265" y="515" type="line"/>
      <point x="265" y="517" type="line"/>
    </contour>
    <contour>
      <point x="225" y="0" type="move" name="bottom"/>
    </contour>
    <contour>
      <point x="118" y="651" type="move" name="top"/>
    </contour>
    <contour>
      <point x="157" y="730" type="move" name="topright"/>
    </contour>
    <contour>
      <point x="145" y="259" type="move" name="center"/>
    </contour>
  </outline>
</glyph>
<glyph name="u" format="1">
  <advance width="575"/>
  <unicode hex="0075"/>
  <outline>
    <contour>
      <point x="448" y="517" type="line"/>
      <point x="448" y="120" type="line"/>
      <point x="407" y="45"/>
      <point x="348" y="-7"/>
      <point x="261" y="-7" type="curve" smooth="yes"/>
      <point x="175" y="-7"/>
      <point x="122" y="48"/>
      <point x="122" y="150" type="curve" smooth="yes"/>
      <point x="122" y="517" type="line"/>
      <point x="120" y="517" type="line"/>
      <point x="120" y="150" type="line" smooth="yes"/>
      <point x="120" y="46"/>
      <point x="174" y="-9"/>
      <point x="261" y="-9" type="curve" smooth="yes"/>
      <point x="347" y="-9"/>
      <point x="406" y="40"/>
      <point x="448" y="116" type="curve"/>
      <point x="448" y="0" type="line"/>
      <point x="450" y="0" type="line"/>
      <point x="450" y="517" type="line"/>
    </contour>
    <contour>
      <point x="460" y="0" type="move" name="ogonek"/>
    </contour>
    <contour>
      <point x="290" y="517" type="move" name="top"/>
    </contour>
    <contour>
      <point x="460" y="517" type="move" name="topright"/>
    </contour>
    <contour>
      <point x="290" y="0" type="move" name="bottom"/>
    </contour>
  </outline>
</glyph>
<glyph name="v" format="1">
  <advance width="435"/>
  <unicode hex="0076"/>
  <outline>
    <contour>
      <point x="403" y="517" type="line"/>
      <point x="223" y="2" type="line"/>
      <point x="32" y="517" type="line"/>
      <point x="30" y="517" type="line"/>
      <point x="222" y="0" type="line"/>
      <point x="224" y="0" type="line"/>
      <point x="405" y="517" type="line"/>
    </contour>
    <contour>
      <point x="218" y="517" type="move" name="top"/>
    </contour>
    <contour>
      <point x="223" y="0" type="move" name="bottom"/>
    </contour>
  </outline>
</glyph>
<glyph name="x" format="1">
  <advance width="424"/>
  <unicode hex="0078"/>
  <outline>
    <contour>
      <point x="52" y="517" type="line"/>
      <point x="209" y="278" type="line"/>
      <point x="210" y="277" type="line"/>
      <point x="397" y="0" type="line"/>
      <point x="399" y="0" type="line"/>
      <point x="211" y="278" type="line"/>
      <point x="210" y="279" type="line"/>
      <point x="54" y="517" type="line"/>
    </contour>
    <contour>
      <point x="370" y="517" type="line"/>
      <point x="210" y="279" type="line"/>
      <point x="209" y="278" type="line"/>
      <point x="25" y="0" type="line"/>
      <point x="27" y="0" type="line"/>
      <point x="210" y="277" type="line"/>
      <point x="211" y="278" type="line"/>
      <point x="372" y="517" type="line"/>
    </contour>
    <contour>
      <point x="212" y="517" type="move" name="top"/>
    </contour>
    <contour>
      <point x="212" y="0" type="move" name="bottom"/>
    </contour>
    <contour>
      <point x="407" y="0" type="move" name="bottomright"/>
    </contour>
  </outline>
</glyph>
<glyph name="z" format="1">
  <advance width="410"/>
  <unicode hex="007A"/>
  <outline>
    <contour>
      <point x="66" y="517" type="line"/>
      <point x="66" y="515" type="line"/>
      <point x="367" y="515" type="line"/>
      <point x="35" y="2" type="line"/>
      <point x="35" y="0" type="line"/>
      <point x="359" y="0" type="line"/>
      <point x="359" y="2" type="line"/>
      <point x="38" y="2" type="line"/>
      <point x="370" y="515" type="line"/>
      <point x="370" y="517" type="line"/>
    </contour>
    <contour>
      <point x="215" y="517" type="move" name="top"/>
    </contour>
    <contour>
      <point x="207" y="0" type="move" name="bottom"/>
    </contour>
  </outline>
</glyph>
<glyph name="braceleft" format="1">
  <advance width="326"/>
  <unicode hex="007B"/>
  <outline>
    <contour>
      <point x="182" y="808"/>
      <point x="151" y="782"/>
      <point x="151" y="714" type="curve"/>
      <point x="151" y="427" type="line"/>
      <point x="151" y="375"/>
      <point x="120" y="350"/>
      <point x="75" y="350" type="curve"/>
      <point x="75" y="348" type="line"/>
      <point x="120" y="348"/>
      <point x="151" y="323"/>
      <point x="151" y="271" type="curve"/>
      <point x="151" y="-16" type="line"/>
      <point x="151" y="-84"/>
      <point x="182" y="-110"/>
      <point x="231" y="-110" type="curve"/>
      <point x="231" y="-108" type="line"/>
      <point x="182" y="-108"/>
      <point x="153" y="-81"/>
      <point x="153" y="-15" type="curve"/>
      <point x="153" y="271" type="line"/>
      <point x="153" y="320"/>
      <point x="125" y="349"/>
      <point x="77" y="349" type="curve"/>
      <point x="125" y="349"/>
      <point x="153" y="378"/>
      <point x="153" y="427" type="curve"/>
      <point x="153" y="713" type="line"/>
      <point x="153" y="779"/>
      <point x="182" y="806"/>
      <point x="231" y="806" type="curve"/>
      <point x="231" y="808" type="line"/>
    </contour>
  </outline>
</glyph>
<glyph name="bar" format="1">
  <advance width="420"/>
  <unicode hex="007C"/>
  <outline>
    <contour>
      <point x="209" y="800" type="line"/>
      <point x="209" y="-97" type="line"/>
      <point x="211" y="-97" type="line"/>
      <point x="211" y="800" type="line"/>
    </contour>
  </outline>
</glyph>
<glyph name="cent" format="1">
  <advance width="469"/>
  <unicode hex="00A2"/>
  <outline>
    <contour>
      <point x="281" y="672" type="line"/>
      <point x="281" y="526" type="line"/>
      <point x="283" y="526" type="line"/>
      <point x="283" y="672" type="line"/>
    </contour>
    <contour>
      <point x="275" y="-144" type="line"/>
      <point x="277" y="-144" type="line"/>
      <point x="277" y="-8" type="line"/>
      <point x="275" y="-8" type="line"/>
    </contour>
    <component base="c"/>
  </outline>
</glyph>
<glyph name="sterling" format="1">
  <advance width="492"/>
  <unicode hex="00A3"/>
  <outline>
    <contour>
      <point x="196" y="670"/>
      <point x="149" y="598"/>
      <point x="149" y="506" type="curve" smooth="yes"/>
      <point x="149" y="118" type="line" smooth="yes"/>
      <point x="149" y="51"/>
      <point x="125" y="23"/>
      <point x="70" y="2" type="curve"/>
      <point x="70" y="0" type="line"/>
      <point x="423" y="0" type="line"/>
      <point x="423" y="2" type="line"/>
      <point x="75" y="2" type="line"/>
      <point x="128" y="23"/>
      <point x="151" y="52"/>
      <point x="151" y="118" type="curve" smooth="yes"/>
      <point x="151" y="506" type="line" smooth="yes"/>
      <point x="151" y="597"/>
      <point x="198" y="668"/>
      <point x="295" y="668" type="curve" smooth="yes"/>
      <point x="353" y="668"/>
      <point x="393" y="646"/>
      <point x="425" y="608" type="curve"/>
      <point x="427" y="609" type="line"/>
      <point x="394" y="648"/>
      <point x="353" y="670"/>
      <point x="295" y="670" type="curve" smooth="yes"/>
    </contour>
    <contour>
      <point x="93" y="356" type="line"/>
      <point x="93" y="354" type="line"/>
      <point x="361" y="354" type="line"/>
      <point x="361" y="356" type="line"/>
    </contour>
  </outline>
</glyph>
<glyph name="currency" format="1">
  <advance width="560"/>
  <unicode hex="00A4"/>
  <outline>
    <contour>
      <point x="185" y="510"/>
      <point x="114" y="436"/>
      <point x="114" y="339" type="curve"/>
      <point x="114" y="241"/>
      <point x="187" y="170"/>
      <point x="279" y="170" type="curve"/>
      <point x="371" y="170"/>
      <point x="444" y="241"/>
      <point x="444" y="339" type="curve"/>
      <point x="444" y="436"/>
      <point x="375" y="510"/>
      <point x="279" y="510" type="curve"/>
    </contour>
    <contour>
      <point x="90" y="136" type="line"/>
      <point x="92" y="135" type="line"/>
      <point x="170" y="211" type="line"/>
      <point x="169" y="213" type="line"/>
    </contour>
    <contour>
      <point x="389" y="212" type="line"/>
      <point x="468" y="135" type="line"/>
      <point x="470" y="136" type="line"/>
      <point x="390" y="214" type="line"/>
    </contour>
    <contour>
      <point x="90" y="540" type="line"/>
      <point x="164" y="463" type="line"/>
      <point x="166" y="464" type="line"/>
      <point x="92" y="541" type="line"/>
    </contour>
    <contour>
      <point x="393" y="463" type="line"/>
      <point x="395" y="462" type="line"/>
      <point x="470" y="540" type="line"/>
      <point x="468" y="541" type="line"/>
    </contour>
    <contour>
      <point x="375" y="508"/>
      <point x="442" y="434"/>
      <point x="442" y="339" type="curve" smooth="yes"/>
      <point x="442" y="240"/>
      <point x="369" y="172"/>
      <point x="279" y="172" type="curve"/>
      <point x="190" y="172"/>
      <point x="116" y="240"/>
      <point x="116" y="339" type="curve" smooth="yes"/>
      <point x="116" y="435"/>
      <point x="185" y="508"/>
      <point x="279" y="508" type="curve"/>
    </contour>
  </outline>
</glyph>
<glyph name="yen" format="1">
  <advance width="469"/>
  <unicode hex="00A5"/>
  <outline>
    <contour>
      <point x="441" y="660" type="line"/>
      <point x="235" y="321" type="line"/>
      <point x="28" y="660" type="line"/>
      <point x="25" y="660" type="line"/>
      <point x="234" y="319" type="line"/>
      <point x="234" y="0" type="line"/>
      <point x="236" y="0" type="line"/>
      <point x="236" y="319" type="line"/>
      <point x="444" y="660" type="line"/>
    </contour>
    <contour>
      <point x="106" y="186" type="line"/>
      <point x="106" y="184" type="line"/>
      <point x="368" y="184" type="line"/>
      <point x="368" y="186" type="line"/>
    </contour>
    <contour>
      <point x="106" y="320" type="line"/>
      <point x="106" y="318" type="line"/>
      <point x="368" y="318" type="line"/>
      <point x="368" y="320" type="line"/>
    </contour>
  </outline>
</glyph>
<glyph name="brokenbar" format="1">
  <advance width="420"/>
  <unicode hex="00A6"/>
  <outline>
    <contour>
      <point x="209" y="262" type="line"/>
      <point x="209" y="-97" type="line"/>
      <point x="211" y="-97" type="line"/>
      <point x="211" y="262" type="line"/>
    </contour>
    <contour>
      <point x="209" y="800" type="line"/>
      <point x="209" y="443" type="line"/>
      <point x="211" y="443" type="line"/>
      <point x="211" y="800" type="line"/>
    </contour>
  </outline>
</glyph>
<glyph name="dieresis" format="1">
  <advance width="221"/>
  <unicode hex="00A8"/>
  <outline>
    <contour>
      <point x="181" y="691"/>
      <point x="179" y="688"/>
      <point x="179" y="685" type="curve" smooth="yes"/>
      <point x="179" y="682"/>
      <point x="181" y="679"/>
      <point x="185" y="679" type="curve" smooth="yes"/>
      <point x="189" y="679"/>
      <point x="191" y="682"/>
      <point x="191" y="685" type="curve" smooth="yes"/>
      <point x="191" y="688"/>
      <point x="189" y="691"/>
      <point x="185" y="691" type="curve" smooth="yes"/>
    </contour>
    <contour>
      <point x="32" y="691"/>
      <point x="30" y="688"/>
      <point x="30" y="685" type="curve" smooth="yes"/>
      <point x="30" y="682"/>
      <point x="32" y="679"/>
      <point x="36" y="679" type="curve" smooth="yes"/>
      <point x="40" y="679"/>
      <point x="42" y="682"/>
      <point x="42" y="685" type="curve" smooth="yes"/>
      <point x="42" y="688"/>
      <point x="40" y="691"/>
      <point x="36" y="691" type="curve" smooth="yes"/>
    </contour>
  </outline>
</glyph>
<glyph name="logicalnot" format="1">
  <advance width="488"/>
  <unicode hex="00AC"/>
  <outline>
    <contour>
      <point x="85" y="322" type="line"/>
      <point x="85" y="320" type="line"/>
      <point x="401" y="320" type="line"/>
      <point x="401" y="215" type="line"/>
      <point x="403" y="215" type="line"/>
      <point x="403" y="322" type="line"/>
    </contour>
  </outline>
</glyph>
<glyph name="registered" format="1">
  <advance width="634"/>
  <unicode hex="00AE"/>
  <outline>
    <contour>
      <point x="181" y="709"/>
      <point x="110" y="614"/>
      <point x="110" y="499" type="curve"/>
      <point x="110" y="384"/>
      <point x="191" y="294"/>
      <point x="317" y="294" type="curve"/>
      <point x="453" y="294"/>
      <point x="524" y="389"/>
      <point x="524" y="504" type="curve"/>
      <point x="524" y="619"/>
      <point x="443" y="709"/>
      <point x="317" y="709" type="curve"/>
    </contour>
    <contour>
      <point x="329" y="496" type="line"/>
      <point x="404" y="371" type="line"/>
      <point x="406" y="371" type="line"/>
      <point x="331" y="496" type="line"/>
    </contour>
    <contour>
      <point x="443" y="707"/>
      <point x="522" y="617"/>
      <point x="522" y="504" type="curve"/>
      <point x="522" y="391"/>
      <point x="453" y="296"/>
      <point x="317" y="296" type="curve"/>
      <point x="191" y="296"/>
      <point x="112" y="386"/>
      <point x="112" y="499" type="curve"/>
      <point x="112" y="612"/>
      <point x="181" y="707"/>
      <point x="317" y="707" type="curve"/>
    </contour>
    <contour>
      <point x="250" y="639" type="line"/>
      <point x="250" y="372" type="line"/>
      <point x="252" y="372" type="line"/>
      <point x="252" y="637" type="line"/>
      <point x="306" y="637" type="line"/>
      <point x="362" y="637"/>
      <point x="395" y="614"/>
      <point x="395" y="566" type="curve"/>
      <point x="395" y="519"/>
      <point x="363" y="497"/>
      <point x="324" y="497" type="curve"/>
      <point x="251" y="497" type="line"/>
      <point x="251" y="495" type="line"/>
      <point x="330" y="495" type="line"/>
      <point x="331" y="495" type="line"/>
      <point x="364" y="497"/>
      <point x="397" y="518"/>
      <point x="397" y="566" type="curve"/>
      <point x="397" y="616"/>
      <point x="362" y="639"/>
      <point x="306" y="639" type="curve"/>
    </contour>
  </outline>
</glyph>
<glyph name="macron" format="1">
  <advance width="250"/>
  <unicode hex="00AF"/>
  <outline>
    <contour>
      <point x="220" y="691" type="line"/>
      <point x="30" y="691" type="line"/>
      <point x="30" y="689" type="line"/>
      <point x="220" y="689" type="line"/>
    </contour>
  </outline>
</glyph>
<glyph name="degree" format="1">
  <advance width="521"/>
  <unicode hex="00B0"/>
  <outline>
    <contour>
      <point x="149" y="423"/>
      <point x="97" y="476"/>
      <point x="97" y="556" type="curve"/>
      <point x="97" y="632"/>
      <point x="148" y="688"/>
      <point x="220" y="688" type="curve"/>
      <point x="298" y="688"/>
      <point x="344" y="632"/>
      <point x="344" y="555" type="curve"/>
      <point x="344" y="476"/>
      <point x="298" y="423"/>
      <point x="220" y="423" type="curve"/>
    </contour>
    <contour>
      <point x="300" y="421"/>
      <point x="346" y="476"/>
      <point x="346" y="555" type="curve"/>
      <point x="346" y="632"/>
      <point x="300" y="690"/>
      <point x="220" y="690" type="curve"/>
      <point x="146" y="690"/>
      <point x="95" y="632"/>
      <point x="95" y="556" type="curve"/>
      <point x="95" y="476"/>
      <point x="147" y="421"/>
      <point x="220" y="421" type="curve"/>
    </contour>
  </outline>
</glyph>
<glyph name="acute" format="1">
  <advance width="228"/>
  <unicode hex="00B4"/>
  <outline>
    <contour>
      <point x="30" y="664" type="line"/>
      <point x="31" y="662" type="line"/>
      <point x="198" y="744" type="line"/>
      <point x="197" y="746" type="line"/>
    </contour>
  </outline>
</glyph>
<glyph name="paragraph" format="1">
  <advance width="683"/>
  <unicode hex="00B6"/>
  <outline>
    <contour>
      <point x="342" y="680" type="line"/>
      <point x="341" y="678" type="line"/>
      <point x="341" y="-190" type="line"/>
      <point x="343" y="-190" type="line"/>
      <point x="343" y="678" type="line"/>
      <point x="491" y="679" type="line"/>
      <point x="491" y="-190" type="line"/>
      <point x="493" y="-190" type="line"/>
      <point x="493" y="681" type="line"/>
    </contour>
    <contour>
      <point x="217" y="680"/>
      <point x="130" y="613"/>
      <point x="130" y="496" type="curve"/>
      <point x="130" y="399"/>
      <point x="186" y="312"/>
      <point x="342" y="312" type="curve"/>
      <point x="342" y="680" type="line"/>
    </contour>
  </outline>
</glyph>
<glyph name="cedilla" format="1">
  <advance width="189"/>
  <unicode hex="00B8"/>
  <outline>
    <contour>
      <point x="71" y="-8" type="line"/>
      <point x="67" y="-84" type="line"/>
      <point x="131" y="-85"/>
      <point x="157" y="-104"/>
      <point x="157" y="-141" type="curve" smooth="yes"/>
      <point x="157" y="-185"/>
      <point x="124" y="-200"/>
      <point x="91" y="-200" type="curve" smooth="yes"/>
      <point x="64" y="-200"/>
      <point x="48" y="-195"/>
      <point x="31" y="-184" type="curve"/>
      <point x="30" y="-186" type="line"/>
      <point x="46" y="-196"/>
      <point x="62" y="-202"/>
      <point x="91" y="-202" type="curve" smooth="yes"/>
      <point x="125" y="-202"/>
      <point x="159" y="-186"/>
      <point x="159" y="-141" type="curve" smooth="yes"/>
      <point x="159" y="-98"/>
      <point x="124" y="-83"/>
      <point x="69" y="-82" type="curve"/>
      <point x="73" y="-8" type="line"/>
    </contour>
  </outline>
</glyph>
<glyph name="AE" format="1">
  <advance width="750"/>
  <unicode hex="00C6"/>
  <outline>
    <contour>
      <point x="284" y="680" type="line"/>
      <point x="21" y="0" type="line"/>
      <point x="23" y="0" type="line"/>
      <point x="285" y="678" type="line"/>
      <point x="463" y="0" type="line"/>
      <point x="700" y="0" type="line"/>
      <point x="700" y="2" type="line"/>
      <point x="465" y="2" type="line"/>
      <point x="287" y="678" type="line"/>
      <point x="645" y="678" type="line"/>
      <point x="645" y="680" type="line"/>
    </contour>
    <contour>
      <point x="102" y="207" type="line"/>
      <point x="101" y="205" type="line"/>
      <point x="410" y="205" type="line"/>
      <point x="410" y="207" type="line"/>
    </contour>
    <contour>
      <point x="369" y="362" type="line"/>
      <point x="369" y="360" type="line"/>
      <point x="635" y="360" type="line"/>
      <point x="635" y="362" type="line"/>
    </contour>
    <contour>
      <point x="457" y="680" type="move" name="top"/>
    </contour>
    <contour>
      <point x="375" y="0" type="move" name="bottom"/>
    </contour>
  </outline>
</glyph>
<glyph name="Eth" format="1">
  <advance width="607"/>
  <unicode hex="00D0"/>
  <outline>
    <contour>
      <point x="124" y="354" type="line"/>
      <point x="30" y="354" type="line"/>
      <point x="30" y="352" type="line"/>
      <point x="322" y="352" type="line"/>
      <point x="322" y="354" type="line"/>
    </contour>
    <component base="D" xOffset="-6"/>
  </outline>
</glyph>
<glyph name="multiply" format="1">
  <advance width="478"/>
  <unicode hex="00D7"/>
  <outline>
    <contour>
      <point x="239" y="309" type="line"/>
      <point x="107" y="444" type="line"/>
      <point x="105" y="443" type="line"/>
      <point x="237" y="308" type="line"/>
      <point x="105" y="172" type="line"/>
      <point x="107" y="171" type="line"/>
      <point x="239" y="306" type="line"/>
      <point x="371" y="171" type="line"/>
      <point x="373" y="172" type="line"/>
      <point x="241" y="308" type="line"/>
      <point x="373" y="443" type="line"/>
      <point x="371" y="444" type="line"/>
    </contour>
  </outline>
</glyph>
<glyph name="Oslash" format="1">
  <advance width="687"/>
  <unicode hex="00D8"/>
  <outline>
    <contour>
      <point x="188" y="690"/>
      <point x="85" y="557"/>
      <point x="85" y="338" type="curve" smooth="yes"/>
      <point x="85" y="119"/>
      <point x="184" y="-9"/>
      <point x="343" y="-9" type="curve" smooth="yes"/>
      <point x="510" y="-9"/>
      <point x="602" y="120"/>
      <point x="602" y="340" type="curve" smooth="yes"/>
      <point x="602" y="563"/>
      <point x="504" y="690"/>
      <point x="343" y="690" type="curve" smooth="yes"/>
    </contour>
    <contour>
      <point x="504" y="688"/>
      <point x="600" y="561"/>
      <point x="600" y="340" type="curve" smooth="yes"/>
      <point x="600" y="122"/>
      <point x="509" y="-7"/>
      <point x="343" y="-7" type="curve" smooth="yes"/>
      <point x="184" y="-7"/>
      <point x="87" y="121"/>
      <point x="87" y="338" type="curve" smooth="yes"/>
      <point x="87" y="555"/>
      <point x="189" y="688"/>
      <point x="343" y="688" type="curve" smooth="yes"/>
    </contour>
    <contour>
      <point x="439" y="672" type="line"/>
      <point x="439" y="671" type="line"/>
      <point x="247" y="11" type="line"/>
      <point x="247" y="10" type="line"/>
      <point x="213" y="-102" type="line"/>
      <point x="215" y="-103" type="line"/>
      <point x="249" y="9" type="line"/>
      <point x="249" y="10" type="line"/>
      <point x="441" y="670" type="line"/>
      <point x="441" y="671" type="line"/>
      <point x="475" y="786" type="line"/>
      <point x="473" y="787" type="line"/>
    </contour>
    <contour>
      <point x="335" y="687" type="move" name="top"/>
    </contour>
    <contour>
      <point x="344" y="0" type="move" name="bottom"/>
    </contour>
  </outline>
</glyph>
<glyph name="Thorn" format="1">
  <advance width="552"/>
  <unicode hex="00DE"/>
  <outline>
    <contour>
      <point x="130" y="550" type="line"/>
      <point x="132" y="548" type="line"/>
      <point x="252" y="548" type="line" smooth="yes"/>
      <point x="410" y="548"/>
      <point x="485" y="491"/>
      <point x="485" y="351" type="curve" smooth="yes"/>
      <point x="485" y="210"/>
      <point x="394" y="156"/>
      <point x="249" y="156" type="curve" smooth="yes"/>
      <point x="131" y="156" type="line"/>
      <point x="131" y="154" type="line"/>
      <point x="249" y="154" type="line" smooth="yes"/>
      <point x="396" y="154"/>
      <point x="487" y="209"/>
      <point x="487" y="351" type="curve" smooth="yes"/>
      <point x="487" y="492"/>
      <point x="411" y="550"/>
      <point x="252" y="550" type="curve" smooth="yes"/>
    </contour>
    <contour>
      <point x="130" y="680" type="line"/>
      <point x="130" y="0" type="line"/>
      <point x="132" y="0" type="line"/>
      <point x="132" y="680" type="line"/>
    </contour>
    <contour>
      <point x="276" y="680" type="move" name="top"/>
    </contour>
    <contour>
      <point x="276" y="0" type="move" name="bottom"/>
    </contour>
  </outline>
</glyph>
<glyph name="germandbls" format="1">
  <advance width="570"/>
  <unicode hex="00DF"/>
  <outline>
    <contour>
      <point x="193" y="733"/>
      <point x="125" y="663"/>
      <point x="125" y="541" type="curve"/>
      <point x="125" y="0" type="line"/>
      <point x="127" y="0" type="line"/>
      <point x="127" y="541" type="line"/>
      <point x="127" y="662"/>
      <point x="194" y="731"/>
      <point x="289" y="731" type="curve"/>
      <point x="378" y="731"/>
      <point x="427" y="679"/>
      <point x="427" y="612" type="curve"/>
      <point x="427" y="507"/>
      <point x="307" y="490"/>
      <point x="307" y="421" type="curve"/>
      <point x="307" y="323"/>
      <point x="503" y="327"/>
      <point x="503" y="142" type="curve"/>
      <point x="503" y="54"/>
      <point x="454" y="-8"/>
      <point x="370" y="-8" type="curve"/>
      <point x="327" y="-8"/>
      <point x="301" y="2"/>
      <point x="280" y="15" type="curve"/>
      <point x="279" y="13" type="line"/>
      <point x="299" y="1"/>
      <point x="326" y="-10"/>
      <point x="370" y="-10" type="curve"/>
      <point x="455" y="-10"/>
      <point x="505" y="53"/>
      <point x="505" y="142" type="curve"/>
      <point x="505" y="328"/>
      <point x="309" y="325"/>
      <point x="309" y="421" type="curve"/>
      <point x="309" y="489"/>
      <point x="429" y="506"/>
      <point x="429" y="612" type="curve"/>
      <point x="429" y="681"/>
      <point x="378" y="733"/>
      <point x="289" y="733" type="curve"/>
    </contour>
  </outline>
</glyph>
<glyph name="ae" format="1">
  <advance width="841"/>
  <unicode hex="00E6"/>
  <outline>
    <contour>
      <point x="477" y="527"/>
      <point x="404" y="439"/>
      <point x="394" y="288" type="curve"/>
      <point x="393" y="253" type="line"/>
      <point x="393" y="85"/>
      <point x="470" y="-9"/>
      <point x="589" y="-9" type="curve" smooth="yes"/>
      <point x="656" y="-9"/>
      <point x="698" y="13"/>
      <point x="743" y="50" type="curve"/>
      <point x="742" y="52" type="line"/>
      <point x="697" y="14"/>
      <point x="654" y="-7"/>
      <point x="589" y="-7" type="curve" smooth="yes"/>
      <point x="472" y="-7"/>
      <point x="395" y="86"/>
      <point x="395" y="253" type="curve"/>
      <point x="395" y="424"/>
      <point x="470" y="525"/>
      <point x="589" y="525" type="curve" smooth="yes"/>
      <point x="711" y="525"/>
      <point x="764" y="422"/>
      <point x="764" y="288" type="curve" smooth="yes"/>
      <point x="764" y="275"/>
      <point x="764" y="267"/>
      <point x="763" y="254" type="curve"/>
      <point x="394" y="254" type="line"/>
      <point x="394" y="252" type="line"/>
      <point x="765" y="252" type="line"/>
      <point x="766" y="266"/>
      <point x="766" y="274"/>
      <point x="766" y="288" type="curve" smooth="yes"/>
      <point x="766" y="424"/>
      <point x="712" y="527"/>
      <point x="589" y="527" type="curve" smooth="yes"/>
    </contour>
    <contour>
      <point x="269" y="304" type="line" smooth="yes"/>
      <point x="146" y="304"/>
      <point x="70" y="246"/>
      <point x="70" y="145" type="curve" smooth="yes"/>
      <point x="70" y="56"/>
      <point x="123" y="-9"/>
      <point x="220" y="-9" type="curve" smooth="yes"/>
      <point x="306" y="-9"/>
      <point x="358" y="30"/>
      <point x="411" y="122" type="curve"/>
      <point x="410" y="124" type="line"/>
      <point x="358" y="35"/>
      <point x="308" y="-7"/>
      <point x="220" y="-7" type="curve" smooth="yes"/>
      <point x="124" y="-7"/>
      <point x="72" y="57"/>
      <point x="72" y="145" type="curve" smooth="yes"/>
      <point x="72" y="244"/>
      <point x="147" y="302"/>
      <point x="269" y="302" type="curve" smooth="yes"/>
      <point x="394" y="302" type="line"/>
      <point x="394" y="304" type="line"/>
    </contour>
    <contour>
      <point x="208" y="527"/>
      <point x="161" y="516"/>
      <point x="106" y="493" type="curve"/>
      <point x="107" y="491" type="line"/>
      <point x="162" y="514"/>
      <point x="208" y="525"/>
      <point x="254" y="525" type="curve" smooth="yes"/>
      <point x="357" y="525"/>
      <point x="393" y="466"/>
      <point x="393" y="372" type="curve" smooth="yes"/>
      <point x="393" y="253" type="line"/>
      <point x="395" y="253" type="line"/>
      <point x="395" y="372" type="line" smooth="yes"/>
      <point x="395" y="468"/>
      <point x="358" y="527"/>
      <point x="254" y="527" type="curve" smooth="yes"/>
    </contour>
    <contour>
      <point x="421" y="517" type="move" name="top"/>
    </contour>
    <contour>
      <point x="417" y="0" type="move" name="bottom"/>
    </contour>
  </outline>
</glyph>
<glyph name="eth" format="1">
  <advance width="540"/>
  <unicode hex="00F0"/>
  <outline>
    <contour>
      <point x="152" y="732" type="line"/>
      <point x="201" y="720"/>
      <point x="253" y="699"/>
      <point x="296" y="669" type="curve"/>
      <point x="395" y="598"/>
      <point x="450" y="491"/>
      <point x="453" y="335" type="curve"/>
      <point x="453" y="334" type="line"/>
      <point x="453" y="330"/>
      <point x="453" y="326"/>
      <point x="453" y="322" type="curve"/>
      <point x="453" y="93"/>
      <point x="386" y="-7"/>
      <point x="264" y="-7" type="curve" smooth="yes"/>
      <point x="151" y="-7"/>
      <point x="82" y="88"/>
      <point x="82" y="228" type="curve" smooth="yes"/>
      <point x="82" y="351"/>
      <point x="147" y="455"/>
      <point x="260" y="455" type="curve" smooth="yes"/>
      <point x="344" y="455"/>
      <point x="406" y="405"/>
      <point x="454" y="332" type="curve"/>
      <point x="454" y="335" type="line"/>
      <point x="407" y="407"/>
      <point x="344" y="457"/>
      <point x="260" y="457" type="curve" smooth="yes"/>
      <point x="145" y="457"/>
      <point x="80" y="351"/>
      <point x="80" y="228" type="curve" smooth="yes"/>
      <point x="80" y="88"/>
      <point x="149" y="-9"/>
      <point x="264" y="-9" type="curve" smooth="yes"/>
      <point x="388" y="-9"/>
      <point x="455" y="93"/>
      <point x="455" y="322" type="curve" smooth="yes"/>
      <point x="455" y="486"/>
      <point x="400" y="598"/>
      <point x="298" y="670" type="curve"/>
      <point x="255" y="701"/>
      <point x="202" y="722"/>
      <point x="152" y="734" type="curve"/>
    </contour>
    <contour>
      <point x="297" y="671" type="line"/>
      <point x="296" y="670" type="line"/>
      <point x="207" y="577" type="line"/>
      <point x="209" y="576" type="line"/>
      <point x="298" y="669" type="line"/>
      <point x="299" y="670" type="line"/>
      <point x="361" y="736" type="line"/>
      <point x="359" y="737" type="line"/>
    </contour>
    <contour>
      <point x="286" y="727" type="move" name="top"/>
    </contour>
    <contour>
      <point x="268" y="0" type="move" name="bottom"/>
    </contour>
  </outline>
</glyph>
<glyph name="oslash" format="1">
  <advance width="559"/>
  <unicode hex="00F8"/>
  <outline>
    <contour>
      <point x="160" y="527"/>
      <point x="80" y="431"/>
      <point x="80" y="258" type="curve" smooth="yes"/>
      <point x="80" y="91"/>
      <point x="155" y="-9"/>
      <point x="279" y="-9" type="curve" smooth="yes"/>
      <point x="402" y="-9"/>
      <point x="479" y="89"/>
      <point x="479" y="262" type="curve" smooth="yes"/>
      <point x="479" y="429"/>
      <point x="403" y="527"/>
      <point x="281" y="527" type="curve" smooth="yes"/>
    </contour>
    <contour>
      <point x="402" y="525"/>
      <point x="477" y="427"/>
      <point x="477" y="262" type="curve" smooth="yes"/>
      <point x="477" y="91"/>
      <point x="401" y="-7"/>
      <point x="279" y="-7" type="curve" smooth="yes"/>
      <point x="156" y="-7"/>
      <point x="82" y="93"/>
      <point x="82" y="258" type="curve" smooth="yes"/>
      <point x="82" y="429"/>
      <point x="161" y="525"/>
      <point x="281" y="525" type="curve" smooth="yes"/>
    </contour>
    <contour>
      <point x="360" y="510" type="line"/>
      <point x="360" y="509" type="line"/>
      <point x="196" y="9" type="line"/>
      <point x="196" y="8" type="line"/>
      <point x="156" y="-112" type="line"/>
      <point x="158" y="-112" type="line"/>
      <point x="198" y="7" type="line"/>
      <point x="198" y="8" type="line"/>
      <point x="362" y="508" type="line"/>
      <point x="362" y="509" type="line"/>
      <point x="402" y="630" type="line"/>
      <point x="400" y="630" type="line"/>
    </contour>
    <contour>
      <point x="280" y="517" type="move" name="top"/>
    </contour>
    <contour>
      <point x="280" y="0" type="move" name="bottom"/>
    </contour>
  </outline>
</glyph>
<glyph name="thorn" format="1">
  <advance width="567"/>
  <unicode hex="00FE"/>
  <outline>
    <contour>
      <point x="222" y="527"/>
      <point x="169" y="481"/>
      <point x="126" y="420" type="curve"/>
      <point x="126" y="417" type="line"/>
      <point x="172" y="482"/>
      <point x="224" y="525"/>
      <point x="306" y="525" type="curve" smooth="yes"/>
      <point x="420" y="525"/>
      <point x="480" y="429"/>
      <point x="480" y="264" type="curve" smooth="yes"/>
      <point x="480" y="97"/>
      <point x="419" y="-7"/>
      <point x="302" y="-7" type="curve" smooth="yes"/>
      <point x="223" y="-7"/>
      <point x="168" y="37"/>
      <point x="126" y="103" type="curve"/>
      <point x="126" y="100" type="line"/>
      <point x="166" y="36"/>
      <point x="222" y="-9"/>
      <point x="302" y="-9" type="curve" smooth="yes"/>
      <point x="420" y="-9"/>
      <point x="482" y="95"/>
      <point x="482" y="264" type="curve" smooth="yes"/>
      <point x="482" y="431"/>
      <point x="420" y="527"/>
      <point x="306" y="527" type="curve" smooth="yes"/>
    </contour>
    <contour>
      <point x="125" y="730" type="line"/>
      <point x="125" y="-190" type="line"/>
      <point x="127" y="-190" type="line"/>
      <point x="127" y="730" type="line"/>
    </contour>
    <contour>
      <point x="284" y="727" type="move" name="top"/>
    </contour>
    <contour>
      <point x="284" y="-188" type="move" name="bottom"/>
    </contour>
  </outline>
</glyph>
<glyph name="dcroat" format="1">
  <advance width="577"/>
  <unicode hex="0111"/>
  <outline>
    <contour>
      <point x="265" y="640" type="line"/>
      <point x="265" y="638" type="line"/>
      <point x="447" y="638" type="line"/>
      <point x="522" y="638" type="line"/>
      <point x="522" y="640" type="line"/>
    </contour>
    <component base="d"/>
  </outline>
</glyph>
<glyph name="Hbar" format="1">
  <advance width="668"/>
  <unicode hex="0126"/>
  <outline>
    <contour>
      <point x="530" y="528" type="line"/>
      <point x="85" y="528" type="line"/>
      <point x="85" y="526" type="line"/>
      <point x="138" y="526" type="line"/>
      <point x="583" y="526" type="line"/>
      <point x="583" y="528" type="line"/>
    </contour>
    <component base="H" xOffset="8"/>
  </outline>
</glyph>
<glyph name="hbar" format="1">
  <advance width="585"/>
  <unicode hex="0127"/>
  <outline>
    <contour>
      <point x="55" y="640" type="line"/>
      <point x="55" y="638" type="line"/>
      <point x="130" y="638" type="line"/>
      <point x="323" y="638" type="line"/>
      <point x="323" y="640" type="line"/>
    </contour>
    <component base="h" xOffset="5"/>
  </outline>
</glyph>
<glyph name="dotlessi" format="1">
  <advance width="252"/>
  <unicode hex="0131"/>
  <outline>
    <contour>
      <point x="125" y="517" type="line"/>
      <point x="125" y="0" type="line"/>
      <point x="127" y="0" type="line"/>
      <point x="127" y="517" type="line"/>
    </contour>
    <contour>
      <point x="137" y="0" type="move" name="ogonek"/>
    </contour>
    <contour>
      <point x="126" y="0" type="move" name="bottom"/>
    </contour>
    <contour>
      <point x="126" y="517" type="move" name="top"/>
    </contour>
  </outline>
</glyph>
<glyph name="kgreenlandic" format="1">
  <advance width="446"/>
  <unicode hex="0138"/>
  <outline>
    <contour>
      <point x="391" y="517" type="line"/>
      <point x="131" y="273" type="line"/>
      <point x="418" y="0" type="line"/>
      <point x="421" y="0" type="line"/>
      <point x="134" y="273" type="line"/>
      <point x="394" y="517" type="line"/>
    </contour>
    <contour>
      <point x="125" y="517" type="line"/>
      <point x="125" y="0" type="line"/>
      <point x="127" y="0" type="line"/>
      <point x="127" y="517" type="line"/>
    </contour>
  </outline>
</glyph>
<glyph name="Lslash" format="1">
  <advance width="447"/>
  <unicode hex="0141"/>
  <outline>
    <contour>
      <point x="132" y="327" type="line"/>
      <point x="52" y="278" type="line"/>
      <point x="53" y="276" type="line"/>
      <point x="342" y="454" type="line"/>
      <point x="341" y="456" type="line"/>
    </contour>
    <component base="L" xOffset="2"/>
  </outline>
</glyph>
<glyph name="lslash" format="1">
  <advance width="288"/>
  <unicode hex="0142"/>
  <outline>
    <contour>
      <point x="238" y="432" type="line"/>
      <point x="237" y="434" type="line"/>
      <point x="126" y="364" type="line"/>
      <point x="55" y="319" type="line"/>
      <point x="56" y="317" type="line"/>
    </contour>
    <component base="l" xOffset="6"/>
  </outline>
</glyph>
<glyph name="napostrophe" format="1">
  <advance width="580"/>
  <unicode hex="0149"/>
  <outline>
    <contour>
      <point x="39" y="733"/>
      <point x="37" y="731"/>
      <point x="37" y="728" type="curve" smooth="yes"/>
      <point x="37" y="725"/>
      <point x="39" y="723"/>
      <point x="43" y="723" type="curve"/>
      <point x="20" y="601" type="line"/>
      <point x="21" y="601" type="line"/>
      <point x="46" y="720" type="line" smooth="yes"/>
      <point x="47" y="725"/>
      <point x="47" y="726"/>
      <point x="47" y="728" type="curve"/>
      <point x="47" y="731"/>
      <point x="45" y="733"/>
      <point x="42" y="733" type="curve" smooth="yes"/>
    </contour>
    <component base="n"/>
  </outline>
</glyph>
<glyph name="OE" format="1">
  <advance width="838"/>
  <unicode hex="0152"/>
  <outline>
    <contour>
      <point x="182" y="690"/>
      <point x="85" y="557"/>
      <point x="85" y="338" type="curve" smooth="yes"/>
      <point x="85" y="119"/>
      <point x="178" y="-9"/>
      <point x="324" y="-9" type="curve" smooth="yes"/>
      <point x="353" y="-9"/>
      <point x="376" y="-5"/>
      <point x="396" y="1" type="curve"/>
      <point x="509" y="35"/>
      <point x="572" y="156"/>
      <point x="572" y="361" type="curve" smooth="yes"/>
      <point x="572" y="525"/>
      <point x="510" y="644"/>
      <point x="398" y="679" type="curve"/>
      <point x="380" y="685"/>
      <point x="353" y="690"/>
      <point x="324" y="690" type="curve" smooth="yes"/>
    </contour>
    <contour>
      <point x="397" y="2" type="line"/>
      <point x="392" y="0" type="line"/>
      <point x="788" y="0" type="line"/>
      <point x="788" y="2" type="line"/>
    </contour>
    <contour>
      <point x="570" y="362" type="line"/>
      <point x="570" y="360" type="line"/>
      <point x="735" y="360" type="line"/>
      <point x="735" y="362" type="line"/>
    </contour>
    <contour>
      <point x="394" y="680" type="line"/>
      <point x="399" y="678" type="line"/>
      <point x="778" y="678" type="line"/>
      <point x="778" y="680" type="line"/>
    </contour>
    <contour>
      <point x="478" y="688"/>
      <point x="570" y="561"/>
      <point x="570" y="361" type="curve" smooth="yes"/>
      <point x="570" y="122"/>
      <point x="484" y="-7"/>
      <point x="324" y="-7" type="curve" smooth="yes"/>
      <point x="179" y="-7"/>
      <point x="87" y="121"/>
      <point x="87" y="338" type="curve" smooth="yes"/>
      <point x="87" y="555"/>
      <point x="183" y="688"/>
      <point x="324" y="688" type="curve" smooth="yes"/>
    </contour>
    <contour>
      <point x="419" y="680" type="move" name="top"/>
    </contour>
    <contour>
      <point x="419" y="0" type="move" name="bottom"/>
    </contour>
  </outline>
</glyph>
<glyph name="oe" format="1">
  <advance width="925"/>
  <unicode hex="0153"/>
  <outline>
    <contour>
      <point x="160" y="527"/>
      <point x="80" y="431"/>
      <point x="80" y="258" type="curve" smooth="yes"/>
      <point x="80" y="91"/>
      <point x="155" y="-9"/>
      <point x="279" y="-9" type="curve" smooth="yes"/>
      <point x="402" y="-9"/>
      <point x="479" y="89"/>
      <point x="479" y="262" type="curve" smooth="yes"/>
      <point x="479" y="429"/>
      <point x="403" y="527"/>
      <point x="281" y="527" type="curve" smooth="yes"/>
    </contour>
    <contour>
      <point x="402" y="525"/>
      <point x="477" y="427"/>
      <point x="477" y="262" type="curve" smooth="yes"/>
      <point x="477" y="91"/>
      <point x="401" y="-7"/>
      <point x="279" y="-7" type="curve" smooth="yes"/>
      <point x="156" y="-7"/>
      <point x="82" y="93"/>
      <point x="82" y="258" type="curve" smooth="yes"/>
      <point x="82" y="429"/>
      <point x="161" y="525"/>
      <point x="281" y="525" type="curve" smooth="yes"/>
    </contour>
    <contour>
      <point x="553" y="527"/>
      <point x="477" y="426"/>
      <point x="477" y="253" type="curve" smooth="yes"/>
      <point x="477" y="85"/>
      <point x="554" y="-9"/>
      <point x="673" y="-9" type="curve" smooth="yes"/>
      <point x="740" y="-9"/>
      <point x="782" y="13"/>
      <point x="827" y="50" type="curve"/>
      <point x="826" y="52" type="line"/>
      <point x="781" y="14"/>
      <point x="738" y="-7"/>
      <point x="673" y="-7" type="curve" smooth="yes"/>
      <point x="556" y="-7"/>
      <point x="479" y="86"/>
      <point x="479" y="253" type="curve"/>
      <point x="479" y="424"/>
      <point x="554" y="525"/>
      <point x="673" y="525" type="curve" smooth="yes"/>
      <point x="795" y="525"/>
      <point x="848" y="422"/>
      <point x="848" y="288" type="curve" smooth="yes"/>
      <point x="848" y="275"/>
      <point x="848" y="267"/>
      <point x="847" y="254" type="curve"/>
      <point x="478" y="254" type="line"/>
      <point x="478" y="252" type="line"/>
      <point x="849" y="252" type="line"/>
      <point x="850" y="266"/>
      <point x="850" y="274"/>
      <point x="850" y="288" type="curve" smooth="yes"/>
      <point x="850" y="424"/>
      <point x="796" y="527"/>
      <point x="673" y="527" type="curve" smooth="yes"/>
    </contour>
    <contour>
      <point x="477" y="517" type="move" name="top"/>
    </contour>
    <contour>
      <point x="478" y="0" type="move" name="bottom"/>
    </contour>
  </outline>
</glyph>
<glyph name="Tbar" format="1">
  <advance width="455"/>
  <unicode hex="0166"/>
  <outline>
    <contour>
      <point x="112" y="376" type="line"/>
      <point x="112" y="374" type="line"/>
      <point x="236" y="374" type="line"/>
      <point x="360" y="374" type="line"/>
      <point x="360" y="376" type="line"/>
    </contour>
    <component base="T"/>
  </outline>
</glyph>
<glyph name="tbar" format="1">
  <advance width="322"/>
  <unicode hex="0167"/>
  <outline>
    <contour>
      <point x="117" y="335" type="line"/>
      <point x="30" y="335" type="line"/>
      <point x="30" y="333" type="line"/>
      <point x="265" y="333" type="line"/>
      <point x="265" y="335" type="line"/>
    </contour>
    <component base="t"/>
  </outline>
</glyph>
<glyph name="uni0184" format="1">
  <advance width="549"/>
  <unicode hex="0184"/>
  <outline>
    <contour>
      <point x="280" y="0" type="line" smooth="yes"/>
      <point x="409" y="0"/>
      <point x="489" y="70"/>
      <point x="489" y="210" type="curve" smooth="yes"/>
      <point x="489" y="335"/>
      <point x="412" y="399"/>
      <point x="276" y="399" type="curve" smooth="yes"/>
      <point x="131" y="399" type="line"/>
      <point x="131" y="397" type="line"/>
      <point x="276" y="397" type="line" smooth="yes"/>
      <point x="411" y="397"/>
      <point x="487" y="333"/>
      <point x="487" y="210" type="curve" smooth="yes"/>
      <point x="487" y="72"/>
      <point x="409" y="2"/>
      <point x="280" y="2" type="curve" smooth="yes"/>
      <point x="132" y="2" type="line"/>
      <point x="132" y="680" type="line"/>
      <point x="130" y="680" type="line"/>
      <point x="130" y="632" type="line"/>
      <point x="130" y="0" type="line"/>
    </contour>
    <contour>
      <point x="130" y="680" type="line"/>
      <point x="127" y="659"/>
      <point x="123" y="647"/>
      <point x="115" y="633" type="curve"/>
      <point x="130" y="628" type="line"/>
    </contour>
    <contour>
      <point x="275" y="680" type="move" name="top"/>
    </contour>
    <contour>
      <point x="275" y="0" type="move" name="bottom"/>
    </contour>
  </outline>
</glyph>
<glyph name="uni0185" format="1">
  <advance width="492"/>
  <unicode hex="0185"/>
  <outline>
    <contour>
      <point x="257" y="0" type="line" smooth="yes"/>
      <point x="372" y="0"/>
      <point x="437" y="57"/>
      <point x="437" y="171" type="curve" smooth="yes"/>
      <point x="437" y="269"/>
      <point x="386" y="328"/>
      <point x="257" y="328" type="curve" smooth="yes"/>
      <point x="126" y="328" type="line"/>
      <point x="126" y="326" type="line"/>
      <point x="257" y="326" type="line" smooth="yes"/>
      <point x="385" y="326"/>
      <point x="435" y="267"/>
      <point x="435" y="171" type="curve" smooth="yes"/>
      <point x="435" y="59"/>
      <point x="372" y="2"/>
      <point x="257" y="2" type="curve" smooth="yes"/>
      <point x="127" y="2" type="line"/>
      <point x="127" y="517" type="line"/>
      <point x="125" y="517" type="line"/>
      <point x="125" y="485" type="line"/>
      <point x="125" y="0" type="line"/>
    </contour>
    <contour>
      <point x="125" y="517" type="line"/>
      <point x="122" y="502"/>
      <point x="117" y="490"/>
      <point x="110" y="480" type="curve"/>
      <point x="125" y="475" type="line"/>
    </contour>
  </outline>
</glyph>
<glyph name="uni0186" format="1">
  <advance width="529"/>
  <unicode hex="0186"/>
  <outline>
    <contour>
      <point x="123" y="690"/>
      <point x="76" y="664"/>
      <point x="35" y="633" type="curve"/>
      <point x="36" y="631" type="line"/>
      <point x="77" y="662"/>
      <point x="124" y="688"/>
      <point x="201" y="688" type="curve" smooth="yes"/>
      <point x="346" y="688"/>
      <point x="442" y="575"/>
      <point x="442" y="339" type="curve" smooth="yes"/>
      <point x="442" y="115"/>
      <point x="339" y="-7"/>
      <point x="193" y="-7" type="curve" smooth="yes"/>
      <point x="112" y="-7"/>
      <point x="64" y="21"/>
      <point x="27" y="52" type="curve"/>
      <point x="26" y="50" type="line"/>
      <point x="63" y="19"/>
      <point x="111" y="-9"/>
      <point x="193" y="-9" type="curve" smooth="yes"/>
      <point x="341" y="-9"/>
      <point x="444" y="114"/>
      <point x="444" y="339" type="curve" smooth="yes"/>
      <point x="444" y="577"/>
      <point x="348" y="690"/>
      <point x="201" y="690" type="curve" smooth="yes"/>
    </contour>
    <contour>
      <point x="206" y="341" type="move" name="center"/>
    </contour>
    <contour>
      <point x="205" y="0" type="move" name="bottom"/>
    </contour>
    <contour>
      <point x="205" y="680" type="move" name="top"/>
    </contour>
  </outline>
</glyph>
<glyph name="uni0187" format="1">
  <advance width="529"/>
  <unicode hex="0187"/>
  <outline>
    <contour>
      <point x="423" y="-9"/>
      <point x="471" y="23"/>
      <point x="503" y="50" type="curve"/>
      <point x="502" y="52" type="line"/>
      <point x="470" y="25"/>
      <point x="422" y="-7"/>
      <point x="341" y="-7" type="curve" smooth="yes"/>
      <point x="190" y="-7"/>
      <point x="87" y="115"/>
      <point x="87" y="339" type="curve" smooth="yes"/>
      <point x="87" y="575"/>
      <point x="193" y="688"/>
      <point x="342" y="688" type="curve" smooth="yes"/>
      <point x="415" y="688"/>
      <point x="458" y="662"/>
      <point x="493" y="631" type="curve"/>
      <point x="494" y="633" type="line"/>
      <point x="494" y="633"/>
      <point x="493" y="635"/>
      <point x="493" y="633" type="curve"/>
      <point x="460" y="663"/>
      <point x="415" y="690"/>
      <point x="342" y="690" type="curve" smooth="yes"/>
      <point x="191" y="690"/>
      <point x="85" y="577"/>
      <point x="85" y="339" type="curve" smooth="yes"/>
      <point x="85" y="114"/>
      <point x="188" y="-9"/>
      <point x="341" y="-9" type="curve" smooth="yes"/>
    </contour>
    <contour>
      <point x="494" y="633" type="line"/>
      <point x="494" y="708" type="line" smooth="yes"/>
      <point x="494" y="769"/>
      <point x="527" y="801"/>
      <point x="576" y="801" type="curve" smooth="yes"/>
      <point x="613" y="801"/>
      <point x="635" y="789"/>
      <point x="654" y="773" type="curve"/>
      <point x="655" y="775" type="line"/>
      <point x="637" y="790"/>
      <point x="614" y="803"/>
      <point x="576" y="803" type="curve" smooth="yes"/>
      <point x="526" y="803"/>
      <point x="492" y="770"/>
      <point x="492" y="708" type="curve" smooth="yes"/>
      <point x="492" y="633" type="line"/>
    </contour>
  </outline>
</glyph>
<glyph name="uni0188" format="1">
  <advance width="469"/>
  <unicode hex="0188"/>
  <outline>
    <contour>
      <point x="442" y="733"/>
      <point x="408" y="700"/>
      <point x="408" y="638" type="curve" smooth="yes"/>
      <point x="408" y="477" type="line"/>
      <point x="410" y="477" type="line"/>
      <point x="410" y="638" type="line" smooth="yes"/>
      <point x="410" y="699"/>
      <point x="443" y="731"/>
      <point x="492" y="731" type="curve" smooth="yes"/>
      <point x="529" y="731"/>
      <point x="551" y="719"/>
      <point x="570" y="703" type="curve"/>
      <point x="571" y="705" type="line"/>
      <point x="553" y="720"/>
      <point x="530" y="733"/>
      <point x="492" y="733" type="curve" smooth="yes"/>
    </contour>
    <contour>
      <point x="156" y="527"/>
      <point x="80" y="426"/>
      <point x="80" y="256" type="curve" smooth="yes"/>
      <point x="80" y="86"/>
      <point x="165" y="-9"/>
      <point x="280" y="-9" type="curve" smooth="yes"/>
      <point x="341" y="-9"/>
      <point x="381" y="13"/>
      <point x="414" y="44" type="curve"/>
      <point x="412" y="45" type="line"/>
      <point x="379" y="14"/>
      <point x="339" y="-7"/>
      <point x="280" y="-7" type="curve" smooth="yes"/>
      <point x="166" y="-7"/>
      <point x="82" y="88"/>
      <point x="82" y="256" type="curve" smooth="yes"/>
      <point x="82" y="424"/>
      <point x="158" y="525"/>
      <point x="282" y="525" type="curve" smooth="yes"/>
      <point x="333" y="525"/>
      <point x="373" y="509"/>
      <point x="408" y="476" type="curve"/>
      <point x="410" y="477" type="line"/>
      <point x="410" y="477"/>
      <point x="409" y="478"/>
      <point x="409" y="478" type="curve"/>
      <point x="374" y="510"/>
      <point x="334" y="527"/>
      <point x="282" y="527" type="curve" smooth="yes"/>
    </contour>
  </outline>
</glyph>
<glyph name="uni018B" format="1">
  <advance width="564"/>
  <unicode hex="018B"/>
  <outline>
    <contour>
      <point x="432" y="2" type="line"/>
      <point x="278" y="2" type="line" smooth="yes"/>
      <point x="155" y="2"/>
      <point x="77" y="66"/>
      <point x="77" y="194" type="curve" smooth="yes"/>
      <point x="77" y="327"/>
      <point x="160" y="397"/>
      <point x="295" y="397" type="curve" smooth="yes"/>
      <point x="433" y="397" type="line"/>
      <point x="433" y="399" type="line"/>
      <point x="295" y="399" type="line" smooth="yes"/>
      <point x="159" y="399"/>
      <point x="75" y="328"/>
      <point x="75" y="194" type="curve" smooth="yes"/>
      <point x="75" y="65"/>
      <point x="154" y="0"/>
      <point x="278" y="0" type="curve" smooth="yes"/>
      <point x="434" y="0" type="line"/>
      <point x="434" y="680" type="line"/>
      <point x="432" y="680" type="line"/>
    </contour>
    <contour>
      <point x="136" y="678" type="line"/>
      <point x="433" y="678" type="line"/>
      <point x="434" y="680" type="line"/>
      <point x="136" y="680" type="line"/>
    </contour>
  </outline>
</glyph>
<glyph name="uni018C" format="1">
  <advance width="572"/>
  <unicode hex="018C"/>
  <outline>
    <contour>
      <point x="364" y="-9"/>
      <point x="411" y="40"/>
      <point x="446" y="102" type="curve"/>
      <point x="446" y="106" type="line"/>
      <point x="411" y="42"/>
      <point x="364" y="-7"/>
      <point x="273" y="-7" type="curve" smooth="yes"/>
      <point x="160" y="-7"/>
      <point x="87" y="89"/>
      <point x="87" y="257" type="curve" smooth="yes"/>
      <point x="87" y="415"/>
      <point x="158" y="525"/>
      <point x="281" y="525" type="curve" smooth="yes"/>
      <point x="367" y="525"/>
      <point x="420" y="471"/>
      <point x="446" y="419" type="curve"/>
      <point x="446" y="422" type="line"/>
      <point x="422" y="472"/>
      <point x="368" y="527"/>
      <point x="281" y="527" type="curve" smooth="yes"/>
      <point x="156" y="527"/>
      <point x="85" y="417"/>
      <point x="85" y="257" type="curve" smooth="yes"/>
      <point x="85" y="87"/>
      <point x="159" y="-9"/>
      <point x="273" y="-9" type="curve" smooth="yes"/>
    </contour>
    <contour>
      <point x="447" y="0" type="line"/>
      <point x="447" y="727" type="line"/>
      <point x="445" y="727" type="line"/>
      <point x="445" y="104" type="line" smooth="yes"/>
      <point x="445" y="102" type="line"/>
      <point x="445" y="0" type="line"/>
    </contour>
    <contour>
      <point x="445" y="725" type="line"/>
      <point x="447" y="727" type="line"/>
      <point x="205" y="727" type="line"/>
      <point x="205" y="725" type="line"/>
    </contour>
  </outline>
</glyph>
<glyph name="uni018D" format="1">
  <advance width="554"/>
  <unicode hex="018D"/>
  <outline>
    <contour>
      <point x="132" y="-152"/>
      <point x="188" y="-192"/>
      <point x="269" y="-192" type="curve" smooth="yes"/>
      <point x="334" y="-192"/>
      <point x="376" y="-178"/>
      <point x="419" y="-147" type="curve"/>
      <point x="417" y="-146" type="line"/>
      <point x="376" y="-176"/>
      <point x="334" y="-190"/>
      <point x="269" y="-190" type="curve" smooth="yes"/>
      <point x="189" y="-190"/>
      <point x="134" y="-151"/>
      <point x="134" y="-93" type="curve" smooth="yes"/>
      <point x="134" y="-35"/>
      <point x="169" y="-6"/>
      <point x="272" y="34" type="curve" smooth="yes"/>
      <point x="421" y="92"/>
      <point x="474" y="146"/>
      <point x="474" y="291" type="curve" smooth="yes"/>
      <point x="474" y="455"/>
      <point x="397" y="527"/>
      <point x="279" y="527" type="curve" smooth="yes"/>
      <point x="156" y="527"/>
      <point x="80" y="444"/>
      <point x="80" y="285" type="curve" smooth="yes"/>
      <point x="80" y="146"/>
      <point x="160" y="68"/>
      <point x="270" y="34" type="curve"/>
      <point x="272" y="35" type="line"/>
      <point x="163" y="69"/>
      <point x="82" y="146"/>
      <point x="82" y="285" type="curve" smooth="yes"/>
      <point x="82" y="443"/>
      <point x="157" y="525"/>
      <point x="279" y="525" type="curve" smooth="yes"/>
      <point x="396" y="525"/>
      <point x="472" y="454"/>
      <point x="472" y="291" type="curve" smooth="yes"/>
      <point x="472" y="148"/>
      <point x="420" y="93"/>
      <point x="269" y="35" type="curve" smooth="yes"/>
      <point x="166" y="-5"/>
      <point x="132" y="-35"/>
      <point x="132" y="-93" type="curve" smooth="yes"/>
    </contour>
    <contour>
      <point x="277" y="517" type="move" name="top"/>
    </contour>
    <contour>
      <point x="277" y="-188" type="move" name="bottom"/>
    </contour>
  </outline>
</glyph>
<glyph name="uni018E" format="1">
  <advance width="495"/>
  <unicode hex="018E"/>
  <outline>
    <contour>
      <point x="57" y="678" type="line"/>
      <point x="363" y="678" type="line"/>
      <point x="363" y="362" type="line"/>
      <point x="103" y="362" type="line"/>
      <point x="103" y="360" type="line"/>
      <point x="363" y="360" type="line"/>
      <point x="363" y="2" type="line"/>
      <point x="50" y="2" type="line"/>
      <point x="50" y="0" type="line"/>
      <point x="365" y="0" type="line"/>
      <point x="365" y="680" type="line"/>
      <point x="57" y="680" type="line"/>
    </contour>
  </outline>
</glyph>
<glyph name="uni0190" format="1">
  <advance width="507"/>
  <unicode hex="0190"/>
  <outline>
    <contour>
      <point x="147" y="690"/>
      <point x="87" y="621"/>
      <point x="87" y="531" type="curve"/>
      <point x="87" y="426"/>
      <point x="163" y="377"/>
      <point x="244" y="372" type="curve"/>
      <point x="143" y="368"/>
      <point x="65" y="305"/>
      <point x="65" y="195" type="curve" smooth="yes"/>
      <point x="65" y="68"/>
      <point x="147" y="-9"/>
      <point x="268" y="-9" type="curve"/>
      <point x="354" y="-9"/>
      <point x="412" y="23"/>
      <point x="467" y="84" type="curve"/>
      <point x="465" y="85" type="line"/>
      <point x="411" y="25"/>
      <point x="353" y="-7"/>
      <point x="268" y="-7" type="curve"/>
      <point x="148" y="-7"/>
      <point x="67" y="70"/>
      <point x="67" y="195" type="curve" smooth="yes"/>
      <point x="67" y="303"/>
      <point x="145" y="371"/>
      <point x="259" y="371" type="curve" smooth="yes"/>
      <point x="316" y="371" type="line"/>
      <point x="316" y="373" type="line"/>
      <point x="262" y="373" type="line" smooth="yes"/>
      <point x="165" y="373"/>
      <point x="89" y="428"/>
      <point x="89" y="531" type="curve"/>
      <point x="89" y="619"/>
      <point x="148" y="688"/>
      <point x="260" y="688" type="curve"/>
      <point x="339" y="688"/>
      <point x="390" y="658"/>
      <point x="440" y="603" type="curve"/>
      <point x="442" y="605" type="line"/>
      <point x="392" y="660"/>
      <point x="339" y="690"/>
      <point x="260" y="690" type="curve"/>
    </contour>
    <contour>
      <point x="254" y="680" type="move" name="top"/>
    </contour>
    <contour>
      <point x="254" y="0" type="move" name="bottom"/>
    </contour>
  </outline>
</glyph>
<glyph name="florin" format="1">
  <advance width="294"/>
  <unicode hex="0192"/>
  <outline>
    <contour>
      <point x="169" y="733"/>
      <point x="122" y="694"/>
      <point x="122" y="618" type="curve" smooth="yes"/>
      <point x="122" y="1" type="line"/>
      <point x="124" y="3" type="line"/>
      <point x="124" y="618" type="line" smooth="yes"/>
      <point x="124" y="693"/>
      <point x="170" y="731"/>
      <point x="233" y="731" type="curve" smooth="yes"/>
      <point x="277" y="731"/>
      <point x="313" y="717"/>
      <point x="343" y="701" type="curve"/>
      <point x="344" y="703" type="line"/>
      <point x="314" y="719"/>
      <point x="277" y="733"/>
      <point x="233" y="733" type="curve" smooth="yes"/>
    </contour>
    <contour>
      <point x="30" y="517" type="line"/>
      <point x="30" y="515" type="line"/>
      <point x="275" y="515" type="line"/>
      <point x="275" y="517" type="line"/>
    </contour>
    <contour>
      <point x="122" y="477" type="line"/>
      <point x="122" y="1" type="line" smooth="yes"/>
      <point x="122" y="-117"/>
      <point x="93" y="-153"/>
      <point x="25" y="-189" type="curve"/>
      <point x="26" y="-191" type="line"/>
      <point x="95" y="-154"/>
      <point x="124" y="-118"/>
      <point x="124" y="1" type="curve" smooth="yes"/>
      <point x="124" y="477" type="line"/>
    </contour>
  </outline>
</glyph>
<glyph name="uni0193" format="1">
  <advance width="535"/>
  <unicode hex="0193"/>
  <outline>
    <contour>
      <point x="423" y="-9"/>
      <point x="479" y="15"/>
      <point x="519" y="39" type="curve"/>
      <point x="519" y="342" type="line"/>
      <point x="366" y="342" type="line"/>
      <point x="366" y="340" type="line"/>
      <point x="517" y="340" type="line"/>
      <point x="517" y="40" type="line"/>
      <point x="479" y="17"/>
      <point x="424" y="-7"/>
      <point x="353" y="-7" type="curve" smooth="yes"/>
      <point x="190" y="-7"/>
      <point x="87" y="116"/>
      <point x="87" y="345" type="curve" smooth="yes"/>
      <point x="87" y="580"/>
      <point x="218" y="688"/>
      <point x="343" y="688" type="curve" smooth="yes"/>
      <point x="404" y="688"/>
      <point x="452" y="669"/>
      <point x="499" y="633" type="curve"/>
      <point x="500" y="635" type="line"/>
      <point x="500" y="635"/>
      <point x="499" y="635"/>
      <point x="499" y="635" type="curve"/>
      <point x="454" y="670"/>
      <point x="405" y="690"/>
      <point x="343" y="690" type="curve" smooth="yes"/>
      <point x="217" y="690"/>
      <point x="85" y="582"/>
      <point x="85" y="345" type="curve" smooth="yes"/>
      <point x="85" y="114"/>
      <point x="190" y="-9"/>
      <point x="353" y="-9" type="curve" smooth="yes"/>
    </contour>
    <contour>
      <point x="500" y="635" type="line"/>
      <point x="500" y="708" type="line" smooth="yes"/>
      <point x="500" y="769"/>
      <point x="533" y="801"/>
      <point x="582" y="801" type="curve" smooth="yes"/>
      <point x="619" y="801"/>
      <point x="641" y="789"/>
      <point x="660" y="773" type="curve"/>
      <point x="661" y="775" type="line"/>
      <point x="643" y="790"/>
      <point x="620" y="803"/>
      <point x="582" y="803" type="curve" smooth="yes"/>
      <point x="532" y="803"/>
      <point x="498" y="770"/>
      <point x="498" y="708" type="curve" smooth="yes"/>
      <point x="498" y="635" type="line"/>
    </contour>
  </outline>
</glyph>
<glyph name="uni0194" format="1">
  <advance width="523"/>
  <unicode hex="0194"/>
  <outline>
    <contour>
      <point x="307" y="-193"/>
      <point x="324" y="-161"/>
      <point x="324" y="-127" type="curve" smooth="yes"/>
      <point x="324" y="-80"/>
      <point x="300" y="-28"/>
      <point x="265" y="58" type="curve"/>
      <point x="264" y="60" type="line"/>
      <point x="37" y="680" type="line"/>
      <point x="35" y="680" type="line"/>
      <point x="263" y="58" type="line"/>
      <point x="264" y="56" type="line"/>
      <point x="298" y="-30"/>
      <point x="322" y="-80"/>
      <point x="322" y="-127" type="curve" smooth="yes"/>
      <point x="322" y="-160"/>
      <point x="306" y="-191"/>
      <point x="264" y="-191" type="curve"/>
      <point x="224" y="-191"/>
      <point x="207" y="-161"/>
      <point x="207" y="-127" type="curve" smooth="yes"/>
      <point x="207" y="-81"/>
      <point x="233" y="-29"/>
      <point x="264" y="56" type="curve"/>
      <point x="265" y="58" type="line"/>
      <point x="488" y="680" type="line"/>
      <point x="486" y="680" type="line"/>
      <point x="264" y="60" type="line"/>
      <point x="263" y="58" type="line"/>
      <point x="231" y="-27"/>
      <point x="205" y="-81"/>
      <point x="205" y="-127" type="curve" smooth="yes"/>
      <point x="205" y="-162"/>
      <point x="223" y="-193"/>
      <point x="264" y="-193" type="curve"/>
    </contour>
  </outline>
</glyph>
<glyph name="uni0195" format="1">
  <advance width="891"/>
  <unicode hex="0195"/>
  <outline>
    <contour>
      <point x="711" y="-9"/>
      <point x="791" y="71"/>
      <point x="791" y="268" type="curve" smooth="yes"/>
      <point x="791" y="362"/>
      <point x="777" y="448"/>
      <point x="764" y="517" type="curve"/>
      <point x="762" y="517" type="line"/>
      <point x="775" y="448"/>
      <point x="789" y="362"/>
      <point x="789" y="268" type="curve" smooth="yes"/>
      <point x="789" y="72"/>
      <point x="710" y="-7"/>
      <point x="605" y="-7" type="curve" smooth="yes"/>
      <point x="523" y="-7"/>
      <point x="460" y="47"/>
      <point x="460" y="153" type="curve" smooth="yes"/>
      <point x="460" y="317" type="line"/>
      <point x="458" y="317" type="line"/>
      <point x="458" y="153" type="line" smooth="yes"/>
      <point x="458" y="45"/>
      <point x="522" y="-9"/>
      <point x="605" y="-9" type="curve" smooth="yes"/>
    </contour>
    <contour>
      <point x="127" y="0" type="line"/>
      <point x="127" y="730" type="line"/>
      <point x="125" y="730" type="line"/>
      <point x="125" y="0" type="line"/>
    </contour>
    <contour>
      <point x="460" y="300" type="line"/>
      <point x="460" y="368" type="line" smooth="yes"/>
      <point x="460" y="465"/>
      <point x="420" y="527"/>
      <point x="326" y="527" type="curve" smooth="yes"/>
      <point x="238" y="527"/>
      <point x="174" y="475"/>
      <point x="126" y="389" type="curve"/>
      <point x="127" y="387" type="line"/>
      <point x="175" y="473"/>
      <point x="239" y="525"/>
      <point x="326" y="525" type="curve" smooth="yes"/>
      <point x="419" y="525"/>
      <point x="458" y="464"/>
      <point x="458" y="368" type="curve" smooth="yes"/>
      <point x="458" y="300" type="line"/>
    </contour>
  </outline>
</glyph>
<glyph name="uni0196" format="1">
  <advance width="323"/>
  <unicode hex="0196"/>
  <outline>
    <contour>
      <point x="120" y="680" type="line"/>
      <point x="120" y="181" type="line"/>
      <point x="122" y="181" type="line"/>
      <point x="122" y="680" type="line"/>
    </contour>
    <component base="hookHELPER.case" xOffset="326" yOffset="183" xScale="-1"/>
    <contour>
      <point x="121" y="680" type="move" name="top"/>
    </contour>
    <contour>
      <point x="192" y="0" type="move" name="bottom"/>
    </contour>
  </outline>
</glyph>
<glyph name="uni0198" format="1">
  <advance width="541"/>
  <unicode hex="0198"/>
  <outline>
    <contour>
      <point x="130" y="680" type="line"/>
      <point x="130" y="1" type="line"/>
      <point x="132" y="1" type="line"/>
      <point x="132" y="680" type="line"/>
    </contour>
    <contour>
      <point x="398" y="674"/>
      <point x="422" y="688"/>
      <point x="458" y="688" type="curve" smooth="yes"/>
      <point x="488" y="688"/>
      <point x="508" y="674"/>
      <point x="524" y="656" type="curve"/>
      <point x="526" y="657" type="line"/>
      <point x="510" y="675"/>
      <point x="489" y="690"/>
      <point x="458" y="690" type="curve" smooth="yes"/>
      <point x="421" y="690"/>
      <point x="396" y="675"/>
      <point x="362" y="635" type="curve" smooth="yes"/>
      <point x="135" y="366" type="line"/>
      <point x="486" y="0" type="line"/>
      <point x="489" y="0" type="line"/>
      <point x="138" y="366" type="line"/>
      <point x="364" y="634" type="line" smooth="yes"/>
    </contour>
  </outline>
</glyph>
<glyph name="uni0199" format="1">
  <advance width="448"/>
  <unicode hex="0199"/>
  <outline>
    <contour>
      <point x="393" y="517" type="line"/>
      <point x="133" y="283" type="line"/>
      <point x="420" y="0" type="line"/>
      <point x="423" y="0" type="line"/>
      <point x="136" y="283" type="line"/>
      <point x="396" y="517" type="line"/>
    </contour>
    <contour>
      <point x="125" y="517" type="line"/>
      <point x="125" y="0" type="line"/>
      <point x="127" y="0" type="line"/>
      <point x="127" y="517" type="line"/>
    </contour>
    <component base="hookaboveHELPER" xOffset="82"/>
  </outline>
</glyph>
<glyph name="uni019B" format="1">
  <advance width="444"/>
  <unicode hex="019B"/>
  <outline>
    <contour>
      <point x="235" y="515" type="line"/>
      <point x="308" y="155"/>
      <point x="366" y="82"/>
      <point x="442" y="-1" type="curve"/>
      <point x="444" y="0" type="line"/>
      <point x="367" y="83"/>
      <point x="310" y="157"/>
      <point x="237" y="515" type="curve" smooth="yes"/>
      <point x="212" y="637"/>
      <point x="189" y="703"/>
      <point x="89" y="732" type="curve"/>
      <point x="89" y="730" type="line"/>
      <point x="189" y="700"/>
      <point x="209" y="636"/>
      <point x="235" y="517" type="curve"/>
      <point x="234" y="517" type="line"/>
      <point x="50" y="-2" type="line"/>
      <point x="52" y="-3" type="line"/>
    </contour>
    <contour>
      <point x="183" y="669" type="line"/>
      <point x="184" y="670" type="line"/>
      <point x="246" y="736" type="line"/>
      <point x="244" y="737" type="line"/>
      <point x="182" y="671" type="line"/>
      <point x="181" y="670" type="line"/>
      <point x="92" y="577" type="line"/>
      <point x="94" y="576" type="line"/>
    </contour>
  </outline>
</glyph>
<glyph name="uni019C" format="1">
  <advance width="918"/>
  <unicode hex="019C"/>
  <outline>
    <contour>
      <point x="685" y="-10"/>
      <point x="739" y="42"/>
      <point x="787" y="128" type="curve"/>
      <point x="786" y="130" type="line"/>
      <point x="738" y="44"/>
      <point x="684" y="-8"/>
      <point x="599" y="-8" type="curve" smooth="yes"/>
      <point x="513" y="-8"/>
      <point x="455" y="51"/>
      <point x="455" y="169" type="curve" smooth="yes"/>
      <point x="455" y="680" type="line"/>
      <point x="453" y="680" type="line"/>
      <point x="453" y="169" type="line" smooth="yes"/>
      <point x="453" y="50"/>
      <point x="512" y="-10"/>
      <point x="599" y="-10" type="curve" smooth="yes"/>
    </contour>
    <contour>
      <point x="788" y="0" type="line"/>
      <point x="788" y="680" type="line"/>
      <point x="786" y="680" type="line"/>
      <point x="786" y="128" type="line"/>
      <point x="786" y="0" type="line"/>
    </contour>
    <contour>
      <point x="352" y="-10"/>
      <point x="406" y="42"/>
      <point x="457" y="131" type="curve"/>
      <point x="456" y="133" type="line"/>
      <point x="405" y="44"/>
      <point x="351" y="-8"/>
      <point x="266" y="-8" type="curve" smooth="yes"/>
      <point x="180" y="-8"/>
      <point x="122" y="51"/>
      <point x="122" y="169" type="curve" smooth="yes"/>
      <point x="122" y="680" type="line"/>
      <point x="120" y="680" type="line"/>
      <point x="120" y="169" type="line" smooth="yes"/>
      <point x="120" y="50"/>
      <point x="179" y="-10"/>
      <point x="266" y="-10" type="curve" smooth="yes"/>
    </contour>
    <contour>
      <point x="459" y="680" type="move" name="top"/>
    </contour>
    <contour>
      <point x="459" y="0" type="move" name="bottom"/>
    </contour>
  </outline>
</glyph>
<glyph name="uni019E" format="1">
  <advance width="580"/>
  <unicode hex="019E"/>
  <outline>
    <contour>
      <point x="458" y="1" type="line"/>
      <point x="458" y="-190" type="line"/>
      <point x="460" y="-190" type="line"/>
      <point x="460" y="1" type="line"/>
    </contour>
    <component base="n"/>
  </outline>
</glyph>
<glyph name="uni01A2" format="1">
  <advance width="873"/>
  <unicode hex="01A2"/>
  <outline>
    <contour>
      <point x="581" y="690"/>
      <point x="539" y="673"/>
      <point x="487" y="644" type="curve"/>
      <point x="489" y="643" type="line"/>
      <point x="540" y="671"/>
      <point x="582" y="688"/>
      <point x="639" y="688" type="curve" smooth="yes"/>
      <point x="708" y="688"/>
      <point x="741" y="646"/>
      <point x="741" y="575" type="curve" smooth="yes"/>
      <point x="741" y="-188" type="line"/>
      <point x="743" y="-188" type="line"/>
      <point x="743" y="575" type="line" smooth="yes"/>
      <point x="743" y="647"/>
      <point x="709" y="690"/>
      <point x="639" y="690" type="curve" smooth="yes"/>
    </contour>
    <contour>
      <point x="188" y="690"/>
      <point x="85" y="557"/>
      <point x="85" y="338" type="curve" smooth="yes"/>
      <point x="85" y="119"/>
      <point x="184" y="-9"/>
      <point x="343" y="-9" type="curve" smooth="yes"/>
      <point x="510" y="-9"/>
      <point x="602" y="120"/>
      <point x="602" y="340" type="curve" smooth="yes"/>
      <point x="602" y="563"/>
      <point x="504" y="690"/>
      <point x="343" y="690" type="curve" smooth="yes"/>
    </contour>
    <contour>
      <point x="503" y="688"/>
      <point x="600" y="561"/>
      <point x="600" y="340" type="curve" smooth="yes"/>
      <point x="600" y="122"/>
      <point x="509" y="-7"/>
      <point x="343" y="-7" type="curve" smooth="yes"/>
      <point x="185" y="-7"/>
      <point x="87" y="121"/>
      <point x="87" y="338" type="curve" smooth="yes"/>
      <point x="87" y="555"/>
      <point x="189" y="688"/>
      <point x="343" y="688" type="curve" smooth="yes"/>
    </contour>
  </outline>
</glyph>
<glyph name="uni01A3" format="1">
  <advance width="728"/>
  <unicode hex="01A3"/>
  <outline>
    <contour>
      <point x="603" y="-191" type="line"/>
      <point x="603" y="412" type="line" smooth="yes"/>
      <point x="603" y="484"/>
      <point x="569" y="527"/>
      <point x="494" y="527" type="curve" smooth="yes"/>
      <point x="455" y="527"/>
      <point x="419" y="517"/>
      <point x="381" y="498" type="curve"/>
      <point x="383" y="497" type="line"/>
      <point x="421" y="516"/>
      <point x="456" y="525"/>
      <point x="494" y="525" type="curve" smooth="yes"/>
      <point x="568" y="525"/>
      <point x="601" y="483"/>
      <point x="601" y="412" type="curve" smooth="yes"/>
      <point x="601" y="-191" type="line"/>
    </contour>
    <contour>
      <point x="160" y="527"/>
      <point x="80" y="431"/>
      <point x="80" y="258" type="curve" smooth="yes"/>
      <point x="80" y="91"/>
      <point x="155" y="-9"/>
      <point x="279" y="-9" type="curve" smooth="yes"/>
      <point x="402" y="-9"/>
      <point x="479" y="89"/>
      <point x="479" y="262" type="curve" smooth="yes"/>
      <point x="479" y="429"/>
      <point x="403" y="527"/>
      <point x="281" y="527" type="curve" smooth="yes"/>
    </contour>
    <contour>
      <point x="402" y="525"/>
      <point x="477" y="427"/>
      <point x="477" y="262" type="curve" smooth="yes"/>
      <point x="477" y="91"/>
      <point x="401" y="-7"/>
      <point x="279" y="-7" type="curve" smooth="yes"/>
      <point x="156" y="-7"/>
      <point x="82" y="93"/>
      <point x="82" y="258" type="curve" smooth="yes"/>
      <point x="82" y="429"/>
      <point x="161" y="525"/>
      <point x="281" y="525" type="curve" smooth="yes"/>
    </contour>
  </outline>
</glyph>
<glyph name="uni01A6" format="1">
  <advance width="561"/>
  <unicode hex="01A6"/>
  <outline>
    <contour>
      <point x="130" y="680" type="line"/>
      <point x="130" y="0" type="line"/>
      <point x="132" y="0" type="line"/>
      <point x="132" y="680" type="line"/>
    </contour>
    <contour>
      <point x="311" y="195" type="line"/>
      <point x="503" y="-140" type="line"/>
      <point x="506" y="-140" type="line"/>
      <point x="313" y="195" type="line"/>
    </contour>
    <contour>
      <point x="131" y="538" type="line"/>
      <point x="267" y="538" type="line" smooth="yes"/>
      <point x="426" y="538"/>
      <point x="480" y="471"/>
      <point x="480" y="366" type="curve" smooth="yes"/>
      <point x="480" y="243"/>
      <point x="392" y="196"/>
      <point x="306" y="196" type="curve" smooth="yes"/>
      <point x="131" y="196" type="line"/>
      <point x="131" y="194" type="line"/>
      <point x="312" y="194" type="line"/>
      <point x="393" y="196"/>
      <point x="482" y="242"/>
      <point x="482" y="366" type="curve" smooth="yes"/>
      <point x="482" y="472"/>
      <point x="427" y="540"/>
      <point x="267" y="540" type="curve" smooth="yes"/>
      <point x="131" y="540" type="line"/>
    </contour>
    <contour>
      <point x="281" y="680" type="move" name="top"/>
    </contour>
    <contour>
      <point x="281" y="-188" type="move" name="bottom"/>
    </contour>
  </outline>
</glyph>
<glyph name="uni01A7" format="1">
  <advance width="540"/>
  <unicode hex="01A7"/>
  <outline>
    <contour>
      <point x="201" y="690"/>
      <point x="151" y="663"/>
      <point x="103" y="626" type="curve"/>
      <point x="104" y="624" type="line"/>
      <point x="152" y="662"/>
      <point x="203" y="688"/>
      <point x="283" y="688" type="curve" smooth="yes"/>
      <point x="386" y="688"/>
      <point x="450" y="628"/>
      <point x="450" y="545" type="curve" smooth="yes"/>
      <point x="450" y="455"/>
      <point x="408" y="414"/>
      <point x="270" y="370" type="curve" smooth="yes"/>
      <point x="141" y="329"/>
      <point x="80" y="284"/>
      <point x="80" y="171" type="curve" smooth="yes"/>
      <point x="80" y="64"/>
      <point x="160" y="-9"/>
      <point x="270" y="-9" type="curve" smooth="yes"/>
      <point x="372" y="-9"/>
      <point x="426" y="22"/>
      <point x="475" y="69" type="curve"/>
      <point x="474" y="71" type="line"/>
      <point x="425" y="24"/>
      <point x="372" y="-7"/>
      <point x="270" y="-7" type="curve" smooth="yes"/>
      <point x="162" y="-7"/>
      <point x="82" y="65"/>
      <point x="82" y="171" type="curve" smooth="yes"/>
      <point x="82" y="283"/>
      <point x="143" y="327"/>
      <point x="271" y="368" type="curve" smooth="yes"/>
      <point x="408" y="412"/>
      <point x="452" y="453"/>
      <point x="452" y="545" type="curve" smooth="yes"/>
      <point x="452" y="630"/>
      <point x="387" y="690"/>
      <point x="283" y="690" type="curve" smooth="yes"/>
    </contour>
  </outline>
</glyph>
<glyph name="uni01A8" format="1">
  <advance width="457"/>
  <unicode hex="01A8"/>
  <outline>
    <contour>
      <point x="172" y="527"/>
      <point x="129" y="509"/>
      <point x="85" y="475" type="curve"/>
      <point x="86" y="473" type="line"/>
      <point x="131" y="508"/>
      <point x="173" y="525"/>
      <point x="241" y="525" type="curve" smooth="yes"/>
      <point x="321" y="525"/>
      <point x="378" y="479"/>
      <point x="378" y="411" type="curve" smooth="yes"/>
      <point x="378" y="341"/>
      <point x="336" y="308"/>
      <point x="226" y="276" type="curve" smooth="yes"/>
      <point x="112" y="243"/>
      <point x="70" y="208"/>
      <point x="70" y="127" type="curve" smooth="yes"/>
      <point x="70" y="44"/>
      <point x="134" y="-9"/>
      <point x="225" y="-9" type="curve" smooth="yes"/>
      <point x="308" y="-9"/>
      <point x="356" y="19"/>
      <point x="397" y="57" type="curve"/>
      <point x="396" y="59" type="line"/>
      <point x="355" y="21"/>
      <point x="308" y="-7"/>
      <point x="225" y="-7" type="curve" smooth="yes"/>
      <point x="135" y="-7"/>
      <point x="72" y="46"/>
      <point x="72" y="127" type="curve" smooth="yes"/>
      <point x="72" y="208"/>
      <point x="115" y="241"/>
      <point x="227" y="274" type="curve" smooth="yes"/>
      <point x="337" y="306"/>
      <point x="380" y="339"/>
      <point x="380" y="411" type="curve" smooth="yes"/>
      <point x="380" y="480"/>
      <point x="322" y="527"/>
      <point x="241" y="527" type="curve" smooth="yes"/>
    </contour>
  </outline>
</glyph>
<glyph name="uni01AA" format="1">
  <advance width="256"/>
  <unicode hex="01AA"/>
  <outline>
    <contour>
      <point x="1" y="733"/>
      <point x="-34" y="689"/>
      <point x="-34" y="626" type="curve" smooth="yes"/>
      <point x="-34" y="559"/>
      <point x="0" y="526"/>
      <point x="50" y="526" type="curve" smooth="yes"/>
      <point x="84" y="526"/>
      <point x="111" y="539"/>
      <point x="128" y="554" type="curve"/>
      <point x="128" y="556" type="line"/>
      <point x="109" y="540"/>
      <point x="83" y="528"/>
      <point x="50" y="528" type="curve" smooth="yes"/>
      <point x="1" y="528"/>
      <point x="-32" y="560"/>
      <point x="-32" y="626" type="curve" smooth="yes"/>
      <point x="-32" y="688"/>
      <point x="2" y="731"/>
      <point x="53" y="731" type="curve" smooth="yes"/>
      <point x="99" y="731"/>
      <point x="127" y="699"/>
      <point x="127" y="646" type="curve" smooth="yes"/>
      <point x="127" y="0" type="line"/>
      <point x="129" y="0" type="line"/>
      <point x="129" y="646" type="line" smooth="yes"/>
      <point x="129" y="700"/>
      <point x="100" y="733"/>
      <point x="53" y="733" type="curve" smooth="yes"/>
    </contour>
    <component base="hookHELPER" xOffset="333" xScale="-1"/>
  </outline>
</glyph>
<glyph name="uni01AB" format="1">
  <advance width="322"/>
  <unicode hex="01AB"/>
  <outline>
    <contour>
      <point x="277" y="-192"/>
      <point x="314" y="-159"/>
      <point x="314" y="-97" type="curve" smooth="yes"/>
      <point x="314" y="19" type="line"/>
      <point x="312" y="19" type="line"/>
      <point x="312" y="-97" type="line" smooth="yes"/>
      <point x="312" y="-158"/>
      <point x="276" y="-190"/>
      <point x="227" y="-190" type="curve" smooth="yes"/>
      <point x="190" y="-190"/>
      <point x="168" y="-178"/>
      <point x="152" y="-170" type="curve"/>
      <point x="151" y="-172" type="line"/>
      <point x="166" y="-179"/>
      <point x="189" y="-192"/>
      <point x="227" y="-192" type="curve" smooth="yes"/>
    </contour>
    <contour>
      <point x="117" y="651" type="line"/>
      <point x="117" y="113" type="line" smooth="yes"/>
      <point x="117" y="35"/>
      <point x="155" y="-9"/>
      <point x="220" y="-9" type="curve" smooth="yes"/>
      <point x="261" y="-9"/>
      <point x="289" y="4"/>
      <point x="313" y="19" type="curve"/>
      <point x="313" y="18"/>
      <point x="314" y="19"/>
      <point x="314" y="19" type="curve"/>
      <point x="313" y="21" type="line"/>
      <point x="290" y="6"/>
      <point x="262" y="-7"/>
      <point x="220" y="-7" type="curve" smooth="yes"/>
      <point x="156" y="-7"/>
      <point x="119" y="37"/>
      <point x="119" y="113" type="curve" smooth="yes"/>
      <point x="119" y="651" type="line"/>
    </contour>
    <contour>
      <point x="30" y="517" type="line"/>
      <point x="30" y="515" type="line"/>
      <point x="265" y="515" type="line"/>
      <point x="265" y="517" type="line"/>
    </contour>
    <contour>
      <point x="118" y="651" type="move" name="top"/>
    </contour>
    <contour>
      <point x="161" y="-188" type="move" name="bottom"/>
    </contour>
  </outline>
</glyph>
<glyph name="uni01AC" format="1">
  <advance width="492"/>
  <unicode hex="01AC"/>
  <outline>
    <contour>
      <point x="170" y="680" type="line"/>
      <point x="170" y="678" type="line"/>
      <point x="255" y="678" type="line"/>
      <point x="255" y="0" type="line"/>
      <point x="257" y="0" type="line"/>
      <point x="257" y="678" type="line"/>
      <point x="472" y="678" type="line"/>
      <point x="472" y="680" type="line"/>
    </contour>
    <contour>
      <point x="30" y="559"/>
      <point x="43" y="538"/>
      <point x="58" y="517" type="curve"/>
      <point x="60" y="518" type="line"/>
      <point x="44" y="540"/>
      <point x="32" y="560"/>
      <point x="32" y="595" type="curve" smooth="yes"/>
      <point x="32" y="648"/>
      <point x="64" y="678"/>
      <point x="128" y="678" type="curve" smooth="yes"/>
      <point x="177" y="678" type="line"/>
      <point x="177" y="680" type="line"/>
      <point x="128" y="680" type="line" smooth="yes"/>
      <point x="63" y="680"/>
      <point x="30" y="649"/>
      <point x="30" y="595" type="curve" smooth="yes"/>
    </contour>
  </outline>
</glyph>
<glyph name="uni01AD" format="1">
  <advance width="322"/>
  <unicode hex="01AD"/>
  <outline>
    <contour>
      <point x="262" y="-9"/>
      <point x="289" y="4"/>
      <point x="314" y="19" type="curve"/>
      <point x="313" y="21" type="line"/>
      <point x="290" y="6"/>
      <point x="262" y="-7"/>
      <point x="220" y="-7" type="curve" smooth="yes"/>
      <point x="156" y="-7"/>
      <point x="119" y="37"/>
      <point x="119" y="113" type="curve" smooth="yes"/>
      <point x="119" y="525" type="line"/>
      <point x="117" y="525" type="line"/>
      <point x="117" y="113" type="line" smooth="yes"/>
      <point x="117" y="35"/>
      <point x="155" y="-9"/>
      <point x="220" y="-9" type="curve" smooth="yes"/>
    </contour>
    <contour>
      <point x="265" y="515" type="line"/>
      <point x="265" y="517" type="line"/>
      <point x="30" y="517" type="line"/>
      <point x="30" y="515" type="line"/>
    </contour>
    <contour>
      <point x="119" y="520" type="line"/>
      <point x="119" y="611" type="line" smooth="yes"/>
      <point x="119" y="687"/>
      <point x="156" y="731"/>
      <point x="220" y="731" type="curve" smooth="yes"/>
      <point x="262" y="731"/>
      <point x="290" y="718"/>
      <point x="313" y="703" type="curve"/>
      <point x="314" y="705" type="line"/>
      <point x="289" y="720"/>
      <point x="262" y="733"/>
      <point x="220" y="733" type="curve" smooth="yes"/>
      <point x="155" y="733"/>
      <point x="117" y="689"/>
      <point x="117" y="611" type="curve" smooth="yes"/>
      <point x="117" y="520" type="line"/>
    </contour>
  </outline>
</glyph>
<glyph name="uni01B1" format="1">
  <advance width="687"/>
  <unicode hex="01B1"/>
  <outline>
    <contour>
      <point x="504" y="-10"/>
      <point x="602" y="123"/>
      <point x="602" y="317" type="curve" smooth="yes"/>
      <point x="602" y="525"/>
      <point x="517" y="631"/>
      <point x="438" y="678" type="curve"/>
      <point x="574" y="678" type="line"/>
      <point x="574" y="680" type="line"/>
      <point x="436" y="680" type="line"/>
      <point x="436" y="677" type="line"/>
      <point x="514" y="630"/>
      <point x="600" y="523"/>
      <point x="600" y="317" type="curve" smooth="yes"/>
      <point x="600" y="125"/>
      <point x="503" y="-8"/>
      <point x="344" y="-8" type="curve" smooth="yes"/>
      <point x="186" y="-8"/>
      <point x="87" y="125"/>
      <point x="87" y="315" type="curve"/>
      <point x="87" y="518"/>
      <point x="169" y="628"/>
      <point x="252" y="677" type="curve"/>
      <point x="252" y="680" type="line"/>
      <point x="114" y="680" type="line"/>
      <point x="114" y="678" type="line"/>
      <point x="250" y="678" type="line"/>
      <point x="166" y="629"/>
      <point x="85" y="520"/>
      <point x="85" y="315" type="curve" smooth="yes"/>
      <point x="85" y="123"/>
      <point x="185" y="-10"/>
      <point x="344" y="-10" type="curve" smooth="yes"/>
    </contour>
    <contour>
      <point x="344" y="680" type="move" name="top"/>
    </contour>
    <contour>
      <point x="344" y="0" type="move" name="bottom"/>
    </contour>
  </outline>
</glyph>
<glyph name="uni01B2" format="1">
  <advance width="624"/>
  <unicode hex="01B2"/>
  <outline>
    <contour>
      <point x="512" y="607" type="line"/>
      <point x="512" y="286" type="line" smooth="yes"/>
      <point x="512" y="79"/>
      <point x="427" y="-7"/>
      <point x="296" y="-7" type="curve" smooth="yes"/>
      <point x="183" y="-7"/>
      <point x="122" y="64"/>
      <point x="122" y="182" type="curve" smooth="yes"/>
      <point x="122" y="680" type="line"/>
      <point x="120" y="680" type="line"/>
      <point x="120" y="182" type="line" smooth="yes"/>
      <point x="120" y="63"/>
      <point x="181" y="-9"/>
      <point x="296" y="-9" type="curve" smooth="yes"/>
      <point x="428" y="-9"/>
      <point x="514" y="78"/>
      <point x="514" y="286" type="curve" smooth="yes"/>
      <point x="514" y="607" type="line"/>
    </contour>
    <contour>
      <point x="514" y="607" type="line"/>
      <point x="514" y="662"/>
      <point x="495" y="690"/>
      <point x="450" y="690" type="curve" smooth="yes"/>
      <point x="430" y="690"/>
      <point x="415" y="686"/>
      <point x="401" y="679" type="curve"/>
      <point x="402" y="677" type="line"/>
      <point x="414" y="683"/>
      <point x="430" y="688"/>
      <point x="450" y="688" type="curve" smooth="yes"/>
      <point x="494" y="688"/>
      <point x="512" y="660"/>
      <point x="512" y="607" type="curve"/>
    </contour>
    <contour>
      <point x="302" y="680" type="move" name="top"/>
    </contour>
    <contour>
      <point x="302" y="0" type="move" name="bottom"/>
    </contour>
  </outline>
</glyph>
<glyph name="uni01B3" format="1">
  <advance width="505"/>
  <unicode hex="01B3"/>
  <outline>
    <contour>
      <point x="241" y="0" type="line"/>
      <point x="241" y="271" type="line"/>
      <point x="405" y="612" type="line" smooth="yes"/>
      <point x="431" y="667"/>
      <point x="454" y="688"/>
      <point x="496" y="688" type="curve" smooth="yes"/>
      <point x="532" y="688"/>
      <point x="552" y="674"/>
      <point x="574" y="650" type="curve"/>
      <point x="575" y="652" type="line"/>
      <point x="554" y="675"/>
      <point x="533" y="690"/>
      <point x="496" y="690" type="curve" smooth="yes"/>
      <point x="453" y="690"/>
      <point x="429" y="668"/>
      <point x="403" y="613" type="curve" smooth="yes"/>
      <point x="240" y="273" type="line"/>
      <point x="27" y="680" type="line"/>
      <point x="25" y="680" type="line"/>
      <point x="239" y="271" type="line"/>
      <point x="239" y="0" type="line"/>
    </contour>
    <contour>
      <point x="15" y="680" type="move" name="topleft"/>
    </contour>
  </outline>
</glyph>
<glyph name="uni01B4" format="1">
  <advance width="444"/>
  <unicode hex="01B4"/>
  <outline>
    <contour>
      <point x="165" y="-159"/>
      <point x="187" y="-112"/>
      <point x="226" y="0" type="curve"/>
      <point x="388" y="492" type="line" smooth="yes"/>
      <point x="403" y="539"/>
      <point x="418" y="563"/>
      <point x="458" y="563" type="curve" smooth="yes"/>
      <point x="471" y="563"/>
      <point x="484" y="560"/>
      <point x="496" y="555" type="curve"/>
      <point x="496" y="557" type="line"/>
      <point x="484" y="562"/>
      <point x="471" y="565"/>
      <point x="458" y="565" type="curve" smooth="yes"/>
      <point x="417" y="565"/>
      <point x="402" y="541"/>
      <point x="386" y="492" type="curve" smooth="yes"/>
      <point x="224" y="0" type="line"/>
      <point x="32" y="517" type="line"/>
      <point x="30" y="517" type="line"/>
      <point x="222" y="0" type="line"/>
      <point x="224" y="0" type="line"/>
      <point x="185" y="-112"/>
      <point x="163" y="-157"/>
      <point x="61" y="-187" type="curve"/>
      <point x="61" y="-189" type="line"/>
    </contour>
  </outline>
</glyph>
<glyph name="uni01B5" format="1">
  <advance width="504"/>
  <unicode hex="01B5"/>
  <outline>
    <contour>
      <point x="82" y="680" type="line"/>
      <point x="82" y="678" type="line"/>
      <point x="451" y="678" type="line"/>
      <point x="45" y="2" type="line"/>
      <point x="45" y="0" type="line"/>
      <point x="437" y="0" type="line"/>
      <point x="437" y="2" type="line"/>
      <point x="48" y="2" type="line"/>
      <point x="454" y="678" type="line"/>
      <point x="454" y="680" type="line"/>
    </contour>
    <component base="hyphen" xOffset="32" yOffset="30" xScale="1.1"/>
  </outline>
</glyph>
<glyph name="uni01B6" format="1">
  <advance width="410"/>
  <unicode hex="01B6"/>
  <outline>
    <contour>
      <point x="66" y="517" type="line"/>
      <point x="66" y="515" type="line"/>
      <point x="367" y="515" type="line"/>
      <point x="35" y="2" type="line"/>
      <point x="35" y="0" type="line"/>
      <point x="359" y="0" type="line"/>
      <point x="359" y="2" type="line"/>
      <point x="38" y="2" type="line"/>
      <point x="370" y="515" type="line"/>
      <point x="370" y="517" type="line"/>
    </contour>
    <component base="hyphen" xOffset="10" yOffset="-45"/>
  </outline>
</glyph>
<glyph name="uni01B7" format="1">
  <advance width="464"/>
  <unicode hex="01B7"/>
  <outline>
    <contour>
      <point x="344" y="-9"/>
      <point x="414" y="68"/>
      <point x="414" y="179" type="curve" smooth="yes"/>
      <point x="414" y="299"/>
      <point x="341" y="363"/>
      <point x="202" y="363" type="curve"/>
      <point x="133" y="363" type="line"/>
      <point x="131" y="361" type="line"/>
      <point x="202" y="361" type="line" smooth="yes"/>
      <point x="339" y="361"/>
      <point x="412" y="298"/>
      <point x="412" y="179" type="curve" smooth="yes"/>
      <point x="412" y="70"/>
      <point x="343" y="-7"/>
      <point x="217" y="-7" type="curve" smooth="yes"/>
      <point x="129" y="-7"/>
      <point x="77" y="22"/>
      <point x="32" y="70" type="curve"/>
      <point x="30" y="69" type="line"/>
      <point x="75" y="21"/>
      <point x="128" y="-9"/>
      <point x="217" y="-9" type="curve" smooth="yes"/>
    </contour>
    <contour>
      <point x="131" y="361" type="line"/>
      <point x="134" y="363" type="line"/>
      <point x="386" y="678" type="line"/>
      <point x="386" y="680" type="line"/>
      <point x="37" y="680" type="line"/>
      <point x="37" y="678" type="line"/>
      <point x="383" y="678" type="line"/>
      <point x="131" y="363" type="line"/>
    </contour>
    <contour>
      <point x="211" y="680" type="move" name="top"/>
    </contour>
    <contour>
      <point x="232" y="0" type="move" name="bottom"/>
    </contour>
  </outline>
</glyph>
<glyph name="uni01B8" format="1">
  <advance width="464"/>
  <unicode hex="01B8"/>
  <outline>
    <contour>
      <point x="336" y="-9"/>
      <point x="389" y="21"/>
      <point x="434" y="69" type="curve"/>
      <point x="432" y="70" type="line"/>
      <point x="387" y="22"/>
      <point x="335" y="-7"/>
      <point x="240" y="-7" type="curve" smooth="yes"/>
      <point x="124" y="-7"/>
      <point x="52" y="65"/>
      <point x="52" y="174" type="curve" smooth="yes"/>
      <point x="52" y="288"/>
      <point x="125" y="361"/>
      <point x="262" y="361" type="curve" smooth="yes"/>
      <point x="333" y="361" type="line"/>
      <point x="331" y="363" type="line"/>
      <point x="262" y="363" type="line"/>
      <point x="123" y="363"/>
      <point x="50" y="289"/>
      <point x="50" y="174" type="curve" smooth="yes"/>
      <point x="50" y="63"/>
      <point x="123" y="-9"/>
      <point x="240" y="-9" type="curve" smooth="yes"/>
    </contour>
    <contour>
      <point x="81" y="678" type="line"/>
      <point x="427" y="678" type="line"/>
      <point x="427" y="680" type="line"/>
      <point x="78" y="680" type="line"/>
      <point x="78" y="678" type="line"/>
      <point x="330" y="363" type="line"/>
      <point x="333" y="361" type="line"/>
      <point x="333" y="363" type="line"/>
    </contour>
  </outline>
</glyph>
<glyph name="uni01B9" format="1">
  <advance width="438"/>
  <unicode hex="01B9"/>
  <outline>
    <contour>
      <point x="310" y="-192"/>
      <point x="363" y="-162"/>
      <point x="408" y="-114" type="curve"/>
      <point x="406" y="-113" type="line"/>
      <point x="361" y="-161"/>
      <point x="309" y="-190"/>
      <point x="224" y="-190" type="curve" smooth="yes"/>
      <point x="113" y="-190"/>
      <point x="42" y="-113"/>
      <point x="42" y="-4" type="curve" smooth="yes"/>
      <point x="42" y="116"/>
      <point x="114" y="188"/>
      <point x="252" y="188" type="curve" smooth="yes"/>
      <point x="302" y="188" type="line"/>
      <point x="300" y="190" type="line"/>
      <point x="252" y="190" type="line"/>
      <point x="113" y="190"/>
      <point x="40" y="117"/>
      <point x="40" y="-4" type="curve" smooth="yes"/>
      <point x="40" y="-115"/>
      <point x="112" y="-192"/>
      <point x="224" y="-192" type="curve" smooth="yes"/>
    </contour>
    <contour>
      <point x="72" y="515" type="line"/>
      <point x="392" y="515" type="line"/>
      <point x="392" y="517" type="line"/>
      <point x="69" y="517" type="line"/>
      <point x="69" y="515" type="line"/>
      <point x="299" y="190" type="line"/>
      <point x="302" y="188" type="line"/>
      <point x="302" y="190" type="line"/>
    </contour>
  </outline>
</glyph>
<glyph name="uni01BA" format="1">
  <advance width="442"/>
  <unicode hex="01BA"/>
  <outline>
    <contour>
      <point x="154" y="-188" type="line"/>
      <point x="88" y="-173"/>
      <point x="53" y="-143"/>
      <point x="53" y="-98" type="curve" smooth="yes"/>
      <point x="53" y="-46"/>
      <point x="93" y="-16"/>
      <point x="216" y="-6" type="curve" smooth="yes"/>
      <point x="347" y="5"/>
      <point x="392" y="52"/>
      <point x="392" y="138" type="curve" smooth="yes"/>
      <point x="392" y="228"/>
      <point x="336" y="263"/>
      <point x="236" y="263" type="curve" smooth="yes"/>
      <point x="121" y="263" type="line"/>
      <point x="363" y="515" type="line"/>
      <point x="363" y="517" type="line"/>
      <point x="50" y="517" type="line"/>
      <point x="50" y="515" type="line"/>
      <point x="360" y="515" type="line"/>
      <point x="118" y="263" type="line"/>
      <point x="118" y="261" type="line"/>
      <point x="236" y="261" type="line" smooth="yes"/>
      <point x="335" y="261"/>
      <point x="390" y="227"/>
      <point x="390" y="138" type="curve" smooth="yes"/>
      <point x="390" y="53"/>
      <point x="346" y="7"/>
      <point x="216" y="-4" type="curve" smooth="yes"/>
      <point x="91" y="-15"/>
      <point x="51" y="-45"/>
      <point x="51" y="-98" type="curve" smooth="yes"/>
      <point x="51" y="-143"/>
      <point x="86" y="-174"/>
      <point x="153" y="-190" type="curve"/>
    </contour>
    <contour>
      <point x="207" y="517" type="move" name="top"/>
    </contour>
  </outline>
</glyph>
<glyph name="uni01BD" format="1">
  <advance width="421"/>
  <unicode hex="01BD"/>
  <outline>
    <contour>
      <point x="95" y="517" type="line"/>
      <point x="95" y="281" type="line"/>
      <point x="97" y="281" type="line"/>
      <point x="130" y="304"/>
      <point x="162" y="318"/>
      <point x="213" y="318" type="curve" smooth="yes"/>
      <point x="300" y="318"/>
      <point x="349" y="260"/>
      <point x="349" y="166" type="curve" smooth="yes"/>
      <point x="349" y="64"/>
      <point x="297" y="-7"/>
      <point x="194" y="-7" type="curve" smooth="yes"/>
      <point x="140" y="-7"/>
      <point x="93" y="15"/>
      <point x="62" y="49" type="curve"/>
      <point x="60" y="48" type="line"/>
      <point x="93" y="13"/>
      <point x="139" y="-9"/>
      <point x="194" y="-9" type="curve" smooth="yes"/>
      <point x="298" y="-9"/>
      <point x="351" y="63"/>
      <point x="351" y="166" type="curve" smooth="yes"/>
      <point x="351" y="261"/>
      <point x="301" y="320"/>
      <point x="213" y="320" type="curve" smooth="yes"/>
      <point x="161" y="320"/>
      <point x="129" y="305"/>
      <point x="97" y="283" type="curve"/>
      <point x="97" y="515" type="line"/>
      <point x="335" y="515" type="line"/>
      <point x="335" y="517" type="line"/>
    </contour>
    <contour>
      <point x="211" y="517" type="move" name="top"/>
    </contour>
    <contour>
      <point x="211" y="0" type="move" name="bottom"/>
    </contour>
  </outline>
</glyph>
<glyph name="uni01BF" format="1">
  <advance width="562"/>
  <unicode hex="01BF"/>
  <outline>
    <contour>
      <point x="125" y="517" type="line"/>
      <point x="125" y="-190" type="line"/>
      <point x="127" y="-190" type="line"/>
      <point x="127" y="419" type="line"/>
      <point x="127" y="421" type="line"/>
      <point x="127" y="517" type="line"/>
    </contour>
    <contour>
      <point x="126" y="418" type="line"/>
      <point x="175" y="482"/>
      <point x="229" y="525"/>
      <point x="317" y="525" type="curve" smooth="yes"/>
      <point x="415" y="525"/>
      <point x="480" y="458"/>
      <point x="480" y="353" type="curve" smooth="yes"/>
      <point x="480" y="213"/>
      <point x="389" y="121"/>
      <point x="196" y="24" type="curve" smooth="yes"/>
      <point x="126" y="-12" type="line"/>
      <point x="126" y="-14" type="line"/>
      <point x="196" y="22" type="line" smooth="yes"/>
      <point x="391" y="120"/>
      <point x="482" y="212"/>
      <point x="482" y="353" type="curve" smooth="yes"/>
      <point x="482" y="459"/>
      <point x="416" y="527"/>
      <point x="317" y="527" type="curve" smooth="yes"/>
      <point x="228" y="527"/>
      <point x="173" y="483"/>
      <point x="126" y="421" type="curve"/>
    </contour>
  </outline>
</glyph>
<glyph name="uni01C0" format="1">
  <advance width="262"/>
  <unicode hex="01C0"/>
  <outline>
    <contour>
      <point x="130" y="730" type="line"/>
      <point x="130" y="0" type="line"/>
      <point x="132" y="0" type="line"/>
      <point x="132" y="730" type="line"/>
    </contour>
  </outline>
</glyph>
<glyph name="uni01C3" format="1">
  <advance width="274"/>
  <unicode hex="01C3"/>
  <outline>
    <contour>
      <point x="136" y="730" type="line"/>
      <point x="136" y="188" type="line"/>
      <point x="138" y="188" type="line"/>
      <point x="138" y="730" type="line"/>
    </contour>
    <contour>
      <point x="133" y="11"/>
      <point x="130" y="8"/>
      <point x="130" y="4" type="curve" smooth="yes"/>
      <point x="130" y="0"/>
      <point x="133" y="-3"/>
      <point x="137" y="-3" type="curve" smooth="yes"/>
      <point x="141" y="-3"/>
      <point x="144" y="0"/>
      <point x="144" y="4" type="curve" smooth="yes"/>
      <point x="144" y="8"/>
      <point x="141" y="11"/>
      <point x="137" y="11" type="curve" smooth="yes"/>
    </contour>
  </outline>
</glyph>
<glyph name="uni01E4" format="1">
  <advance width="611"/>
  <unicode hex="01E4"/>
  <outline>
    <contour>
      <point x="217" y="690"/>
      <point x="85" y="582"/>
      <point x="85" y="345" type="curve" smooth="yes"/>
      <point x="85" y="114"/>
      <point x="190" y="-9"/>
      <point x="353" y="-9" type="curve" smooth="yes"/>
      <point x="423" y="-9"/>
      <point x="479" y="15"/>
      <point x="519" y="39" type="curve"/>
      <point x="519" y="342" type="line"/>
      <point x="366" y="342" type="line"/>
      <point x="366" y="340" type="line"/>
      <point x="517" y="340" type="line"/>
      <point x="517" y="40" type="line"/>
      <point x="479" y="17"/>
      <point x="424" y="-7"/>
      <point x="353" y="-7" type="curve" smooth="yes"/>
      <point x="190" y="-7"/>
      <point x="87" y="116"/>
      <point x="87" y="345" type="curve" smooth="yes"/>
      <point x="87" y="580"/>
      <point x="218" y="688"/>
      <point x="343" y="688" type="curve" smooth="yes"/>
      <point x="404" y="688"/>
      <point x="452" y="669"/>
      <point x="499" y="633" type="curve"/>
      <point x="500" y="635" type="line"/>
      <point x="452" y="671"/>
      <point x="405" y="690"/>
      <point x="343" y="690" type="curve" smooth="yes"/>
    </contour>
    <component base="hyphen" xOffset="281" yOffset="-90"/>
  </outline>
</glyph>
<glyph name="uni01E5" format="1">
  <advance width="487"/>
  <unicode hex="01E5"/>
  <outline>
    <contour>
      <point x="424" y="534"/>
      <point x="397" y="527"/>
      <point x="241" y="527" type="curve" smooth="yes"/>
      <point x="145" y="527"/>
      <point x="75" y="460"/>
      <point x="75" y="357" type="curve" smooth="yes"/>
      <point x="75" y="286"/>
      <point x="112" y="241"/>
      <point x="162" y="215" type="curve"/>
      <point x="132" y="195"/>
      <point x="106" y="168"/>
      <point x="106" y="128" type="curve" smooth="yes"/>
      <point x="106" y="82"/>
      <point x="143" y="54"/>
      <point x="217" y="54" type="curve" smooth="yes"/>
      <point x="308" y="54" type="line" smooth="yes"/>
      <point x="397" y="54"/>
      <point x="450" y="10"/>
      <point x="450" y="-59" type="curve" smooth="yes"/>
      <point x="450" y="-145"/>
      <point x="385" y="-190"/>
      <point x="252" y="-190" type="curve" smooth="yes"/>
      <point x="117" y="-190"/>
      <point x="57" y="-157"/>
      <point x="57" y="-60" type="curve"/>
      <point x="55" y="-60" type="line"/>
      <point x="55" y="-158"/>
      <point x="115" y="-192"/>
      <point x="252" y="-192" type="curve" smooth="yes"/>
      <point x="387" y="-192"/>
      <point x="452" y="-146"/>
      <point x="452" y="-59" type="curve" smooth="yes"/>
      <point x="452" y="10"/>
      <point x="400" y="56"/>
      <point x="308" y="56" type="curve" smooth="yes"/>
      <point x="217" y="56" type="line" smooth="yes"/>
      <point x="144" y="56"/>
      <point x="108" y="83"/>
      <point x="108" y="128" type="curve" smooth="yes"/>
      <point x="108" y="165"/>
      <point x="132" y="194"/>
      <point x="164" y="214" type="curve"/>
      <point x="189" y="202"/>
      <point x="217" y="194"/>
      <point x="249" y="194" type="curve" smooth="yes"/>
      <point x="351" y="194"/>
      <point x="419" y="252"/>
      <point x="419" y="356" type="curve" smooth="yes"/>
      <point x="419" y="445"/>
      <point x="371" y="513"/>
      <point x="272" y="525" type="curve"/>
      <point x="378" y="525"/>
      <point x="428" y="532"/>
      <point x="462" y="542" type="curve"/>
      <point x="462" y="544" type="line"/>
    </contour>
    <contour>
      <point x="329" y="525"/>
      <point x="417" y="481"/>
      <point x="417" y="356" type="curve" smooth="yes"/>
      <point x="417" y="253"/>
      <point x="349" y="196"/>
      <point x="249" y="196" type="curve" smooth="yes"/>
      <point x="167" y="196"/>
      <point x="77" y="250"/>
      <point x="77" y="357" type="curve" smooth="yes"/>
      <point x="77" y="455"/>
      <point x="143" y="525"/>
      <point x="241" y="525" type="curve" smooth="yes"/>
    </contour>
    <component base="hyphen" xOffset="220" yOffset="-371"/>
    <contour>
      <point x="244" y="517" type="move" name="top"/>
    </contour>
    <contour>
      <point x="244" y="-188" type="move" name="bottom"/>
    </contour>
  </outline>
</glyph>
<glyph name="uni01F6" format="1">
  <advance width="955"/>
  <unicode hex="01F6"/>
  <outline>
    <contour>
      <point x="132" y="0" type="line"/>
      <point x="132" y="360" type="line"/>
      <point x="522" y="360" type="line"/>
      <point x="522" y="185" type="line"/>
      <point x="524" y="185" type="line"/>
      <point x="524" y="680" type="line"/>
      <point x="522" y="680" type="line"/>
      <point x="522" y="362" type="line"/>
      <point x="132" y="362" type="line"/>
      <point x="132" y="680" type="line"/>
      <point x="130" y="680" type="line"/>
      <point x="130" y="0" type="line"/>
    </contour>
    <contour>
      <point x="775" y="-9"/>
      <point x="855" y="71"/>
      <point x="855" y="268" type="curve" smooth="yes"/>
      <point x="855" y="362"/>
      <point x="841" y="448"/>
      <point x="828" y="517" type="curve"/>
      <point x="826" y="517" type="line"/>
      <point x="839" y="448"/>
      <point x="853" y="362"/>
      <point x="853" y="268" type="curve" smooth="yes"/>
      <point x="853" y="72"/>
      <point x="774" y="-7"/>
      <point x="669" y="-7" type="curve" smooth="yes"/>
      <point x="587" y="-7"/>
      <point x="524" y="47"/>
      <point x="524" y="153" type="curve" smooth="yes"/>
      <point x="524" y="517" type="line"/>
      <point x="522" y="517" type="line"/>
      <point x="522" y="153" type="line" smooth="yes"/>
      <point x="522" y="45"/>
      <point x="586" y="-9"/>
      <point x="669" y="-9" type="curve" smooth="yes"/>
    </contour>
  </outline>
</glyph>
<glyph name="uni01F7" format="1">
  <advance width="552"/>
  <unicode hex="01F7"/>
  <outline>
    <contour>
      <point x="131" y="597" type="line"/>
      <point x="174" y="645"/>
      <point x="229" y="688"/>
      <point x="317" y="688" type="curve" smooth="yes"/>
      <point x="417" y="688"/>
      <point x="485" y="621"/>
      <point x="485" y="515" type="curve" smooth="yes"/>
      <point x="485" y="377"/>
      <point x="386" y="319"/>
      <point x="249" y="273" type="curve" smooth="yes"/>
      <point x="131" y="233" type="line"/>
      <point x="131" y="231" type="line"/>
      <point x="249" y="271" type="line" smooth="yes"/>
      <point x="388" y="318"/>
      <point x="487" y="376"/>
      <point x="487" y="515" type="curve" smooth="yes"/>
      <point x="487" y="622"/>
      <point x="418" y="690"/>
      <point x="317" y="690" type="curve" smooth="yes"/>
      <point x="228" y="690"/>
      <point x="172" y="646"/>
      <point x="131" y="600" type="curve"/>
    </contour>
    <contour>
      <point x="130" y="680" type="line"/>
      <point x="130" y="0" type="line"/>
      <point x="132" y="0" type="line"/>
      <point x="132" y="680" type="line"/>
    </contour>
  </outline>
</glyph>
<glyph name="uni021C" format="1">
  <advance width="482"/>
  <unicode hex="021C"/>
  <outline>
    <contour>
      <point x="148" y="690"/>
      <point x="93" y="660"/>
      <point x="40" y="605" type="curve"/>
      <point x="41" y="603" type="line"/>
      <point x="95" y="658"/>
      <point x="148" y="688"/>
      <point x="228" y="688" type="curve"/>
      <point x="334" y="688"/>
      <point x="393" y="619"/>
      <point x="393" y="526" type="curve"/>
      <point x="393" y="418"/>
      <point x="317" y="363"/>
      <point x="220" y="363" type="curve" smooth="yes"/>
      <point x="166" y="363" type="line"/>
      <point x="166" y="361" type="line"/>
      <point x="223" y="361" type="line" smooth="yes"/>
      <point x="337" y="361"/>
      <point x="415" y="305"/>
      <point x="415" y="205" type="curve" smooth="yes"/>
      <point x="415" y="80"/>
      <point x="334" y="-7"/>
      <point x="67" y="-77" type="curve"/>
      <point x="67" y="-79" type="line"/>
      <point x="335" y="-9"/>
      <point x="417" y="78"/>
      <point x="417" y="205" type="curve" smooth="yes"/>
      <point x="417" y="307"/>
      <point x="339" y="358"/>
      <point x="238" y="362" type="curve"/>
      <point x="319" y="367"/>
      <point x="395" y="416"/>
      <point x="395" y="526" type="curve"/>
      <point x="395" y="621"/>
      <point x="335" y="690"/>
      <point x="228" y="690" type="curve"/>
    </contour>
  </outline>
</glyph>
<glyph name="uni021D" format="1">
  <advance width="449"/>
  <unicode hex="021D"/>
  <outline>
    <contour>
      <point x="133" y="527"/>
      <point x="87" y="507"/>
      <point x="40" y="476" type="curve"/>
      <point x="41" y="474" type="line"/>
      <point x="88" y="505"/>
      <point x="133" y="525"/>
      <point x="201" y="525" type="curve"/>
      <point x="293" y="525"/>
      <point x="344" y="472"/>
      <point x="344" y="394" type="curve"/>
      <point x="344" y="320"/>
      <point x="309" y="266"/>
      <point x="196" y="266" type="curve" smooth="yes"/>
      <point x="146" y="266" type="line"/>
      <point x="146" y="264" type="line"/>
      <point x="196" y="264" type="line" smooth="yes"/>
      <point x="319" y="264"/>
      <point x="367" y="219"/>
      <point x="367" y="149" type="curve" smooth="yes"/>
      <point x="367" y="48"/>
      <point x="295" y="-27"/>
      <point x="71" y="-77" type="curve"/>
      <point x="71" y="-79" type="line"/>
      <point x="296" y="-29"/>
      <point x="369" y="47"/>
      <point x="369" y="149" type="curve" smooth="yes"/>
      <point x="369" y="223"/>
      <point x="316" y="260"/>
      <point x="220" y="265" type="curve"/>
      <point x="308" y="272"/>
      <point x="346" y="317"/>
      <point x="346" y="394" type="curve"/>
      <point x="346" y="474"/>
      <point x="293" y="527"/>
      <point x="201" y="527" type="curve"/>
    </contour>
  </outline>
</glyph>
<glyph name="uni0220" format="1">
  <advance width="640"/>
  <unicode hex="0220"/>
  <outline>
    <contour>
      <point x="263" y="690"/>
      <point x="199" y="638"/>
      <point x="131" y="552" type="curve"/>
      <point x="132" y="550" type="line"/>
      <point x="200" y="636"/>
      <point x="264" y="688"/>
      <point x="361" y="688" type="curve" smooth="yes"/>
      <point x="455" y="688"/>
      <point x="513" y="629"/>
      <point x="513" y="511" type="curve" smooth="yes"/>
      <point x="513" y="-188" type="line"/>
      <point x="515" y="-188" type="line"/>
      <point x="515" y="511" type="line" smooth="yes"/>
      <point x="515" y="630"/>
      <point x="456" y="690"/>
      <point x="361" y="690" type="curve" smooth="yes"/>
    </contour>
    <contour>
      <point x="130" y="680" type="line"/>
      <point x="130" y="0" type="line"/>
      <point x="132" y="0" type="line"/>
      <point x="132" y="552" type="line"/>
      <point x="132" y="680" type="line"/>
    </contour>
  </outline>
</glyph>
<glyph name="uni0221" format="1">
  <advance width="650"/>
  <unicode hex="0221"/>
  <outline>
    <contour>
      <point x="364" y="-9"/>
      <point x="412" y="40"/>
      <point x="446" y="102" type="curve"/>
      <point x="446" y="106" type="line"/>
      <point x="411" y="42"/>
      <point x="364" y="-7"/>
      <point x="273" y="-7" type="curve" smooth="yes"/>
      <point x="160" y="-7"/>
      <point x="87" y="89"/>
      <point x="87" y="257" type="curve" smooth="yes"/>
      <point x="87" y="415"/>
      <point x="158" y="525"/>
      <point x="281" y="525" type="curve" smooth="yes"/>
      <point x="367" y="525"/>
      <point x="420" y="471"/>
      <point x="446" y="419" type="curve"/>
      <point x="446" y="422" type="line"/>
      <point x="422" y="472"/>
      <point x="368" y="527"/>
      <point x="281" y="527" type="curve" smooth="yes"/>
      <point x="156" y="527"/>
      <point x="85" y="417"/>
      <point x="85" y="257" type="curve" smooth="yes"/>
      <point x="85" y="87"/>
      <point x="159" y="-9"/>
      <point x="273" y="-9" type="curve" smooth="yes"/>
    </contour>
    <contour>
      <point x="456" y="43" type="line"/>
      <point x="457" y="45" type="line"/>
      <point x="494" y="122"/>
      <point x="537" y="174"/>
      <point x="607" y="174" type="curve" smooth="yes"/>
      <point x="658" y="174"/>
      <point x="688" y="141"/>
      <point x="688" y="96" type="curve" smooth="yes"/>
      <point x="688" y="35"/>
      <point x="634" y="-7"/>
      <point x="556" y="-7" type="curve"/>
      <point x="492" y="-7"/>
      <point x="447" y="24"/>
      <point x="447" y="94" type="curve"/>
      <point x="445" y="94" type="line"/>
      <point x="445" y="23"/>
      <point x="491" y="-9"/>
      <point x="556" y="-9" type="curve"/>
      <point x="635" y="-9"/>
      <point x="690" y="34"/>
      <point x="690" y="96" type="curve" smooth="yes"/>
      <point x="690" y="142"/>
      <point x="659" y="176"/>
      <point x="607" y="176" type="curve" smooth="yes"/>
      <point x="536" y="176"/>
      <point x="493" y="124"/>
      <point x="456" y="47" type="curve"/>
      <point x="455" y="45" type="line"/>
      <point x="409" y="-49" type="line"/>
      <point x="411" y="-49" type="line"/>
    </contour>
    <contour>
      <point x="447" y="730" type="line"/>
      <point x="445" y="730" type="line"/>
      <point x="445" y="94" type="line"/>
      <point x="447" y="94" type="line"/>
    </contour>
  </outline>
</glyph>
<glyph name="uni0222" format="1">
  <advance width="627"/>
  <unicode hex="0222"/>
  <outline>
    <contour>
      <point x="173" y="386"/>
      <point x="85" y="292"/>
      <point x="85" y="185" type="curve" smooth="yes"/>
      <point x="85" y="84"/>
      <point x="169" y="-9"/>
      <point x="313" y="-9" type="curve" smooth="yes"/>
      <point x="460" y="-9"/>
      <point x="542" y="85"/>
      <point x="542" y="189" type="curve" smooth="yes"/>
      <point x="542" y="298"/>
      <point x="459" y="386"/>
      <point x="313" y="386" type="curve" smooth="yes"/>
    </contour>
    <contour>
      <point x="458" y="384"/>
      <point x="540" y="296"/>
      <point x="540" y="189" type="curve" smooth="yes"/>
      <point x="540" y="87"/>
      <point x="459" y="-7"/>
      <point x="313" y="-7" type="curve" smooth="yes"/>
      <point x="170" y="-7"/>
      <point x="87" y="86"/>
      <point x="87" y="185" type="curve" smooth="yes"/>
      <point x="87" y="290"/>
      <point x="174" y="384"/>
      <point x="313" y="384" type="curve" smooth="yes"/>
    </contour>
    <contour>
      <point x="489" y="680" type="line"/>
      <point x="489" y="559" type="line" smooth="yes"/>
      <point x="489" y="469"/>
      <point x="452" y="386"/>
      <point x="314" y="386" type="curve" smooth="yes"/>
      <point x="175" y="386"/>
      <point x="139" y="467"/>
      <point x="139" y="559" type="curve" smooth="yes"/>
      <point x="139" y="680" type="line"/>
      <point x="137" y="680" type="line"/>
      <point x="137" y="559" type="line" smooth="yes"/>
      <point x="137" y="468"/>
      <point x="173" y="384"/>
      <point x="314" y="384" type="curve" smooth="yes"/>
      <point x="453" y="384"/>
      <point x="491" y="466"/>
      <point x="491" y="559" type="curve" smooth="yes"/>
      <point x="491" y="680" type="line"/>
    </contour>
    <contour>
      <point x="314" y="680" type="move" name="top"/>
    </contour>
    <contour>
      <point x="314" y="0" type="move" name="bottom"/>
    </contour>
  </outline>
</glyph>
<glyph name="uni0223" format="1">
  <advance width="551"/>
  <unicode hex="0223"/>
  <outline>
    <contour>
      <point x="158" y="412"/>
      <point x="80" y="321"/>
      <point x="80" y="198" type="curve" smooth="yes"/>
      <point x="80" y="87"/>
      <point x="154" y="-9"/>
      <point x="275" y="-9" type="curve" smooth="yes"/>
      <point x="399" y="-9"/>
      <point x="471" y="88"/>
      <point x="471" y="202" type="curve" smooth="yes"/>
      <point x="471" y="327"/>
      <point x="398" y="412"/>
      <point x="275" y="412" type="curve" smooth="yes"/>
    </contour>
    <contour>
      <point x="397" y="410"/>
      <point x="469" y="325"/>
      <point x="469" y="202" type="curve" smooth="yes"/>
      <point x="469" y="90"/>
      <point x="398" y="-7"/>
      <point x="275" y="-7" type="curve" smooth="yes"/>
      <point x="155" y="-7"/>
      <point x="82" y="89"/>
      <point x="82" y="198" type="curve" smooth="yes"/>
      <point x="82" y="319"/>
      <point x="159" y="410"/>
      <point x="275" y="410" type="curve" smooth="yes"/>
    </contour>
    <contour>
      <point x="430" y="727" type="line"/>
      <point x="430" y="585" type="line" smooth="yes"/>
      <point x="430" y="483"/>
      <point x="391" y="412"/>
      <point x="276" y="412" type="curve" smooth="yes"/>
      <point x="160" y="412"/>
      <point x="122" y="483"/>
      <point x="122" y="585" type="curve" smooth="yes"/>
      <point x="122" y="727" type="line"/>
      <point x="120" y="727" type="line"/>
      <point x="120" y="585" type="line" smooth="yes"/>
      <point x="120" y="482"/>
      <point x="158" y="410"/>
      <point x="276" y="410" type="curve" smooth="yes"/>
      <point x="392" y="410"/>
      <point x="432" y="482"/>
      <point x="432" y="585" type="curve" smooth="yes"/>
      <point x="432" y="727" type="line"/>
    </contour>
  </outline>
</glyph>
<glyph name="uni0224" format="1">
  <advance width="504"/>
  <unicode hex="0224"/>
  <outline>
    <contour>
      <point x="82" y="680" type="line"/>
      <point x="82" y="678" type="line"/>
      <point x="451" y="678" type="line"/>
      <point x="45" y="2" type="line"/>
      <point x="45" y="0" type="line"/>
      <point x="437" y="0" type="line"/>
      <point x="437" y="2" type="line"/>
      <point x="48" y="2" type="line"/>
      <point x="454" y="678" type="line"/>
      <point x="454" y="680" type="line"/>
    </contour>
    <contour>
      <point x="403" y="-192"/>
      <point x="437" y="-159"/>
      <point x="437" y="-97" type="curve" smooth="yes"/>
      <point x="437" y="1" type="line"/>
      <point x="435" y="1" type="line"/>
      <point x="435" y="-97" type="line" smooth="yes"/>
      <point x="435" y="-158"/>
      <point x="402" y="-190"/>
      <point x="353" y="-190" type="curve" smooth="yes"/>
      <point x="316" y="-190"/>
      <point x="294" y="-178"/>
      <point x="275" y="-162" type="curve"/>
      <point x="274" y="-164" type="line"/>
      <point x="292" y="-179"/>
      <point x="315" y="-192"/>
      <point x="353" y="-192" type="curve" smooth="yes"/>
    </contour>
  </outline>
</glyph>
<glyph name="uni0225" format="1">
  <advance width="410"/>
  <unicode hex="0225"/>
  <outline>
    <contour>
      <point x="66" y="517" type="line"/>
      <point x="66" y="515" type="line"/>
      <point x="367" y="515" type="line"/>
      <point x="35" y="2" type="line"/>
      <point x="35" y="0" type="line"/>
      <point x="359" y="0" type="line"/>
      <point x="359" y="2" type="line"/>
      <point x="38" y="2" type="line"/>
      <point x="370" y="515" type="line"/>
      <point x="370" y="517" type="line"/>
    </contour>
    <contour>
      <point x="325" y="-192"/>
      <point x="359" y="-159"/>
      <point x="359" y="-97" type="curve" smooth="yes"/>
      <point x="359" y="1" type="line"/>
      <point x="357" y="1" type="line"/>
      <point x="357" y="-97" type="line" smooth="yes"/>
      <point x="357" y="-158"/>
      <point x="324" y="-190"/>
      <point x="275" y="-190" type="curve" smooth="yes"/>
      <point x="238" y="-190"/>
      <point x="216" y="-178"/>
      <point x="197" y="-162" type="curve"/>
      <point x="196" y="-164" type="line"/>
      <point x="214" y="-179"/>
      <point x="237" y="-192"/>
      <point x="275" y="-192" type="curve" smooth="yes"/>
    </contour>
  </outline>
</glyph>
<glyph name="uni0234" format="1">
  <advance width="325"/>
  <unicode hex="0234"/>
  <outline>
    <contour>
      <point x="122" y="94" type="line"/>
      <point x="122" y="730" type="line"/>
      <point x="120" y="730" type="line"/>
      <point x="120" y="94" type="line"/>
    </contour>
    <contour>
      <point x="131" y="43" type="line"/>
      <point x="132" y="45" type="line"/>
      <point x="169" y="122"/>
      <point x="212" y="174"/>
      <point x="282" y="174" type="curve" smooth="yes"/>
      <point x="333" y="174"/>
      <point x="363" y="141"/>
      <point x="363" y="96" type="curve" smooth="yes"/>
      <point x="363" y="35"/>
      <point x="309" y="-7"/>
      <point x="231" y="-7" type="curve"/>
      <point x="167" y="-7"/>
      <point x="122" y="24"/>
      <point x="122" y="94" type="curve"/>
      <point x="120" y="94" type="line"/>
      <point x="120" y="23"/>
      <point x="166" y="-9"/>
      <point x="231" y="-9" type="curve"/>
      <point x="310" y="-9"/>
      <point x="365" y="34"/>
      <point x="365" y="96" type="curve" smooth="yes"/>
      <point x="365" y="142"/>
      <point x="334" y="176"/>
      <point x="282" y="176" type="curve" smooth="yes"/>
      <point x="211" y="176"/>
      <point x="168" y="124"/>
      <point x="131" y="47" type="curve"/>
      <point x="130" y="45" type="line"/>
      <point x="84" y="-49" type="line"/>
      <point x="86" y="-49" type="line"/>
    </contour>
  </outline>
</glyph>
<glyph name="uni0235" format="1">
  <advance width="663"/>
  <unicode hex="0235"/>
  <outline>
    <contour>
      <point x="238" y="527"/>
      <point x="174" y="475"/>
      <point x="126" y="389" type="curve"/>
      <point x="127" y="387" type="line"/>
      <point x="175" y="473"/>
      <point x="239" y="525"/>
      <point x="326" y="525" type="curve" smooth="yes"/>
      <point x="420" y="525"/>
      <point x="458" y="466"/>
      <point x="458" y="368" type="curve" smooth="yes"/>
      <point x="458" y="94" type="line"/>
      <point x="460" y="94" type="line"/>
      <point x="460" y="368" type="line" smooth="yes"/>
      <point x="460" y="467"/>
      <point x="421" y="527"/>
      <point x="326" y="527" type="curve" smooth="yes"/>
    </contour>
    <contour>
      <point x="125" y="517" type="line"/>
      <point x="125" y="0" type="line"/>
      <point x="127" y="0" type="line"/>
      <point x="127" y="389" type="line"/>
      <point x="127" y="517" type="line"/>
    </contour>
    <contour>
      <point x="469" y="43" type="line"/>
      <point x="470" y="45" type="line"/>
      <point x="507" y="122"/>
      <point x="550" y="174"/>
      <point x="620" y="174" type="curve" smooth="yes"/>
      <point x="671" y="174"/>
      <point x="701" y="141"/>
      <point x="701" y="96" type="curve" smooth="yes"/>
      <point x="701" y="35"/>
      <point x="647" y="-7"/>
      <point x="569" y="-7" type="curve"/>
      <point x="505" y="-7"/>
      <point x="460" y="24"/>
      <point x="460" y="94" type="curve"/>
      <point x="458" y="94" type="line"/>
      <point x="458" y="23"/>
      <point x="504" y="-9"/>
      <point x="569" y="-9" type="curve"/>
      <point x="648" y="-9"/>
      <point x="703" y="34"/>
      <point x="703" y="96" type="curve" smooth="yes"/>
      <point x="703" y="142"/>
      <point x="672" y="176"/>
      <point x="620" y="176" type="curve" smooth="yes"/>
      <point x="549" y="176"/>
      <point x="506" y="124"/>
      <point x="469" y="47" type="curve"/>
      <point x="468" y="45" type="line"/>
      <point x="422" y="-49" type="line"/>
      <point x="424" y="-49" type="line"/>
    </contour>
  </outline>
</glyph>
<glyph name="uni0236" format="1">
  <advance width="322"/>
  <unicode hex="0236"/>
  <outline>
    <contour>
      <point x="117" y="651" type="line"/>
      <point x="117" y="114" type="line"/>
      <point x="119" y="114" type="line"/>
      <point x="119" y="651" type="line"/>
    </contour>
    <contour>
      <point x="30" y="517" type="line"/>
      <point x="30" y="515" type="line"/>
      <point x="265" y="515" type="line"/>
      <point x="265" y="517" type="line"/>
    </contour>
    <contour>
      <point x="130" y="46" type="line"/>
      <point x="131" y="48" type="line"/>
      <point x="167" y="126"/>
      <point x="209" y="174"/>
      <point x="279" y="174" type="curve" smooth="yes"/>
      <point x="330" y="174"/>
      <point x="360" y="141"/>
      <point x="360" y="96" type="curve" smooth="yes"/>
      <point x="360" y="35"/>
      <point x="306" y="-7"/>
      <point x="228" y="-7" type="curve"/>
      <point x="164" y="-7"/>
      <point x="119" y="24"/>
      <point x="119" y="114" type="curve"/>
      <point x="117" y="114" type="line"/>
      <point x="117" y="23"/>
      <point x="163" y="-9"/>
      <point x="228" y="-9" type="curve"/>
      <point x="307" y="-9"/>
      <point x="362" y="34"/>
      <point x="362" y="96" type="curve" smooth="yes"/>
      <point x="362" y="142"/>
      <point x="331" y="176"/>
      <point x="279" y="176" type="curve" smooth="yes"/>
      <point x="208" y="176"/>
      <point x="166" y="128"/>
      <point x="130" y="50" type="curve"/>
      <point x="129" y="48" type="line"/>
      <point x="81" y="-49" type="line"/>
      <point x="83" y="-49" type="line"/>
    </contour>
  </outline>
</glyph>
<glyph name="dotlessj" format="1">
  <advance width="252"/>
  <unicode hex="0237"/>
  <outline>
    <contour>
      <point x="125" y="517" type="line"/>
      <point x="125" y="1" type="line" smooth="yes"/>
      <point x="125" y="-117"/>
      <point x="96" y="-153"/>
      <point x="28" y="-189" type="curve"/>
      <point x="29" y="-191" type="line"/>
      <point x="98" y="-154"/>
      <point x="127" y="-118"/>
      <point x="127" y="1" type="curve" smooth="yes"/>
      <point x="127" y="517" type="line"/>
    </contour>
    <contour>
      <point x="126" y="517" type="move" name="top"/>
    </contour>
    <contour>
      <point x="126" y="-188" type="move" name="bottom"/>
    </contour>
  </outline>
</glyph>
<glyph name="uni0238" format="1">
  <advance width="847"/>
  <unicode hex="0238"/>
  <outline>
    <contour>
      <point x="344" y="-9"/>
      <point x="391" y="39"/>
      <point x="426" y="102" type="curve"/>
      <point x="426" y="106" type="line"/>
      <point x="391" y="42"/>
      <point x="344" y="-7"/>
      <point x="263" y="-7" type="curve" smooth="yes"/>
      <point x="160" y="-7"/>
      <point x="87" y="89"/>
      <point x="87" y="257" type="curve" smooth="yes"/>
      <point x="87" y="415"/>
      <point x="158" y="525"/>
      <point x="271" y="525" type="curve" smooth="yes"/>
      <point x="344" y="525"/>
      <point x="397" y="471"/>
      <point x="426" y="417" type="curve"/>
      <point x="426" y="420" type="line"/>
      <point x="399" y="472"/>
      <point x="345" y="527"/>
      <point x="271" y="527" type="curve" smooth="yes"/>
      <point x="156" y="527"/>
      <point x="85" y="417"/>
      <point x="85" y="257" type="curve" smooth="yes"/>
      <point x="85" y="87"/>
      <point x="159" y="-9"/>
      <point x="263" y="-9" type="curve" smooth="yes"/>
    </contour>
    <contour>
      <point x="427" y="0" type="line"/>
      <point x="427" y="101" type="line"/>
      <point x="427" y="730" type="line"/>
      <point x="425" y="730" type="line"/>
      <point x="425" y="101" type="line"/>
      <point x="425" y="0" type="line"/>
    </contour>
    <contour>
      <point x="700" y="-9"/>
      <point x="762" y="95"/>
      <point x="762" y="264" type="curve" smooth="yes"/>
      <point x="762" y="431"/>
      <point x="700" y="527"/>
      <point x="592" y="527" type="curve" smooth="yes"/>
      <point x="518" y="527"/>
      <point x="455" y="471"/>
      <point x="426" y="420" type="curve"/>
      <point x="426" y="417" type="line"/>
      <point x="458" y="472"/>
      <point x="520" y="525"/>
      <point x="592" y="525" type="curve" smooth="yes"/>
      <point x="700" y="525"/>
      <point x="760" y="429"/>
      <point x="760" y="264" type="curve" smooth="yes"/>
      <point x="760" y="97"/>
      <point x="699" y="-7"/>
      <point x="590" y="-7" type="curve" smooth="yes"/>
      <point x="521" y="-7"/>
      <point x="466" y="38"/>
      <point x="426" y="106" type="curve"/>
      <point x="426" y="102" type="line"/>
      <point x="466" y="36"/>
      <point x="520" y="-9"/>
      <point x="590" y="-9" type="curve" smooth="yes"/>
    </contour>
  </outline>
</glyph>
<glyph name="uni0239" format="1">
  <advance width="842"/>
  <unicode hex="0239"/>
  <outline>
    <contour>
      <point x="151" y="527"/>
      <point x="80" y="417"/>
      <point x="80" y="257" type="curve" smooth="yes"/>
      <point x="80" y="88"/>
      <point x="154" y="-9"/>
      <point x="257" y="-9" type="curve" smooth="yes"/>
      <point x="340" y="-9"/>
      <point x="388" y="41"/>
      <point x="421" y="102" type="curve"/>
      <point x="421" y="106" type="line"/>
      <point x="386" y="42"/>
      <point x="339" y="-7"/>
      <point x="257" y="-7" type="curve" smooth="yes"/>
      <point x="155" y="-7"/>
      <point x="82" y="89"/>
      <point x="82" y="257" type="curve" smooth="yes"/>
      <point x="82" y="415"/>
      <point x="153" y="525"/>
      <point x="268" y="525" type="curve" smooth="yes"/>
      <point x="344" y="525"/>
      <point x="386" y="480"/>
      <point x="421" y="417" type="curve"/>
      <point x="421" y="421" type="line"/>
      <point x="387" y="481"/>
      <point x="345" y="527"/>
      <point x="268" y="527" type="curve" smooth="yes"/>
    </contour>
    <contour>
      <point x="420" y="517" type="line"/>
      <point x="420" y="421" type="line"/>
      <point x="420" y="420" type="line"/>
      <point x="420" y="-190" type="line"/>
      <point x="422" y="-190" type="line"/>
      <point x="422" y="419" type="line"/>
      <point x="422" y="421" type="line"/>
      <point x="422" y="517" type="line"/>
    </contour>
    <contour>
      <point x="517" y="527"/>
      <point x="464" y="481"/>
      <point x="421" y="420" type="curve"/>
      <point x="421" y="417" type="line"/>
      <point x="467" y="482"/>
      <point x="519" y="525"/>
      <point x="590" y="525" type="curve" smooth="yes"/>
      <point x="695" y="525"/>
      <point x="755" y="429"/>
      <point x="755" y="264" type="curve" smooth="yes"/>
      <point x="755" y="97"/>
      <point x="694" y="-7"/>
      <point x="587" y="-7" type="curve" smooth="yes"/>
      <point x="518" y="-7"/>
      <point x="462" y="37"/>
      <point x="421" y="106" type="curve"/>
      <point x="421" y="102" type="line"/>
      <point x="461" y="36"/>
      <point x="517" y="-9"/>
      <point x="587" y="-9" type="curve" smooth="yes"/>
      <point x="695" y="-9"/>
      <point x="757" y="95"/>
      <point x="757" y="264" type="curve" smooth="yes"/>
      <point x="757" y="431"/>
      <point x="695" y="527"/>
      <point x="590" y="527" type="curve" smooth="yes"/>
    </contour>
  </outline>
</glyph>
<glyph name="uni023A" format="1">
  <advance width="556"/>
  <unicode hex="023A"/>
  <outline>
    <contour>
      <point x="177" y="-57" type="line"/>
      <point x="179" y="-57" type="line"/>
      <point x="385" y="728" type="line"/>
      <point x="383" y="728" type="line"/>
    </contour>
    <contour>
      <point x="276" y="680" type="line"/>
      <point x="35" y="0" type="line"/>
      <point x="37" y="0" type="line"/>
      <point x="277" y="678" type="line"/>
      <point x="519" y="0" type="line"/>
      <point x="521" y="0" type="line"/>
      <point x="278" y="680" type="line"/>
    </contour>
    <contour>
      <point x="112" y="215" type="line"/>
      <point x="112" y="213" type="line"/>
      <point x="443" y="213" type="line"/>
      <point x="443" y="215" type="line"/>
    </contour>
  </outline>
</glyph>
<glyph name="uni023B" format="1">
  <advance width="529"/>
  <unicode hex="023B"/>
  <outline>
    <contour>
      <point x="207" y="-57" type="line"/>
      <point x="209" y="-57" type="line"/>
      <point x="415" y="728" type="line"/>
      <point x="413" y="728" type="line"/>
    </contour>
    <component base="C"/>
  </outline>
</glyph>
<glyph name="uni023C" format="1">
  <advance width="469"/>
  <unicode hex="023C"/>
  <outline>
    <contour>
      <point x="172" y="-57" type="line"/>
      <point x="174" y="-57" type="line"/>
      <point x="349" y="580" type="line"/>
      <point x="347" y="580" type="line"/>
    </contour>
    <component base="c"/>
  </outline>
</glyph>
<glyph name="uni023E" format="1">
  <advance width="472"/>
  <unicode hex="023E"/>
  <outline>
    <contour>
      <point x="237" y="0" type="line"/>
      <point x="237" y="678" type="line"/>
      <point x="452" y="678" type="line"/>
      <point x="452" y="680" type="line"/>
      <point x="20" y="680" type="line"/>
      <point x="20" y="678" type="line"/>
      <point x="235" y="678" type="line"/>
      <point x="235" y="0" type="line"/>
    </contour>
    <contour>
      <point x="345" y="728" type="line"/>
      <point x="343" y="728" type="line"/>
      <point x="117" y="-57" type="line"/>
      <point x="119" y="-57" type="line"/>
    </contour>
  </outline>
</glyph>
<glyph name="uni023F" format="1">
  <advance width="457"/>
  <unicode hex="023F"/>
  <outline>
    <contour>
      <point x="318" y="-9"/>
      <point x="387" y="44"/>
      <point x="387" y="130" type="curve" smooth="yes"/>
      <point x="387" y="215"/>
      <point x="345" y="244"/>
      <point x="231" y="276" type="curve" smooth="yes"/>
      <point x="121" y="307"/>
      <point x="79" y="339"/>
      <point x="79" y="405" type="curve" smooth="yes"/>
      <point x="79" y="476"/>
      <point x="145" y="525"/>
      <point x="224" y="525" type="curve" smooth="yes"/>
      <point x="288" y="525"/>
      <point x="330" y="508"/>
      <point x="371" y="473" type="curve"/>
      <point x="372" y="475" type="line"/>
      <point x="332" y="509"/>
      <point x="289" y="527"/>
      <point x="224" y="527" type="curve" smooth="yes"/>
      <point x="143" y="527"/>
      <point x="77" y="477"/>
      <point x="77" y="405" type="curve" smooth="yes"/>
      <point x="77" y="337"/>
      <point x="120" y="305"/>
      <point x="230" y="274" type="curve" smooth="yes"/>
      <point x="342" y="242"/>
      <point x="385" y="215"/>
      <point x="385" y="130" type="curve" smooth="yes"/>
      <point x="385" y="46"/>
      <point x="317" y="-7"/>
      <point x="232" y="-7" type="curve" smooth="yes"/>
      <point x="158" y="-7"/>
      <point x="102" y="31"/>
      <point x="61" y="59" type="curve"/>
      <point x="60" y="57" type="line"/>
      <point x="101" y="29"/>
      <point x="158" y="-9"/>
      <point x="232" y="-9" type="curve" smooth="yes"/>
    </contour>
    <contour>
      <point x="344" y="-192"/>
      <point x="366" y="-181"/>
      <point x="384" y="-166" type="curve"/>
      <point x="382" y="-165" type="line"/>
      <point x="365" y="-179"/>
      <point x="344" y="-190"/>
      <point x="315" y="-190" type="curve" smooth="yes"/>
      <point x="214" y="-190"/>
      <point x="249" y="-52"/>
      <point x="61" y="58" type="curve"/>
      <point x="60" y="57" type="line"/>
      <point x="248" y="-55"/>
      <point x="212" y="-192"/>
      <point x="315" y="-192" type="curve" smooth="yes"/>
    </contour>
  </outline>
</glyph>
<glyph name="uni0240" format="1">
  <advance width="410"/>
  <unicode hex="0240"/>
  <outline>
    <contour>
      <point x="369" y="-192"/>
      <point x="391" y="-181"/>
      <point x="409" y="-166" type="curve"/>
      <point x="407" y="-165" type="line"/>
      <point x="390" y="-179"/>
      <point x="369" y="-190"/>
      <point x="340" y="-190" type="curve" smooth="yes"/>
      <point x="219" y="-190"/>
      <point x="234" y="-24"/>
      <point x="38" y="2" type="curve"/>
      <point x="370" y="515" type="line"/>
      <point x="370" y="517" type="line"/>
      <point x="66" y="517" type="line"/>
      <point x="66" y="515" type="line"/>
      <point x="367" y="515" type="line"/>
      <point x="35" y="2" type="line"/>
      <point x="35" y="0" type="line"/>
      <point x="233" y="-25"/>
      <point x="217" y="-192"/>
      <point x="340" y="-192" type="curve" smooth="yes"/>
    </contour>
  </outline>
</glyph>
